<svg width="4" height="6" viewBox="0 0 4 6" fill="none" xmlns="http://www.w3.org/2000/svg">
<path d="M3.4711 0.2C3.5961 0.325075 3.66632 0.494669 3.66632 0.6715C3.66632 0.848331 3.5961 1.01792 3.4711 1.143L1.6091 3L3.4711 4.862C3.59116 4.98806 3.65718 5.15606 3.65505 5.33013C3.65293 5.5042 3.58284 5.67055 3.45974 5.79364C3.33665 5.91674 3.17031 5.98683 2.99623 5.98895C2.82216 5.99107 2.65416 5.92506 2.5281 5.805L0.200102 3.471C0.0751014 3.34592 0.00488281 3.17633 0.00488281 2.9995C0.00488281 2.82267 0.0751014 2.65308 0.200102 2.528L2.5291 0.2C2.65414 0.0753044 2.82352 0.00527954 3.0001 0.00527954C3.17669 0.00527954 3.34607 0.0753044 3.4711 0.2Z" fill="#23262F"/>
</svg>