<svg width="21" height="20" viewBox="0 0 21 20" fill="none" xmlns="http://www.w3.org/2000/svg">
<path d="M5.22222 9.28071C5.12997 9.1852 5.01963 9.10902 4.89762 9.05661C4.77562 9.0042 4.6444 8.97662 4.51162 8.97546C4.37884 8.97431 4.24716 8.99961 4.12426 9.04989C4.00137 9.10017 3.88972 9.17442 3.79582 9.26832C3.70193 9.36221 3.62768 9.47386 3.5774 9.59676C3.52712 9.71965 3.50181 9.85133 3.50297 9.98411C3.50412 10.1169 3.53171 10.2481 3.58412 10.3701C3.63653 10.4921 3.71271 10.6025 3.80822 10.6947L5.22222 9.28071ZM8.51522 13.9877L7.80822 14.6947C7.99575 14.8822 8.25005 14.9875 8.51522 14.9875C8.78038 14.9875 9.03469 14.8822 9.22222 14.6947L8.51522 13.9877ZM17.2222 6.69471C17.4044 6.50611 17.5052 6.25351 17.5029 5.99131C17.5006 5.72911 17.3954 5.4783 17.21 5.29289C17.0246 5.10749 16.7738 5.00232 16.5116 5.00004C16.2494 4.99776 15.9968 5.09855 15.8082 5.28071L17.2222 6.69471ZM3.80822 10.6947L7.80822 14.6947L9.22222 13.2807L5.22222 9.28071L3.80822 10.6947ZM9.22222 14.6947L17.2222 6.69471L15.8082 5.28071L7.80822 13.2807L9.22222 14.6947Z" fill="#777E90"/>
<path fill-rule="evenodd" clip-rule="evenodd" d="M18.5029 10C18.4985 8.26087 18.3809 6.52386 18.1509 4.8C18.0746 4.1773 17.7921 3.59804 17.3485 3.15443C16.9049 2.71082 16.3256 2.42835 15.7029 2.352C13.9791 2.12201 12.2421 2.00442 10.5029 2C8.7638 2.00442 7.02679 2.12201 5.30293 2.352C4.68023 2.42835 4.10097 2.71082 3.65736 3.15443C3.21375 3.59804 2.93128 4.1773 2.85493 4.8C2.62491 6.52386 2.50733 8.26087 2.50293 10C2.50734 11.7391 2.62492 13.4761 2.85493 15.2C2.93128 15.8227 3.21375 16.402 3.65736 16.8456C4.10097 17.2892 4.68023 17.5716 5.30293 17.648C7.02679 17.878 8.7638 17.9956 10.5029 18C12.2421 17.9956 13.9791 17.878 15.7029 17.648C16.3256 17.5716 16.9049 17.2892 17.3485 16.8456C17.7921 16.402 18.0746 15.8227 18.1509 15.2C18.3809 13.4761 18.4985 11.7391 18.5029 10ZM20.1339 4.542C20.0006 3.48177 19.518 2.4961 18.7624 1.7405C18.0068 0.984894 17.0212 0.502355 15.9609 0.369C14.1515 0.127772 12.3283 0.0045121 10.5029 0C8.67752 0.00451775 6.85434 0.127778 5.04493 0.369C3.9847 0.502355 2.99903 0.984894 2.24343 1.7405C1.48782 2.4961 1.00528 3.48177 0.871929 4.542C0.630682 6.3514 0.507421 8.17459 0.50293 10C0.507427 11.8254 0.630688 13.6486 0.871929 15.458C1.00528 16.5182 1.48782 17.5039 2.24343 18.2595C2.99903 19.0151 3.9847 19.4976 5.04493 19.631C6.85433 19.8722 8.67752 19.9955 10.5029 20C12.3283 19.9955 14.1515 19.8722 15.9609 19.631C17.0212 19.4976 18.0068 19.0151 18.7624 18.2595C19.518 17.5039 20.0006 16.5182 20.1339 15.458C20.3752 13.6486 20.4984 11.8254 20.5029 10C20.4984 8.17459 20.3752 6.35141 20.1339 4.542Z" fill="#777E90"/>
</svg>
