<svg width="21" height="20" viewBox="0 0 21 20" fill="none" xmlns="http://www.w3.org/2000/svg">
<path fill-rule="evenodd" clip-rule="evenodd" d="M18.5029 10C18.4985 8.26087 18.3809 6.52386 18.1509 4.8C18.0746 4.1773 17.7921 3.59804 17.3485 3.15443C16.9049 2.71082 16.3256 2.42835 15.7029 2.352C13.9791 2.12201 12.2421 2.00442 10.5029 2C8.7638 2.00442 7.02679 2.12201 5.30293 2.352C4.68023 2.42835 4.10097 2.71082 3.65736 3.15443C3.21375 3.59804 2.93128 4.1773 2.85493 4.8C2.62491 6.52386 2.50733 8.26087 2.50293 10C2.50734 11.7391 2.62492 13.4761 2.85493 15.2C2.93128 15.8227 3.21375 16.402 3.65736 16.8456C4.10097 17.2892 4.68023 17.5716 5.30293 17.648C7.02679 17.878 8.7638 17.9956 10.5029 18C12.2421 17.9956 13.9791 17.878 15.7029 17.648C16.3256 17.5716 16.9049 17.2892 17.3485 16.8456C17.7921 16.402 18.0746 15.8227 18.1509 15.2C18.3809 13.4761 18.4985 11.7391 18.5029 10ZM20.1339 4.542C20.0006 3.48177 19.518 2.4961 18.7624 1.7405C18.0068 0.984894 17.0212 0.502355 15.9609 0.369C14.1515 0.127772 12.3283 0.0045121 10.5029 0C8.67752 0.00451775 6.85434 0.127778 5.04493 0.369C3.9847 0.502355 2.99903 0.984894 2.24343 1.7405C1.48782 2.4961 1.00528 3.48177 0.871929 4.542C0.630682 6.3514 0.507421 8.17459 0.50293 10C0.507427 11.8254 0.630688 13.6486 0.871929 15.458C1.00528 16.5182 1.48782 17.5039 2.24343 18.2595C2.99903 19.0151 3.9847 19.4976 5.04493 19.631C6.85433 19.8722 8.67752 19.9955 10.5029 20C12.3283 19.9955 14.1515 19.8722 15.9609 19.631C17.0212 19.4976 18.0068 19.0151 18.7624 18.2595C19.518 17.5039 20.0006 16.5182 20.1339 15.458C20.3752 13.6486 20.4984 11.8254 20.5029 10C20.4984 8.17459 20.3752 6.35141 20.1339 4.542Z" fill="#777E90"/>
</svg>
