<svg width="19" height="22" viewBox="0 0 19 22" fill="none" xmlns="http://www.w3.org/2000/svg">
<path d="M10.5029 3C10.5029 3.26522 10.6083 3.51957 10.7958 3.70711C10.9834 3.89464 11.2377 4 11.5029 4H14.5029C15.0334 4 15.5421 4.21071 15.9171 4.58579C16.2922 4.96086 16.5029 5.46957 16.5029 6V18C16.5029 18.5304 16.2922 19.0391 15.9171 19.4142C15.5421 19.7893 15.0334 20 14.5029 20H4.50293C3.9725 20 3.46379 19.7893 3.08872 19.4142C2.71364 19.0391 2.50293 18.5304 2.50293 18V6C2.50293 5.46957 2.71364 4.96086 3.08872 4.58579C3.46379 4.21071 3.9725 4 4.50293 4H7.50293C7.76815 4 8.0225 3.89464 8.21004 3.70711C8.39757 3.51957 8.50293 3.26522 8.50293 3C8.50293 2.73478 8.39757 2.48043 8.21004 2.29289C8.0225 2.10536 7.76815 2 7.50293 2H4.50293C3.44206 2 2.42465 2.42143 1.6745 3.17157C0.924357 3.92172 0.50293 4.93913 0.50293 6L0.50293 18C0.50293 19.0609 0.924357 20.0783 1.6745 20.8284C2.42465 21.5786 3.44206 22 4.50293 22H14.5029C15.5638 22 16.5812 21.5786 17.3314 20.8284C18.0815 20.0783 18.5029 19.0609 18.5029 18V6C18.5029 4.93913 18.0815 3.92172 17.3314 3.17157C16.5812 2.42143 15.5638 2 14.5029 2H11.5029C11.2377 2 10.9834 2.10536 10.7958 2.29289C10.6083 2.48043 10.5029 2.73478 10.5029 3Z" fill="#777E90"/>
<path fill-rule="evenodd" clip-rule="evenodd" d="M8.50293 3C8.50293 3.19778 8.56158 3.39112 8.67146 3.55557C8.78134 3.72002 8.93752 3.84819 9.12025 3.92388C9.30297 3.99957 9.50404 4.01937 9.69802 3.98079C9.892 3.9422 10.0702 3.84696 10.21 3.70711C10.3499 3.56725 10.4451 3.38907 10.4837 3.19509C10.5223 3.00111 10.5025 2.80004 10.4268 2.61732C10.3511 2.43459 10.223 2.27841 10.0585 2.16853C9.89405 2.05865 9.70071 2 9.50293 2C9.23771 2 8.98336 2.10536 8.79582 2.29289C8.60829 2.48043 8.50293 2.73478 8.50293 3ZM9.50293 0C8.90959 0 8.32957 0.175947 7.83622 0.505591C7.34287 0.835235 6.95836 1.30377 6.73129 1.85195C6.50423 2.40013 6.44482 3.00333 6.56058 3.58527C6.67633 4.16721 6.96205 4.70176 7.38161 5.12132C7.80117 5.54088 8.33572 5.8266 8.91766 5.94236C9.4996 6.05811 10.1028 5.9987 10.651 5.77164C11.1992 5.54458 11.6677 5.16006 11.9973 4.66671C12.327 4.17336 12.5029 3.59334 12.5029 3C12.5029 2.20435 12.1869 1.44129 11.6243 0.87868C11.0616 0.31607 10.2986 0 9.50293 0Z" fill="#777E90"/>
<path d="M5.50293 8C5.23771 8 4.98336 8.10536 4.79582 8.29289C4.60829 8.48043 4.50293 8.73478 4.50293 9C4.50293 9.26522 4.60829 9.51957 4.79582 9.70711C4.98336 9.89464 5.23771 10 5.50293 10H13.5029C13.7681 10 14.0225 9.89464 14.21 9.70711C14.3976 9.51957 14.5029 9.26522 14.5029 9C14.5029 8.73478 14.3976 8.48043 14.21 8.29289C14.0225 8.10536 13.7681 8 13.5029 8H5.50293Z" fill="#777E90"/>
<path d="M4.50293 13C4.50293 12.7348 4.60829 12.4804 4.79582 12.2929C4.98336 12.1054 5.23771 12 5.50293 12H13.5029C13.7681 12 14.0225 12.1054 14.21 12.2929C14.3976 12.4804 14.5029 12.7348 14.5029 13C14.5029 13.2652 14.3976 13.5196 14.21 13.7071C14.0225 13.8946 13.7681 14 13.5029 14H5.50293C5.23771 14 4.98336 13.8946 4.79582 13.7071C4.60829 13.5196 4.50293 13.2652 4.50293 13Z" fill="#777E90"/>
<path d="M4.50293 17C4.50293 16.7348 4.60829 16.4804 4.79582 16.2929C4.98336 16.1054 5.23771 16 5.50293 16H9.50293C9.76815 16 10.0225 16.1054 10.21 16.2929C10.3976 16.4804 10.5029 16.7348 10.5029 17C10.5029 17.2652 10.3976 17.5196 10.21 17.7071C10.0225 17.8946 9.76815 18 9.50293 18H5.50293C5.23771 18 4.98336 17.8946 4.79582 17.7071C4.60829 17.5196 4.50293 17.2652 4.50293 17Z" fill="#777E90"/>
</svg>
