<svg width="15" height="15" viewBox="0 0 15 15" fill="none" xmlns="http://www.w3.org/2000/svg">
<path d="M0.305288 0.305288C0.492816 0.117817 0.747124 0.0125018 1.01229 0.0125018C1.27745 0.0125018 1.53176 0.117817 1.71929 0.305288L7.01229 5.59829L12.3053 0.305288C12.3975 0.209778 12.5079 0.133596 12.6299 0.0811868C12.7519 0.0287778 12.8831 0.00119157 13.0159 3.77567e-05C13.1487 -0.00111606 13.2803 0.0241857 13.4032 0.0744665C13.5261 0.124747 13.6378 0.199001 13.7317 0.292893C13.8256 0.386786 13.8998 0.498438 13.9501 0.621334C14.0004 0.744231 14.0257 0.87591 14.0245 1.00869C14.0234 1.14147 13.9958 1.27269 13.9434 1.39469C13.891 1.5167 13.8148 1.62704 13.7193 1.71929L8.42629 7.01229L13.7193 12.3053C13.8148 12.3975 13.891 12.5079 13.9434 12.6299C13.9958 12.7519 14.0234 12.8831 14.0245 13.0159C14.0257 13.1487 14.0004 13.2803 13.9501 13.4032C13.8998 13.5261 13.8256 13.6378 13.7317 13.7317C13.6378 13.8256 13.5261 13.8998 13.4032 13.9501C13.2803 14.0004 13.1487 14.0257 13.0159 14.0245C12.8831 14.0234 12.7519 13.9958 12.6299 13.9434C12.5079 13.891 12.3975 13.8148 12.3053 13.7193L7.01229 8.42629L1.71929 13.7193C1.62704 13.8148 1.5167 13.891 1.39469 13.9434C1.27269 13.9958 1.14147 14.0234 1.00869 14.0245C0.87591 14.0257 0.744231 14.0004 0.621334 13.9501C0.498438 13.8998 0.386786 13.8256 0.292893 13.7317C0.199001 13.6378 0.124747 13.5261 0.0744665 13.4032C0.0241857 13.2803 -0.00111606 13.1487 3.77567e-05 13.0159C0.00119157 12.8831 0.0287778 12.7519 0.0811868 12.6299C0.133596 12.5079 0.209778 12.3975 0.305288 12.3053L5.59829 7.01229L0.305288 1.71929C0.117817 1.53176 0.0125018 1.27745 0.0125018 1.01229C0.0125018 0.747124 0.117817 0.492816 0.305288 0.305288Z" fill="#777E90"/>
</svg>
