<svg width="17" height="18" viewBox="0 0 17 18" fill="none" xmlns="http://www.w3.org/2000/svg">
<path fill-rule="evenodd" clip-rule="evenodd" d="M0.0596188 14.3308L0.659619 11.6138C0.797972 10.9946 1.1102 10.4277 1.55962 9.97981L9.76762 1.77281C10.0771 1.46325 10.4446 1.21769 10.849 1.05015C11.2534 0.882617 11.6869 0.796387 12.1246 0.796387C12.5624 0.796387 12.9958 0.882617 13.4002 1.05015C13.8047 1.21769 14.1721 1.46325 14.4816 1.77281L15.5986 2.89681C15.9082 3.20632 16.1537 3.57377 16.3213 3.97819C16.4888 4.38261 16.575 4.81607 16.575 5.25381C16.575 5.69156 16.4888 6.12502 16.3213 6.52944C16.1537 6.93385 15.9082 7.30131 15.5986 7.61081L7.39862 15.8128C6.95069 16.2622 6.38383 16.5744 5.76462 16.7128L3.04762 17.3128C2.63678 17.405 2.2093 17.392 1.80484 17.2749C1.40038 17.1579 1.03205 16.9405 0.734011 16.6431C0.435974 16.3456 0.217891 15.9777 0.0999955 15.5735C-0.0179 15.1693 -0.0317884 14.7418 0.0596188 14.3308ZM2.29062 11.9748L1.69062 14.6918C1.66018 14.8286 1.66477 14.9709 1.70394 15.1055C1.74311 15.2401 1.81561 15.3626 1.91472 15.4617C2.01384 15.5608 2.13635 15.6333 2.27093 15.6725C2.40551 15.7117 2.5478 15.7162 2.68462 15.6858L5.40162 15.0858C5.699 15.0198 5.97258 14.8735 6.19262 14.6628L2.71362 11.1838C2.503 11.4039 2.3567 11.6775 2.29062 11.9748ZM3.89062 10.0048L7.36862 13.4818L12.0226 8.82681L8.54662 5.35081L3.89062 10.0048ZM14.4206 6.42781L13.1986 7.64881L9.72562 4.17181L10.9456 2.95181C11.2582 2.63934 11.6821 2.46381 12.1241 2.46381C12.5661 2.46381 12.99 2.63934 13.3026 2.95181L14.4216 4.07081C14.7342 4.38328 14.9099 4.80711 14.9101 5.24911C14.9103 5.6911 14.735 6.11508 14.4226 6.42781H14.4206Z" fill="#777E90"/>
</svg>
