<svg width="27" height="26" viewBox="0 0 27 26" fill="none" xmlns="http://www.w3.org/2000/svg">
<path fill-rule="evenodd" clip-rule="evenodd" d="M13.4745 20.7943C18.206 20.7943 21.5694 17.2927 23.5383 14.376C23.8705 13.9003 24.052 13.3034 24.052 12.6874C24.052 12.0714 23.8705 11.4745 23.5383 10.9987C21.5694 8.08479 18.206 4.58319 13.4745 4.58319C8.7431 4.58319 5.37972 8.08479 3.40962 11.0014C3.0775 11.4772 2.89593 12.0741 2.89593 12.6901C2.89593 13.3061 3.0775 13.903 3.40962 14.3787C5.37972 17.2927 8.74539 20.7943 13.4745 20.7943ZM25.3341 16.0579C25.9886 15.1043 26.3456 13.9151 26.3456 12.6887C26.3456 11.4624 25.9886 10.2732 25.3341 9.31953C23.1943 6.14756 19.2392 1.88135 13.4745 1.88135C7.70989 1.88135 3.75708 6.14756 1.61497 9.31953C0.960529 10.2732 0.603516 11.4624 0.603516 12.6887C0.603516 13.9151 0.960529 15.1043 1.61497 16.0579C3.75708 19.2299 7.71333 23.4961 13.4745 23.4961C19.2358 23.4961 23.1943 19.2299 25.3341 16.0579Z" fill="#777E90"/>
<path fill-rule="evenodd" clip-rule="evenodd" d="M15.768 12.6888C15.768 13.4054 15.5264 14.0926 15.0963 14.5993C14.6662 15.106 14.0828 15.3907 13.4745 15.3907C12.8663 15.3907 12.2829 15.106 11.8528 14.5993C11.4227 14.0926 11.1811 13.4054 11.1811 12.6888C11.1811 12.6501 11.1811 12.6118 11.1811 12.574C11.4874 12.7019 11.8182 12.725 12.1351 12.6406C12.4521 12.5562 12.7423 12.3677 12.9721 12.097C13.2019 11.8263 13.3619 11.4844 13.4336 11.111C13.5052 10.7375 13.4857 10.3478 13.3771 9.987H13.4745C14.0828 9.987 14.6662 10.2717 15.0963 10.7784C15.5264 11.2851 15.768 11.9723 15.768 12.6888ZM18.0615 12.6888C18.0615 13.7576 17.7925 14.8023 17.2884 15.691C16.7844 16.5796 16.068 17.2722 15.2299 17.6812C14.3917 18.0902 13.4694 18.1972 12.5797 17.9887C11.6899 17.7802 10.8726 17.2656 10.2311 16.5098C9.58957 15.7541 9.1527 14.7913 8.97571 13.7431C8.79872 12.6948 8.88956 11.6083 9.23674 10.6209C9.58391 9.63355 10.1718 8.78961 10.9262 8.19584C11.6805 7.60208 12.5673 7.28516 13.4745 7.28516C14.6911 7.28516 15.8578 7.85447 16.718 8.86786C17.5782 9.88125 18.0615 11.2557 18.0615 12.6888Z" fill="#777E90"/>
<path d="M2.89697 23.6147L23.5383 1.99997" stroke="#777E90" stroke-width="3" stroke-linecap="round"/>
</svg>
