<svg width="27" height="22" viewBox="0 0 27 22" fill="none" xmlns="http://www.w3.org/2000/svg">
<path fill-rule="evenodd" clip-rule="evenodd" d="M13.3657 18.9129C18.0971 18.9129 21.4605 15.4113 23.4294 12.4947C23.7616 12.0189 23.9431 11.422 23.9431 10.806C23.9431 10.19 23.7616 9.59316 23.4294 9.11738C21.4605 6.20344 18.0971 2.70185 13.3657 2.70185C8.63422 2.70185 5.27083 6.20344 3.30073 9.12008C2.96861 9.59587 2.78704 10.1927 2.78704 10.8087C2.78704 11.4247 2.96861 12.0216 3.30073 12.4974C5.27083 15.4113 8.63651 18.9129 13.3657 18.9129ZM25.2252 14.1766C25.8797 13.2229 26.2367 12.0337 26.2367 10.8074C26.2367 9.58107 25.8797 8.39184 25.2252 7.43819C23.0854 4.26622 19.1303 0 13.3657 0C7.601 0 3.64819 4.26622 1.50608 7.43819C0.851642 8.39184 0.494629 9.58107 0.494629 10.8074C0.494629 12.0337 0.851642 13.2229 1.50608 14.1766C3.64819 17.3486 7.60444 21.6148 13.3657 21.6148C19.1269 21.6148 23.0854 17.3486 25.2252 14.1766Z" fill="#777E90"/>
<path fill-rule="evenodd" clip-rule="evenodd" d="M15.6591 10.8075C15.6591 11.5241 15.4175 12.2113 14.9874 12.718C14.5573 13.2247 13.9739 13.5093 13.3656 13.5093C12.7574 13.5093 12.174 13.2247 11.7439 12.718C11.3138 12.2113 11.0722 11.5241 11.0722 10.8075C11.0722 10.7688 11.0722 10.7305 11.0722 10.6927C11.3785 10.8206 11.7093 10.8437 12.0263 10.7593C12.3432 10.6748 12.6334 10.4863 12.8632 10.2156C13.093 9.94492 13.253 9.60305 13.3247 9.22963C13.3964 8.8562 13.3768 8.4665 13.2682 8.10566H13.3656C13.9739 8.10566 14.5573 8.39031 14.9874 8.89701C15.4175 9.4037 15.6591 10.0909 15.6591 10.8075ZM17.9526 10.8075C17.9526 11.8763 17.6836 12.921 17.1796 13.8096C16.6755 14.6983 15.9592 15.3909 15.121 15.7999C14.2828 16.2089 13.3606 16.3159 12.4708 16.1074C11.581 15.8989 10.7637 15.3842 10.1222 14.6285C9.48068 13.8728 9.04381 12.9099 8.86683 11.8617C8.68984 10.8135 8.78067 9.72699 9.12785 8.7396C9.47503 7.7522 10.0629 6.90826 10.8173 6.3145C11.5716 5.72073 12.4584 5.40381 13.3656 5.40381C14.5822 5.40381 15.7489 5.97312 16.6091 6.98651C17.4693 7.9999 17.9526 9.37435 17.9526 10.8075Z" fill="#777E90"/>
</svg>
