<svg width="18" height="17" viewBox="0 0 18 17" fill="none" xmlns="http://www.w3.org/2000/svg">
<path fill-rule="evenodd" clip-rule="evenodd" d="M8.99999 15C10.3186 15.0002 11.6077 14.6093 12.7043 13.8769C13.8008 13.1444 14.6554 12.1032 15.1602 10.885C15.665 9.66681 15.7971 8.32626 15.54 7.03293C15.2829 5.73959 14.648 4.55155 13.7156 3.61905C12.7833 2.68656 11.5953 2.05149 10.302 1.79416C9.00873 1.53683 7.66817 1.6688 6.44987 2.17338C5.23158 2.67796 4.19028 3.53249 3.45765 4.62889C2.72503 5.72529 2.33399 7.01433 2.33399 8.33298C2.33399 10.101 3.03627 11.7966 4.28636 13.0469C5.53645 14.2972 7.23197 14.9997 8.99999 15ZM8.99999 16.667C10.6481 16.667 12.2591 16.1783 13.6295 15.2627C14.9998 14.3471 16.0679 13.0457 16.6986 11.5231C17.3293 10.0005 17.4944 8.32508 17.1729 6.70866C16.8515 5.09224 16.058 3.60744 14.8927 2.44201C13.7274 1.27658 12.2427 0.482862 10.6263 0.161219C9.00992 -0.160425 7.33446 0.00445348 5.81178 0.635005C4.28911 1.26556 2.9876 2.33346 2.07184 3.70369C1.15608 5.07391 0.66719 6.68491 0.666992 8.33298C0.666861 9.42737 0.882303 10.5111 1.30102 11.5222C1.71973 12.5333 2.33351 13.4521 3.10732 14.2259C3.88112 14.9998 4.79979 15.6137 5.81086 16.0326C6.82193 16.4514 7.9056 16.667 8.99999 16.667Z" fill="#777E90" fill-opacity="0.5"/>
<path d="M9 6.66602C9 6.44509 9.08777 6.23321 9.24398 6.077C9.4002 5.92078 9.61208 5.83302 9.833 5.83302H10.667C10.8881 5.83302 11.1001 5.7452 11.2564 5.58889C11.4127 5.43258 11.5005 5.22057 11.5005 4.99952C11.5005 4.77846 11.4127 4.56645 11.2564 4.41014C11.1001 4.25383 10.8881 4.16602 10.667 4.16602H9.834C9.17096 4.16602 8.53508 4.42941 8.06624 4.89825C7.5974 5.36709 7.334 6.00297 7.334 6.66602V8.33302H6.5C6.27895 8.33302 6.06694 8.42083 5.91063 8.57714C5.75432 8.73345 5.6665 8.94546 5.6665 9.16652C5.6665 9.38757 5.75432 9.59958 5.91063 9.75589C6.06694 9.9122 6.27895 10 6.5 10H7.333V15C7.333 15.2211 7.42082 15.4331 7.57713 15.5894C7.73344 15.7457 7.94545 15.8335 8.1665 15.8335C8.38756 15.8335 8.59957 15.7457 8.75588 15.5894C8.91219 15.4331 9 15.2211 9 15V10H10.667C10.8881 10 11.1001 9.9122 11.2564 9.75589C11.4127 9.59958 11.5005 9.38757 11.5005 9.16652C11.5005 8.94546 11.4127 8.73345 11.2564 8.57714C11.1001 8.42083 10.8881 8.33302 10.667 8.33302H9V6.66602Z" fill="#777E90" fill-opacity="0.5"/>
</svg>
