<svg width="14" height="20" viewBox="0 0 14 20" fill="none" xmlns="http://www.w3.org/2000/svg">
<path fill-rule="evenodd" clip-rule="evenodd" d="M10.833 7.501L13.475 4.419C13.6822 4.17696 13.8157 3.88063 13.8596 3.56509C13.9036 3.24955 13.8562 2.92801 13.7231 2.63856C13.59 2.3491 13.3768 2.10385 13.1086 1.93184C12.8404 1.75983 12.5286 1.66827 12.21 1.668H0.833008L0.833008 13.334H12.209C12.5276 13.3337 12.8394 13.2422 13.1076 13.0702C13.3758 12.8981 13.589 12.6529 13.7221 12.3634C13.8552 12.074 13.9026 11.7524 13.8586 11.4369C13.8147 11.1214 13.6812 10.825 13.474 10.583L10.833 7.501ZM2.50001 11.667H12.21L8.63301 7.501L12.209 3.334H2.50001L2.50001 11.667Z" fill="#777E90"/>
<path d="M0.833008 0.832996C0.833008 0.72354 0.854567 0.615155 0.896454 0.51403C0.938342 0.412905 0.999737 0.321021 1.07713 0.243623C1.15453 0.166225 1.24642 0.10483 1.34754 0.0629429C1.44867 0.0210556 1.55705 -0.00050354 1.66651 -0.00050354C1.77596 -0.00050354 1.88435 0.0210556 1.98547 0.0629429C2.0866 0.10483 2.17848 0.166225 2.25588 0.243623C2.33328 0.321021 2.39467 0.412905 2.43656 0.51403C2.47845 0.615155 2.50001 0.72354 2.50001 0.832996V19.167C2.50001 19.3881 2.41219 19.6001 2.25588 19.7564C2.09957 19.9127 1.88757 20.0005 1.66651 20.0005C1.44545 20.0005 1.23345 19.9127 1.07713 19.7564C0.920823 19.6001 0.833008 19.3881 0.833008 19.167L0.833008 0.832996Z" fill="#777E90"/>
</svg>
