<svg width="10" height="10" viewBox="0 0 10 10" fill="none" xmlns="http://www.w3.org/2000/svg">
<path fill-rule="evenodd" clip-rule="evenodd" d="M3 0C2.86739 0 2.74021 0.0526784 2.64645 0.146447C2.55268 0.240215 2.5 0.367392 2.5 0.5V2.5H0.5C0.367392 2.5 0.240215 2.55268 0.146447 2.64645C0.0526784 2.74021 0 2.86739 0 3C0 3.13261 0.0526784 3.25979 0.146447 3.35355C0.240215 3.44732 0.367392 3.5 0.5 3.5H2.5V6.5H0.5C0.367392 6.5 0.240215 6.55268 0.146447 6.64645C0.0526784 6.74021 0 6.86739 0 7C0 7.13261 0.0526784 7.25979 0.146447 7.35355C0.240215 7.44732 0.367392 7.5 0.5 7.5H2.5V9.5C2.5 9.63261 2.55268 9.75979 2.64645 9.85355C2.74021 9.94732 2.86739 10 3 10C3.13261 10 3.25979 9.94732 3.35355 9.85355C3.44732 9.75979 3.5 9.63261 3.5 9.5V7.5H6.5V9.5C6.5 9.63261 6.55268 9.75979 6.64645 9.85355C6.74021 9.94732 6.86739 10 7 10C7.13261 10 7.25979 9.94732 7.35355 9.85355C7.44732 9.75979 7.5 9.63261 7.5 9.5V7.5H9.5C9.63261 7.5 9.75979 7.44732 9.85355 7.35355C9.94732 7.25979 10 7.13261 10 7C10 6.86739 9.94732 6.74021 9.85355 6.64645C9.75979 6.55268 9.63261 6.5 9.5 6.5H7.5V3.5H9.5C9.63261 3.5 9.75979 3.44732 9.85355 3.35355C9.94732 3.25979 10 3.13261 10 3C10 2.86739 9.94732 2.74021 9.85355 2.64645C9.75979 2.55268 9.63261 2.5 9.5 2.5H7.5V0.5C7.5 0.367392 7.44732 0.240215 7.35355 0.146447C7.25979 0.0526784 7.13261 0 7 0C6.86739 0 6.74021 0.0526784 6.64645 0.146447C6.55268 0.240215 6.5 0.367392 6.5 0.5V2.5H3.5V0.5C3.5 0.367392 3.44732 0.240215 3.35355 0.146447C3.25979 0.0526784 3.13261 0 3 0ZM6.5 6.5V3.5H3.5V6.5H6.5Z" fill="#DD436C"/>
</svg>
