<svg width="22" height="18" viewBox="0 0 22 18" fill="none" xmlns="http://www.w3.org/2000/svg">
<path fill-rule="evenodd" clip-rule="evenodd" d="M11.692 3.917C11.5058 4.09576 11.2576 4.19558 10.9995 4.19558C10.7414 4.19558 10.4932 4.09576 10.307 3.917L9.615 3.253C8.97849 2.64247 8.17659 2.23245 7.30898 2.07389C6.44137 1.91534 5.54628 2.01523 4.73498 2.36117C3.92367 2.70711 3.2319 3.28384 2.74566 4.01967C2.25941 4.75551 2.00011 5.61802 2 6.5C2.05528 7.66497 2.36634 8.80349 2.91108 9.83473C3.45583 10.866 4.2209 11.7647 5.152 12.467C6.78082 13.821 8.61036 14.9134 10.575 15.705C10.7097 15.7615 10.8544 15.7906 11.0005 15.7906C11.1466 15.7906 11.2913 15.7615 11.426 15.705C13.3906 14.9134 15.2202 13.821 16.849 12.467C17.7799 11.7646 18.5448 10.8658 19.0894 9.8346C19.6339 8.80336 19.9448 7.66489 20 6.5C19.9999 5.61802 19.7406 4.75551 19.2543 4.01967C18.7681 3.28384 18.0763 2.70711 17.265 2.36117C16.4537 2.01523 15.5586 1.91534 14.691 2.07389C13.8234 2.23245 13.0215 2.64247 12.385 3.253L11.692 3.917ZM11 1.81C10.0806 0.927946 8.92229 0.335534 7.66899 0.106398C6.41569 -0.122738 5.12268 0.0215066 3.95068 0.521203C2.77868 1.0209 1.77938 1.85401 1.07699 2.91699C0.374595 3.97996 8.14914e-05 5.22592 0 6.5C0 12.868 6.97 16.385 9.814 17.555C10.5734 17.8695 11.4266 17.8695 12.186 17.555C15.03 16.385 22 12.868 22 6.5C21.9999 5.22592 21.6254 3.97996 20.923 2.91699C20.2206 1.85401 19.2213 1.0209 18.0493 0.521203C16.8773 0.0215066 15.5843 -0.122738 14.331 0.106398C13.0777 0.335534 11.9194 0.927946 11 1.81Z" fill="#777E90"/>
</svg>
