<svg width="20" height="18" viewBox="0 0 20 18" fill="none" xmlns="http://www.w3.org/2000/svg">
<path fill-rule="evenodd" clip-rule="evenodd" d="M9.99277 2.476H9.99977H10.0068L13.7178 4.703L14.9988 5.475V14.667C14.9988 15.161 14.9988 15.432 14.9818 15.626V15.648H14.9598C14.7658 15.664 14.4948 15.665 14.0008 15.665H6.00077C5.50677 15.665 5.23577 15.665 5.04177 15.648H5.01977V15.626C5.00377 15.432 5.00277 15.161 5.00277 14.667V5.475L6.27677 4.706L9.99277 2.476ZM5.41777 3.276L1.23277 5.786C1.04327 5.89965 0.90668 6.08392 0.853045 6.29827C0.799409 6.51262 0.833122 6.73951 0.946768 6.929C1.06041 7.1185 1.24468 7.25509 1.45904 7.30873C1.67339 7.36236 1.90027 7.32865 2.08977 7.215L3.33277 6.472V14.667C3.26636 15.2589 3.32844 15.8582 3.51477 16.424C3.67454 16.7374 3.92937 16.9922 4.24277 17.152C4.80854 17.3383 5.40783 17.4004 5.99977 17.334H13.9998C14.5917 17.4004 15.191 17.3383 15.7568 17.152C16.0702 16.9922 16.325 16.7374 16.4848 16.424C16.6711 15.8582 16.7331 15.2589 16.6668 14.667V6.472L17.9048 7.215C18.0943 7.32878 18.3212 7.36262 18.5356 7.30908C18.7501 7.25554 18.9345 7.119 19.0483 6.9295C19.162 6.74001 19.1959 6.51307 19.1423 6.29862C19.0888 6.08418 18.9523 5.89978 18.7628 5.786L14.5768 3.275L11.3758 1.346C11.1428 1.206 10.9648 1.096 10.8128 1.017C10.7774 0.99767 10.7418 0.979336 10.7058 0.962003C10.5953 0.905758 10.4785 0.863113 10.3578 0.835003C10.1216 0.782996 9.87694 0.782996 9.64077 0.835003C9.52002 0.863451 9.40317 0.906431 9.29277 0.963003C9.25677 0.97967 9.22143 0.99767 9.18677 1.017C9.03277 1.096 8.85677 1.206 8.62377 1.346L5.41777 3.276Z" fill="#777E90"/>
<path d="M12.265 7.73501H11.51C11.51 7.33453 11.3509 6.95045 11.0677 6.66727C10.7845 6.3841 10.4005 6.22501 9.99998 6.22501C9.5995 6.22501 9.21543 6.3841 8.93225 6.66727C8.64907 6.95045 8.48998 7.33453 8.48998 7.73501H7.73498C7.5349 7.73553 7.34317 7.81525 7.2017 7.95672C7.06022 8.0982 6.98051 8.28993 6.97998 8.49001V13.025C6.98051 13.2251 7.06022 13.4168 7.2017 13.5583C7.34317 13.6998 7.5349 13.7795 7.73498 13.78H12.265C12.4651 13.7795 12.6568 13.6998 12.7983 13.5583C12.9397 13.4168 13.0195 13.2251 13.02 13.025V8.49001C13.0195 8.28993 12.9397 8.0982 12.7983 7.95672C12.6568 7.81525 12.4651 7.73553 12.265 7.73501ZM9.99998 6.98001C10.2001 6.98053 10.3918 7.06025 10.5333 7.20172C10.6747 7.3432 10.7545 7.53493 10.755 7.73501H9.24498C9.24551 7.53493 9.32522 7.3432 9.4667 7.20172C9.60817 7.06025 9.7999 6.98053 9.99998 6.98001ZM12.265 13.025H7.73498V8.49001H8.48998V9.24501C8.49496 9.34177 8.53691 9.43292 8.60716 9.49964C8.6774 9.56637 8.77059 9.60357 8.86748 9.60357C8.96437 9.60357 9.05756 9.56637 9.1278 9.49964C9.19805 9.43292 9.24 9.34177 9.24498 9.24501V8.49001H10.755V9.24501C10.7523 9.29621 10.7602 9.34742 10.7779 9.39552C10.7957 9.44361 10.8231 9.48759 10.8584 9.52477C10.8937 9.56194 10.9362 9.59155 10.9833 9.61178C11.0305 9.63201 11.0812 9.64244 11.1325 9.64244C11.1838 9.64244 11.2345 9.63201 11.2816 9.61178C11.3287 9.59155 11.3712 9.56194 11.4066 9.52477C11.4419 9.48759 11.4692 9.44361 11.487 9.39552C11.5048 9.34742 11.5126 9.29621 11.51 9.24501V8.49001H12.265V13.025Z" fill="black"/>
</svg>
