<svg width="18" height="17" viewBox="0 0 18 17" fill="none" xmlns="http://www.w3.org/2000/svg">
<path fill-rule="evenodd" clip-rule="evenodd" d="M12.334 1.667H5.66699C4.78303 1.667 3.93526 2.01815 3.31021 2.64321C2.68515 3.26827 2.33399 4.11603 2.33399 5V11.667C2.33399 12.551 2.68515 13.3987 3.31021 14.0238C3.93526 14.6488 4.78303 15 5.66699 15H12.334C13.218 15 14.0657 14.6488 14.6908 14.0238C15.3158 13.3987 15.667 12.551 15.667 11.667V5C15.667 4.11603 15.3158 3.26827 14.6908 2.64321C14.0657 2.01815 13.218 1.667 12.334 1.667ZM5.66699 0C4.34091 0 3.06914 0.526784 2.13146 1.46447C1.19378 2.40215 0.666992 3.67392 0.666992 5L0.666992 11.667C0.666992 12.9931 1.19378 14.2649 2.13146 15.2025C3.06914 16.1402 4.34091 16.667 5.66699 16.667H12.334C13.6601 16.667 14.9318 16.1402 15.8695 15.2025C16.8072 14.2649 17.334 12.9931 17.334 11.667V5C17.334 3.67392 16.8072 2.40215 15.8695 1.46447C14.9318 0.526784 13.6601 0 12.334 0L5.66699 0Z" fill="url(#paint0_linear_121_659)"/>
<path d="M13.166 4.99998C13.3307 4.99998 13.4917 4.95116 13.6287 4.85967C13.7657 4.76818 13.8724 4.63814 13.9355 4.48599C13.9986 4.33384 14.0151 4.1664 13.9831 4.00484C13.951 3.84328 13.8718 3.69486 13.7554 3.57832C13.639 3.46178 13.4907 3.38237 13.3291 3.35011C13.1676 3.31786 13.0002 3.33421 12.8479 3.39711C12.6957 3.46 12.5655 3.56661 12.4739 3.70347C12.3822 3.84032 12.3332 4.00128 12.333 4.16598C12.3329 4.27546 12.3543 4.38389 12.3961 4.48507C12.4379 4.58625 12.4993 4.67819 12.5766 4.75565C12.654 4.83311 12.7459 4.89456 12.847 4.93648C12.9481 4.97841 13.0565 4.99998 13.166 4.99998Z" fill="url(#paint1_linear_121_659)"/>
<path fill-rule="evenodd" clip-rule="evenodd" d="M13.166 8.33302C13.166 9.15721 12.9216 9.9629 12.4637 10.6482C12.0058 11.3335 11.3549 11.8676 10.5934 12.1829C9.83197 12.4983 8.99407 12.5807 8.18572 12.4199C7.37738 12.259 6.63489 11.862 6.05217 11.2792C5.46944 10.6963 5.07265 9.95373 4.91198 9.14534C4.75131 8.33696 4.83397 7.49908 5.14951 6.73768C5.46506 5.97628 5.99931 5.32555 6.6847 4.8678C7.37009 4.41004 8.17584 4.16582 9.00003 4.16602C10.105 4.16628 11.1647 4.60542 11.9459 5.38686C12.7271 6.16829 13.166 7.22803 13.166 8.33302ZM11.499 8.33302C11.499 8.82747 11.3524 9.31082 11.0777 9.72194C10.803 10.1331 10.4126 10.4535 9.95574 10.6427C9.49893 10.8319 8.99626 10.8814 8.51131 10.785C8.02635 10.6885 7.5809 10.4504 7.23127 10.1008C6.88163 9.75115 6.64353 9.30569 6.54707 8.82074C6.45061 8.33579 6.50012 7.83312 6.68933 7.37631C6.87855 6.91949 7.19898 6.52905 7.61011 6.25434C8.02123 5.97964 8.50458 5.83302 8.99903 5.83302C9.32742 5.83288 9.65262 5.89745 9.95605 6.02303C10.2595 6.14861 10.5352 6.33274 10.7674 6.5649C10.9997 6.79705 11.1839 7.0727 11.3096 7.37608C11.4353 7.67946 11.499 8.00463 11.499 8.33302Z" fill="url(#paint2_linear_121_659)"/>
<defs>
<linearGradient id="paint0_linear_121_659" x1="9.00049" y1="0" x2="9.00049" y2="16.667" gradientUnits="userSpaceOnUse">
<stop stop-color="#FF2E53"/>
<stop offset="1" stop-color="#EC9F45"/>
</linearGradient>
<linearGradient id="paint1_linear_121_659" x1="13.166" y1="3.33398" x2="13.166" y2="4.99998" gradientUnits="userSpaceOnUse">
<stop stop-color="#FF2E53"/>
<stop offset="1" stop-color="#EC9F45"/>
</linearGradient>
<linearGradient id="paint2_linear_121_659" x1="8.99903" y1="4.16602" x2="8.99903" y2="12.5" gradientUnits="userSpaceOnUse">
<stop stop-color="#FF2E53"/>
<stop offset="1" stop-color="#EC9F45"/>
</linearGradient>
</defs>
</svg>
