<svg width="20" height="20" viewBox="0 0 20 20" fill="none" xmlns="http://www.w3.org/2000/svg">
<path fill-rule="evenodd" clip-rule="evenodd" d="M3 16V7H9V16H3ZM7 9V14H5V9H7Z" fill="#23262F"/>
<path fill-rule="evenodd" clip-rule="evenodd" d="M11 16V7H17V16H11ZM15 9V14H13V9H15Z" fill="#23262F"/>
<path fill-rule="evenodd" clip-rule="evenodd" d="M17 16H3C2.73478 16 2.48043 16.1054 2.29289 16.2929C2.10536 16.4804 2 16.7348 2 17C2 17.2652 2.10536 17.5196 2.29289 17.7071C2.48043 17.8946 2.73478 18 3 18H17C17.2652 18 17.5196 17.8946 17.7071 17.7071C17.8946 17.5196 18 17.2652 18 17C18 16.7348 17.8946 16.4804 17.7071 16.2929C17.5196 16.1054 17.2652 16 17 16ZM3 14C2.20435 14 1.44129 14.3161 0.87868 14.8787C0.31607 15.4413 0 16.2044 0 17C0 17.7956 0.31607 18.5587 0.87868 19.1213C1.44129 19.6839 2.20435 20 3 20H17C17.7956 20 18.5587 19.6839 19.1213 19.1213C19.6839 18.5587 20 17.7956 20 17C20 16.2044 19.6839 15.4413 19.1213 14.8787C18.5587 14.3161 17.7956 14 17 14H3Z" fill="#23262F"/>
<path fill-rule="evenodd" clip-rule="evenodd" d="M18 5.99995V5.23195C18 5.01682 17.9307 4.80742 17.8022 4.63484C17.6738 4.46226 17.4931 4.3357 17.287 4.27395L10.287 2.17395C10.0995 2.11766 9.89953 2.11766 9.712 2.17395L2.712 4.27395C2.5061 4.33588 2.32565 4.46251 2.19739 4.63508C2.06914 4.80764 1.99992 5.01695 2 5.23195V5.99995C2 6.26517 2.10536 6.51952 2.29289 6.70706C2.48043 6.8946 2.73478 6.99995 3 6.99995H17C17.2652 6.99995 17.5196 6.8946 17.7071 6.70706C17.8946 6.51952 18 6.26517 18 5.99995ZM2.138 2.35895C1.5201 2.54431 0.97841 2.92391 0.593282 3.44144C0.208154 3.95897 0.000105789 4.58685 0 5.23195L0 5.99995C0 6.7956 0.31607 7.55867 0.87868 8.12127C1.44129 8.68388 2.20435 8.99995 3 8.99995H17C17.7956 8.99995 18.5587 8.68388 19.1213 8.12127C19.6839 7.55867 20 6.7956 20 5.99995V5.23195C19.9999 4.58685 19.7918 3.95897 19.4067 3.44144C19.0216 2.92391 18.4799 2.54431 17.862 2.35895L10.862 0.258954C10.2997 0.0902769 9.70029 0.0902769 9.138 0.258954L2.138 2.35895Z" fill="#23262F"/>
</svg>
