<svg width="20" height="20" viewBox="0 0 20 20" fill="none" xmlns="http://www.w3.org/2000/svg">
<path fill-rule="evenodd" clip-rule="evenodd" d="M16.2528 0.478994C16.71 0.288583 17.2134 0.238265 17.6993 0.334421C18.1851 0.430577 18.6315 0.668875 18.9817 1.01908C19.3319 1.36929 19.5702 1.81563 19.6664 2.30148C19.7625 2.78733 19.7122 3.29079 19.5218 3.74799L13.5978 17.964C13.3472 18.5648 12.9081 19.0678 12.3466 19.3971C11.785 19.7264 11.1316 19.8642 10.485 19.7896C9.83831 19.7149 9.23346 19.432 8.7617 18.9835C8.28995 18.5349 7.9769 17.9451 7.86978 17.303L7.13078 12.869L2.69678 12.13C2.05469 12.0229 1.46487 11.7098 1.01632 11.2381C0.567772 10.7663 0.284835 10.1615 0.210211 9.5148C0.135587 8.86813 0.273324 8.21474 0.602637 7.65322C0.93195 7.09171 1.43497 6.65254 2.03578 6.40199L16.2528 0.478994ZM17.6758 2.97899C17.714 2.88752 17.7241 2.78677 17.7049 2.68953C17.6857 2.59229 17.638 2.50296 17.5679 2.43287C17.4978 2.36278 17.4085 2.31511 17.3112 2.2959C17.214 2.27669 17.1133 2.28682 17.0218 2.32499L2.80478 8.24799C2.60466 8.33157 2.43713 8.47793 2.32745 8.66503C2.21777 8.85212 2.17189 9.0698 2.19671 9.28525C2.22154 9.50069 2.31574 9.70223 2.4651 9.85947C2.61446 10.0167 2.81089 10.1211 3.02478 10.157L7.45878 10.896C7.86996 10.9645 8.24945 11.1598 8.5442 11.4546C8.83896 11.7493 9.03425 12.1288 9.10278 12.54L9.84278 16.979C9.87864 17.1929 9.98306 17.3893 10.1403 17.5387C10.2975 17.688 10.4991 17.7822 10.7145 17.8071C10.93 17.8319 11.1477 17.786 11.3347 17.6763C11.5218 17.5666 11.6682 17.3991 11.7518 17.199L17.6758 2.97899Z" fill="#777E90"/>
</svg>
