<svg width="16" height="20" viewBox="0 0 16 20" fill="none" xmlns="http://www.w3.org/2000/svg">
<path d="M5.50009 8.36601C5.50602 8.47536 5.49034 8.5848 5.45394 8.68808C5.41753 8.79136 5.36112 8.88644 5.28793 8.9679C5.21474 9.04936 5.12621 9.11558 5.0274 9.16279C4.92859 9.20999 4.82144 9.23725 4.71209 9.24301C4.08509 9.27601 3.58809 9.31701 3.20009 9.35801C2.97507 9.36439 2.76017 9.45296 2.59601 9.60699C2.43184 9.76103 2.32977 9.96985 2.30909 10.194C2.2039 11.2369 2.15683 12.2849 2.16809 13.333C2.15683 14.3811 2.2039 15.4291 2.30909 16.472C2.32952 16.6959 2.43124 16.9046 2.59503 17.0586C2.75882 17.2126 2.97335 17.3014 3.19809 17.308C4.79379 17.4535 6.39586 17.5176 7.99809 17.5C9.60031 17.5176 11.2024 17.4535 12.7981 17.308C13.0228 17.3014 13.2374 17.2126 13.4011 17.0586C13.5649 16.9046 13.6667 16.6959 13.6871 16.472C13.7923 15.4291 13.8393 14.3811 13.8281 13.333C13.8393 12.2849 13.7923 11.2369 13.6871 10.194C13.6664 9.96985 13.5643 9.76103 13.4002 9.60699C13.236 9.45296 13.0211 9.36439 12.7961 9.35801C12.4081 9.31701 11.9111 9.27601 11.2841 9.24301C11.0632 9.23054 10.8562 9.13083 10.7088 8.9658C10.5614 8.80076 10.4856 8.58394 10.4981 8.36301C10.5106 8.14208 10.6103 7.93516 10.7753 7.78776C10.9403 7.64035 11.1572 7.56454 11.3781 7.57701C12.0301 7.61201 12.5561 7.65501 12.9781 7.69901C13.5798 7.74525 14.1463 8.00052 14.5795 8.42059C15.0127 8.84066 15.2853 9.39906 15.3501 9.99901C15.4622 11.1067 15.5123 12.2197 15.5001 13.333C15.5114 14.4443 15.4606 15.5554 15.3481 16.661C15.2838 17.2608 15.0116 17.8192 14.5787 18.2393C14.1458 18.6594 13.5795 18.9147 12.9781 18.961C11.3233 19.1125 9.66175 19.1793 8.00009 19.161C6.33843 19.1793 4.67693 19.1125 3.02209 18.961C2.42065 18.9147 1.85438 18.6594 1.42149 18.2393C0.988602 17.8192 0.716399 17.2608 0.652088 16.661C0.539533 15.5554 0.488787 14.4443 0.500088 13.333C0.48875 12.2214 0.539496 11.11 0.652088 10.004C0.715781 9.40326 0.987945 8.84382 1.42128 8.4229C1.85462 8.00199 2.42174 7.74621 3.02409 7.70001C3.44409 7.65601 3.97009 7.61301 4.62209 7.57701C4.7316 7.57094 4.84122 7.58656 4.94468 7.62296C5.04814 7.65936 5.14339 7.71584 5.22496 7.78915C5.30654 7.86246 5.37284 7.95115 5.42005 8.05014C5.46726 8.14914 5.49446 8.25648 5.50009 8.36601Z" fill="#777E90"/>
<path d="M5.67205 5.17296C5.59468 5.25045 5.50279 5.31193 5.40164 5.35388C5.30049 5.39583 5.19206 5.41742 5.08255 5.41742C4.97305 5.41742 4.86461 5.39583 4.76346 5.35388C4.66231 5.31193 4.57042 5.25045 4.49305 5.17296C4.41556 5.09559 4.35408 5.0037 4.31213 4.90255C4.27018 4.80139 4.24859 4.69296 4.24859 4.58346C4.24859 4.47395 4.27018 4.36552 4.31213 4.26437C4.35408 4.16321 4.41556 4.07133 4.49305 3.99396L7.41005 1.07796C7.48742 1.00046 7.57931 0.938982 7.68046 0.897034C7.78161 0.855087 7.89005 0.833496 7.99955 0.833496C8.10906 0.833496 8.21749 0.855087 8.31864 0.897034C8.41979 0.938982 8.51168 1.00046 8.58905 1.07796L11.5051 3.99496C11.5825 4.07233 11.644 4.16421 11.686 4.26537C11.7279 4.36652 11.7495 4.47495 11.7495 4.58446C11.7495 4.69396 11.7279 4.80239 11.686 4.90355C11.644 5.0047 11.5825 5.09659 11.5051 5.17396C11.4277 5.25145 11.3358 5.31293 11.2346 5.35488C11.1335 5.39683 11.0251 5.41842 10.9156 5.41842C10.806 5.41842 10.6976 5.39683 10.5965 5.35488C10.4953 5.31293 10.4034 5.25145 10.3261 5.17396L8.83205 3.67896V11.667C8.83205 11.7763 8.81051 11.8847 8.76864 11.9857C8.72678 12.0868 8.66542 12.1786 8.58807 12.256C8.51072 12.3333 8.41889 12.3947 8.31783 12.4365C8.21676 12.4784 8.10844 12.5 7.99905 12.5C7.77813 12.5 7.56625 12.4122 7.41003 12.256C7.25381 12.0998 7.16605 11.8879 7.16605 11.667L7.16605 3.67896L5.67205 5.17296Z" fill="#777E90"/>
</svg>
