<svg width="20" height="20" viewBox="0 0 20 20" fill="none" xmlns="http://www.w3.org/2000/svg">
<path fill-rule="evenodd" clip-rule="evenodd" d="M12 3.775L8 2.442V16.225L12 17.558V3.775ZM14 3.875V17.837L17.141 17.388C17.379 17.3541 17.5969 17.2356 17.7547 17.0541C17.9124 16.8727 17.9995 16.6404 18 16.4V4.459C18 4.31576 17.9692 4.1742 17.9098 4.04389C17.8503 3.91358 17.7635 3.79756 17.6554 3.70369C17.5472 3.60982 17.4201 3.54029 17.2827 3.4998C17.1453 3.45931 17.0008 3.4488 16.859 3.469L14 3.875ZM2.859 2.612L6 2.163V16.123L3.141 16.531C2.9992 16.5512 2.85471 16.5407 2.71731 16.5002C2.57992 16.4597 2.45283 16.3902 2.34464 16.2963C2.23645 16.2024 2.14969 16.0864 2.09023 15.9561C2.03077 15.8258 2 15.6842 2 15.541V3.6C2.00048 3.35956 2.08758 3.12734 2.24534 2.94589C2.4031 2.76444 2.62096 2.6459 2.859 2.612ZM13 20L7 18L3.424 18.511C2.99851 18.5717 2.56494 18.5404 2.15263 18.419C1.74033 18.2976 1.35893 18.089 1.03425 17.8074C0.709572 17.5257 0.449198 17.1776 0.27076 16.7866C0.092321 16.3956 -1.63027e-05 15.9708 2.15896e-09 15.541L2.15896e-09 3.6C0.000453883 2.87813 0.261179 2.18063 0.734343 1.63547C1.20751 1.0903 1.86138 0.734024 2.576 0.632L7 0L13 2L16.576 1.489C17.0015 1.42825 17.4351 1.45964 17.8474 1.58104C18.2597 1.70244 18.6411 1.91102 18.9657 2.19265C19.2904 2.47428 19.5508 2.82238 19.7292 3.2134C19.9077 3.60441 20 4.0292 20 4.459V16.4C20 17.1222 19.7395 17.8202 19.2663 18.3658C18.7931 18.9114 18.139 19.2679 17.424 19.37L13 20Z" fill="#23262F"/>
</svg>
