<svg width="18" height="22" viewBox="0 0 18 22" fill="none" xmlns="http://www.w3.org/2000/svg">
<path fill-rule="evenodd" clip-rule="evenodd" d="M0 4C0 2.93913 0.421427 1.92172 1.17157 1.17157C1.92172 0.421427 2.93913 2.6579e-09 4 2.6579e-09L12.343 2.6579e-09C12.8684 -1.91503e-05 13.3887 0.103475 13.8741 0.30457C14.3595 0.505664 14.8005 0.80042 15.172 1.172L16.829 2.829C17.5788 3.57913 18 4.59636 18 5.657V18C18 19.0609 17.5786 20.0783 16.8284 20.8284C16.0783 21.5786 15.0609 22 14 22H4C2.93913 22 1.92172 21.5786 1.17157 20.8284C0.421427 20.0783 0 19.0609 0 18V4ZM16 7V18C16 18.5304 15.7893 19.0391 15.4142 19.4142C15.0391 19.7893 14.5304 20 14 20H4C3.46957 20 2.96086 19.7893 2.58579 19.4142C2.21071 19.0391 2 18.5304 2 18V4C2 3.46957 2.21071 2.96086 2.58579 2.58579C2.96086 2.21071 3.46957 2 4 2H11V4C11 4.79565 11.3161 5.55871 11.8787 6.12132C12.4413 6.68393 13.2044 7 14 7H16ZM15.889 5C15.7898 4.71507 15.6274 4.45628 15.414 4.243L13.757 2.586C13.5437 2.3726 13.2849 2.21021 13 2.111V4C13 4.26522 13.1054 4.51957 13.2929 4.70711C13.4804 4.89464 13.7348 5 14 5H15.889Z" fill="#23262F"/>
<path fill-rule="evenodd" clip-rule="evenodd" d="M10.0321 14.446C9.19348 14.9405 8.20326 15.1122 7.2471 14.9288C6.29093 14.7454 5.43448 14.2196 4.83826 13.4499C4.24205 12.6802 3.94702 11.7195 4.00847 10.7479C4.06992 9.77625 4.48364 8.86037 5.17207 8.17194C5.8605 7.48351 6.77637 7.0698 7.74802 7.00835C8.71967 6.9469 9.68037 7.24193 10.45 7.83814C11.2197 8.43435 11.7455 9.29081 11.9289 10.247C12.1123 11.2031 11.9406 12.1934 11.4461 13.032L13.7071 15.293C13.8893 15.4816 13.9901 15.7342 13.9878 15.9964C13.9855 16.2586 13.8804 16.5094 13.695 16.6948C13.5095 16.8802 13.2587 16.9854 12.9965 16.9877C12.7343 16.99 12.4817 16.8892 12.2931 16.707L10.0321 14.446ZM10.0001 11C10.0001 11.3956 9.88284 11.7823 9.66307 12.1112C9.44331 12.4401 9.13095 12.6964 8.7655 12.8478C8.40005 12.9991 7.99791 13.0388 7.60995 12.9616C7.22199 12.8844 6.86562 12.6939 6.58592 12.4142C6.30621 12.1345 6.11573 11.7782 6.03856 11.3902C5.96139 11.0022 6.001 10.6001 6.15237 10.2346C6.30375 9.86919 6.56009 9.55683 6.88899 9.33707C7.21789 9.11731 7.60457 9.00001 8.00013 9.00001C8.53057 9.00001 9.03927 9.21072 9.41435 9.5858C9.78942 9.96087 10.0001 10.4696 10.0001 11Z" fill="#23262F"/>
</svg>
