<svg width="18" height="19" viewBox="0 0 18 19" fill="none" xmlns="http://www.w3.org/2000/svg">
<path d="M17.9703 15.0232C17.9703 15.2577 17.8771 15.4825 17.7114 15.6483C17.5456 15.8141 17.3207 15.9072 17.0863 15.9072H0.854272C0.625098 15.8995 0.407887 15.803 0.248494 15.6382C0.0891013 15.4734 0 15.253 0 15.0237C0 14.7944 0.0891013 14.5741 0.248494 14.4092C0.407887 14.2444 0.625098 14.1479 0.854272 14.1402H0.870272V7.98122C0.886126 5.84877 1.74841 3.80995 3.26743 2.31324C4.78646 0.816524 6.83782 -0.0154876 8.97027 0.000218389C11.1027 -0.0154876 13.1541 0.816524 14.6731 2.31324C16.1921 3.80995 17.0544 5.84877 17.0703 7.98122V14.1402H17.0863C17.3205 14.1402 17.5452 14.2332 17.711 14.3988C17.8768 14.5643 17.97 14.7889 17.9703 15.0232ZM2.67027 14.1392H15.2703V7.98122C15.2703 6.31035 14.6065 4.70792 13.425 3.52645C12.2436 2.34497 10.6411 1.68122 8.97027 1.68122C7.29941 1.68122 5.69698 2.34497 4.5155 3.52645C3.33402 4.70792 2.67027 6.31035 2.67027 7.98122V14.1392ZM6.94627 17.7552C6.70127 17.2552 7.16827 16.7902 7.72027 16.7902H10.2203C10.7723 16.7902 11.2393 17.2602 10.9943 17.7552C10.8847 17.9781 10.7383 18.181 10.5613 18.3552C10.1357 18.7702 9.56472 19.0025 8.97027 19.0025C8.37582 19.0025 7.80489 18.7702 7.37927 18.3552C7.20232 18.1813 7.05594 17.9788 6.94627 17.7562V17.7552Z" fill="#777E90"/>
</svg>
