<svg width="22" height="24" viewBox="0 0 22 24" fill="none" xmlns="http://www.w3.org/2000/svg">
<path fill-rule="evenodd" clip-rule="evenodd" d="M8 4L8 9.719L7.063 12.065L6 14.645C6 15.022 8 14.82 8 14.82V20C8 20.5304 8.21071 21.0391 8.58579 21.4142C8.96086 21.7893 9.46957 22 10 22H18C18.5304 22 19.0391 21.7893 19.4142 21.4142C19.7893 21.0391 20 20.5304 20 20V4C20 3.46957 19.7893 2.96086 19.4142 2.58579C19.0391 2.21071 18.5304 2 18 2H10C9.46957 2 8.96086 2.21071 8.58579 2.58579C8.21071 2.96086 8 3.46957 8 4ZM6 20C6 21.0609 6.42143 22.0783 7.17157 22.8284C7.92172 23.5786 8.93913 24 10 24H18C19.0609 24 20.0783 23.5786 20.8284 22.8284C21.5786 22.0783 22 21.0609 22 20V4C22 2.93913 21.5786 1.92172 20.8284 1.17157C20.0783 0.421429 19.0609 0 18 0H10C8.93913 0 7.92172 0.421429 7.17157 1.17157C6.42143 1.92172 6 2.93913 6 4V9.719H8L6 14.645L6 20Z" fill="#23262F"/>
<path d="M12 1C12.2652 1 12.5196 1.10536 12.7071 1.29289C12.8946 1.48043 13 1.73478 13 2C13 3.32608 12.4732 4.59785 11.5355 5.53553C10.5979 6.47322 9.32608 7 8 7C7.73478 7 7.48043 6.89464 7.29289 6.70711C7.10536 6.51957 7 6.26522 7 6C7 5.73478 7.10536 5.48043 7.29289 5.29289C7.48043 5.10536 7.73478 5 8 5C8.79565 5 9.55871 4.68393 10.1213 4.12132C10.6839 3.55871 11 2.79565 11 2C11 1.73478 11.1054 1.48043 11.2929 1.29289C11.4804 1.10536 11.7348 1 12 1Z" fill="#23262F"/>
<path d="M15 22C15 22.2652 15.1054 22.5196 15.2929 22.7071C15.4804 22.8946 15.7348 23 16 23C16.2652 23 16.5196 22.8946 16.7071 22.7071C16.8946 22.5196 17 22.2652 17 22C17 21.2044 17.3161 20.4413 17.8787 19.8787C18.4413 19.3161 19.2044 19 20 19C20.2652 19 20.5196 18.8946 20.7071 18.7071C20.8946 18.5196 21 18.2652 21 18C21 17.7348 20.8946 17.4804 20.7071 17.2929C20.5196 17.1054 20.2652 17 20 17C19.3434 17 18.6932 17.1293 18.0866 17.3806C17.48 17.6319 16.9288 18.0002 16.4645 18.4645C16.0002 18.9288 15.6319 19.48 15.3806 20.0866C15.1293 20.6932 15 21.3434 15 22Z" fill="#23262F"/>
<path d="M15 2C15 1.73478 15.1054 1.48043 15.2929 1.29289C15.4804 1.10536 15.7348 1 16 1C16.2652 1 16.5196 1.10536 16.7071 1.29289C16.8946 1.48043 17 1.73478 17 2C17 2.79565 17.3161 3.55871 17.8787 4.12132C18.4413 4.68393 19.2044 5 20 5C20.2652 5 20.5196 5.10536 20.7071 5.29289C20.8946 5.48043 21 5.73478 21 6C21 6.26522 20.8946 6.51957 20.7071 6.70711C20.5196 6.89464 20.2652 7 20 7C18.6739 7 17.4021 6.47322 16.4645 5.53553C15.5268 4.59785 15 3.32608 15 2Z" fill="#23262F"/>
<path d="M13 22C13 22.2652 12.8946 22.5196 12.7071 22.7071C12.5196 22.8946 12.2652 23 12 23C11.7348 23 11.4804 22.8946 11.2929 22.7071C11.1054 22.5196 11 22.2652 11 22C11 21.2044 10.6839 20.4413 10.1213 19.8787C9.55871 19.3161 8.79565 19 8 19C7.73478 19 7.48043 18.8946 7.29289 18.7071C7.10536 18.5196 7 18.2652 7 18C7 17.7348 7.10536 17.4804 7.29289 17.2929C7.48043 17.1054 7.73478 17 8 17C8.65661 17 9.30679 17.1293 9.91342 17.3806C10.52 17.6319 11.0712 18.0002 11.5355 18.4645C11.9998 18.9288 12.3681 19.48 12.6194 20.0866C12.8707 20.6932 13 21.3434 13 22Z" fill="#23262F"/>
<path fill-rule="evenodd" clip-rule="evenodd" d="M16 12C16 11.6044 15.8827 11.2178 15.6629 10.8889C15.4432 10.56 15.1308 10.3036 14.7654 10.1522C14.3999 10.0009 13.9978 9.96126 13.6098 10.0384C13.2219 10.1156 12.8655 10.3061 12.5858 10.5858C12.3061 10.8655 12.1156 11.2219 12.0384 11.6098C11.9613 11.9978 12.0009 12.3999 12.1522 12.7654C12.3036 13.1308 12.56 13.4432 12.8889 13.6629C13.2178 13.8827 13.6044 14 14 14C14.5304 14 15.0391 13.7893 15.4142 13.4142C15.7893 13.0391 16 12.5304 16 12ZM18 12C18 11.2089 17.7654 10.4355 17.3259 9.77772C16.8864 9.11992 16.2616 8.60723 15.5307 8.30448C14.7998 8.00173 13.9956 7.92252 13.2196 8.07686C12.4437 8.2312 11.731 8.61216 11.1716 9.17157C10.6122 9.73098 10.2312 10.4437 10.0769 11.2196C9.92252 11.9956 10.0017 12.7998 10.3045 13.5307C10.6072 14.2616 11.1199 14.8864 11.7777 15.3259C12.4355 15.7654 13.2089 16 14 16C15.0609 16 16.0783 15.5786 16.8284 14.8284C17.5786 14.0783 18 13.0609 18 12Z" fill="#23262F"/>
<path d="M5.20679 15.293C5.3023 15.3853 5.37848 15.4956 5.43089 15.6176C5.4833 15.7396 5.51088 15.8709 5.51204 16.0036C5.51319 16.1364 5.48789 16.2681 5.43761 16.391C5.38733 16.5139 5.31307 16.6255 5.21918 16.7194C5.12529 16.8133 5.01364 16.8876 4.89074 16.9379C4.76784 16.9881 4.63616 17.0134 4.50339 17.0123C4.37061 17.0111 4.23939 16.9836 4.11738 16.9311C3.99538 16.8787 3.88503 16.8026 3.79279 16.707L0.292786 13.207C0.105315 13.0195 0 12.7652 0 12.5C0 12.2349 0.105315 11.9806 0.292786 11.793L3.79279 8.29304C3.98139 8.11088 4.23399 8.01009 4.49619 8.01237C4.75838 8.01465 5.0092 8.11981 5.1946 8.30522C5.38001 8.49063 5.48518 8.74144 5.48746 9.00364C5.48974 9.26584 5.38894 9.51844 5.20679 9.70704L3.41379 11.5H7.99979C8.265 11.5 8.51936 11.6054 8.70689 11.7929C8.89443 11.9805 8.99979 12.2348 8.99979 12.5C8.99979 12.7653 8.89443 13.0196 8.70689 13.2071C8.51936 13.3947 8.265 13.5 7.99979 13.5H3.41379L5.20679 15.293Z" fill="#23262F"/>
</svg>
