<svg width="17" height="17" viewBox="0 0 17 17" fill="none" xmlns="http://www.w3.org/2000/svg">
<path d="M15.067 15.067L11.967 11.96M13.686 7.80798C13.6862 8.97015 13.3418 10.1063 12.6963 11.0727C12.0508 12.0391 11.1332 12.7924 10.0596 13.2373C8.98597 13.6822 7.80452 13.7988 6.66465 13.5723C5.52478 13.3457 4.47768 12.7863 3.65577 11.9647C2.83386 11.143 2.27405 10.0961 2.04712 8.95632C1.8202 7.81652 1.93637 6.63503 2.38092 5.56126C2.82548 4.48748 3.57847 3.56965 4.54466 2.92382C5.51086 2.278 6.64686 1.93318 7.80902 1.93298C9.36744 1.93298 10.862 2.55206 11.964 3.65402C13.0659 4.75599 13.685 6.25057 13.685 7.80898L13.686 7.80798Z" stroke="white" stroke-width="2" stroke-linecap="round"/>
</svg>
