<svg width="19" height="20" viewBox="0 0 19 20" fill="none" xmlns="http://www.w3.org/2000/svg">
<path fill-rule="evenodd" clip-rule="evenodd" d="M19.001 16C19.001 16.7911 18.7664 17.5645 18.3269 18.2223C17.8873 18.8801 17.2626 19.3928 16.5317 19.6955C15.8008 19.9983 14.9965 20.0775 14.2206 19.9231C13.4447 19.7688 12.732 19.3878 12.1726 18.8284C11.6131 18.269 11.2322 17.5563 11.0778 16.7804C10.9235 16.0044 11.0027 15.2002 11.3055 14.4693C11.6082 13.7384 12.1209 13.1136 12.7787 12.6741C13.4365 12.2346 14.2099 12 15.001 12C16.0618 12 17.0793 12.4214 17.8294 13.1716C18.5796 13.9217 19.001 14.9391 19.001 16ZM17.001 16C17.001 16.3956 16.8837 16.7822 16.6639 17.1111C16.4442 17.44 16.1318 17.6964 15.7663 17.8478C15.4009 17.9991 14.9988 18.0387 14.6108 17.9616C14.2228 17.8844 13.8665 17.6939 13.5868 17.4142C13.3071 17.1345 13.1166 16.7781 13.0394 16.3902C12.9622 16.0022 13.0018 15.6001 13.1532 15.2346C13.3046 14.8692 13.5609 14.5568 13.8898 14.3371C14.2187 14.1173 14.6054 14 15.001 14C15.5314 14 16.0401 14.2107 16.4152 14.5858C16.7903 14.9609 17.001 15.4696 17.001 16Z" fill="#777E90"/>
<path fill-rule="evenodd" clip-rule="evenodd" d="M19.001 4C19.001 4.79113 18.7664 5.56448 18.3269 6.22228C17.8873 6.88008 17.2626 7.39277 16.5317 7.69552C15.8008 7.99827 14.9965 8.07748 14.2206 7.92314C13.4447 7.7688 12.732 7.38784 12.1726 6.82843C11.6131 6.26902 11.2322 5.55629 11.0778 4.78036C10.9235 4.00444 11.0027 3.20017 11.3055 2.46927C11.6082 1.73836 12.1209 1.11365 12.7787 0.674122C13.4365 0.234596 14.2099 0 15.001 0C16.0618 0 17.0793 0.421427 17.8294 1.17157C18.5796 1.92172 19.001 2.93913 19.001 4ZM17.001 4C17.001 4.39556 16.8837 4.78224 16.6639 5.11114C16.4442 5.44004 16.1318 5.69638 15.7663 5.84776C15.4009 5.99913 14.9988 6.03874 14.6108 5.96157C14.2228 5.8844 13.8665 5.69392 13.5868 5.41421C13.3071 5.13451 13.1166 4.77814 13.0394 4.39018C12.9622 4.00222 13.0018 3.60009 13.1532 3.23463C13.3046 2.86918 13.5609 2.55682 13.8898 2.33706C14.2187 2.1173 14.6054 2 15.001 2C15.5314 2 16.0401 2.21071 16.4152 2.58579C16.7903 2.96086 17.001 3.46957 17.001 4Z" fill="#777E90"/>
<path d="M12.0016 4.49994L3.76379 8.44721C2.24952 9.17279 2.24941 11.3287 3.76361 12.0544L11.9986 16.0013" stroke="#777E90" stroke-width="2" stroke-linecap="round"/>
</svg>
