<svg width="13" height="14" viewBox="0 0 13 14" fill="none" xmlns="http://www.w3.org/2000/svg">
<path fill-rule="evenodd" clip-rule="evenodd" d="M10.3231 4.33301H2.66709C2.48518 4.33295 2.30518 4.37002 2.1381 4.44199C1.97098 4.51473 1.8203 4.62052 1.69511 4.75299C1.57019 4.88603 1.47385 5.04327 1.41209 5.215C1.35099 5.38639 1.32515 5.56837 1.3361 5.75L1.66911 11.083C1.69023 11.4216 1.83968 11.7394 2.08699 11.9717C2.33429 12.2039 2.66084 12.3332 3.0001 12.333H9.99009C10.3294 12.3332 10.6559 12.2039 10.9032 11.9717C11.1505 11.7394 11.3 11.4216 11.3211 11.083L11.6541 5.75C11.6661 5.56833 11.6402 5.38615 11.5781 5.215C11.5163 5.04327 11.42 4.88603 11.2951 4.75299C11.1706 4.62002 11.02 4.51412 10.8528 4.44186C10.6856 4.36961 10.5053 4.33255 10.3231 4.33301ZM2.66709 3C2.3029 3.00012 1.94261 3.07481 1.60838 3.21945C1.27414 3.36409 0.97306 3.57563 0.723674 3.84103C0.474288 4.10644 0.281885 4.42008 0.158305 4.76266C0.0347253 5.10525 -0.0174162 5.46952 0.00510676 5.83301L0.339091 11.166C0.381564 11.8429 0.680378 12.4783 1.17472 12.9427C1.66907 13.4072 2.32181 13.6658 3.0001 13.666H9.99009C10.6685 13.6663 11.3215 13.4078 11.816 12.9433C12.3104 12.4787 12.6091 11.8431 12.6511 11.166L12.9841 5.83301C13.0066 5.4696 12.9545 5.10542 12.831 4.76291C12.7075 4.4204 12.5152 4.10679 12.2659 3.8414C12.0166 3.57601 11.7156 3.36446 11.3815 3.21976C11.0474 3.07505 10.6872 3.00026 10.3231 3H2.66709Z" fill="#FCFCFD"/>
<path d="M3.16212 3.66602C3.15445 3.2234 3.23504 2.78368 3.39912 2.37253C3.5632 1.96137 3.80751 1.58703 4.11781 1.2713C4.42811 0.955576 4.79818 0.704808 5.20643 0.53363C5.61468 0.362453 6.05296 0.274292 6.49565 0.274292C6.93833 0.274292 7.37658 0.362453 7.78483 0.53363C8.19308 0.704808 8.56315 0.955576 8.87346 1.2713C9.18376 1.58703 9.42809 1.96137 9.59217 2.37253C9.75626 2.78368 9.83681 3.2234 9.82914 3.66602V5.00003C9.82247 5.17233 9.74931 5.33535 9.62504 5.4549C9.50078 5.57444 9.33507 5.6412 9.16264 5.6412C8.99021 5.6412 8.82447 5.57444 8.70021 5.4549C8.57594 5.33535 8.50281 5.17233 8.49614 5.00003V3.66602C8.49614 3.13558 8.28542 2.6269 7.91035 2.25183C7.53528 1.87676 7.02657 1.66602 6.49614 1.66602C5.9657 1.66602 5.45699 1.87676 5.08192 2.25183C4.70685 2.6269 4.49614 3.13558 4.49614 3.66602V5.00003C4.49614 5.17693 4.42585 5.34659 4.30076 5.47168C4.17568 5.59677 4.00604 5.66702 3.82914 5.66702C3.65224 5.66702 3.48258 5.59677 3.35749 5.47168C3.23241 5.34659 3.16212 5.17693 3.16212 5.00003V3.66602Z" fill="#FCFCFD"/>
</svg>
