<svg width="32" height="32" viewBox="0 0 32 32" fill="none" xmlns="http://www.w3.org/2000/svg">
<path d="M32 16C32 7.16344 24.8366 0 16 0C7.16344 0 0 7.16344 0 16C0 24.8366 7.16344 32 16 32C24.8366 32 32 24.8366 32 16Z" fill="#FCFCFD"/>
<path d="M31.5 16C31.5 7.43959 24.5604 0.5 16 0.5C7.43959 0.5 0.5 7.43959 0.5 16C0.5 24.5604 7.43959 31.5 16 31.5C24.5604 31.5 31.5 24.5604 31.5 16Z" stroke="#E6E8EC" stroke-miterlimit="10"/>
<path fill-rule="evenodd" clip-rule="evenodd" d="M20.667 21.334C20.7989 21.334 20.9279 21.2949 21.0376 21.2216C21.1472 21.1483 21.2327 21.0441 21.2832 20.9222C21.3337 20.8004 21.3469 20.6663 21.3212 20.5369C21.2954 20.4075 21.2319 20.2886 21.1386 20.1954C21.0454 20.1021 20.9265 20.0385 20.7971 20.0128C20.6677 19.9871 20.5336 20.0003 20.4117 20.0508C20.2899 20.1012 20.1857 20.1867 20.1124 20.2964C20.0391 20.4061 20 20.5351 20 20.667C20 20.8439 20.0703 21.0135 20.1954 21.1386C20.3204 21.2637 20.4901 21.334 20.667 21.334ZM20.667 22.667C21.0626 22.667 21.4492 22.5497 21.7781 22.3299C22.107 22.1102 22.3634 21.7978 22.5148 21.4324C22.6661 21.0669 22.7057 20.6648 22.6286 20.2768C22.5514 19.8889 22.3609 19.5325 22.0812 19.2528C21.8015 18.9731 21.4451 18.7826 21.0572 18.7054C20.6692 18.6283 20.2671 18.6679 19.9016 18.8192C19.5362 18.9706 19.2238 19.227 19.0041 19.5559C18.7843 19.8848 18.667 20.2714 18.667 20.667C18.667 21.1974 18.8777 21.7061 19.2528 22.0812C19.6279 22.4563 20.1366 22.667 20.667 22.667Z" fill="#777E90"/>
<path d="M18.334 10.666C17.8919 10.666 17.4679 10.8416 17.1553 11.1543C16.8426 11.4669 16.667 11.8909 16.667 12.333V19.666C16.667 20.4617 16.3509 21.2247 15.7883 21.7873C15.2257 22.3499 14.4626 22.666 13.667 22.666C12.8714 22.666 12.1083 22.3499 11.5457 21.7873C10.9831 21.2247 10.667 20.4617 10.667 19.666V14.666C10.6737 14.4937 10.7468 14.3307 10.8711 14.2111C10.9953 14.0916 11.1611 14.0248 11.3335 14.0248C11.5059 14.0248 11.6717 14.0916 11.7959 14.2111C11.9202 14.3307 11.9933 14.4937 12 14.666V19.666C11.9946 19.8883 12.0336 20.1094 12.1149 20.3164C12.1962 20.5233 12.3181 20.7119 12.4734 20.8711C12.6287 21.0302 12.8142 21.1567 13.0191 21.243C13.224 21.3294 13.4442 21.3738 13.6665 21.3738C13.8888 21.3738 14.109 21.3294 14.3139 21.243C14.5188 21.1567 14.7043 21.0302 14.8596 20.8711C15.0149 20.7119 15.1368 20.5233 15.2181 20.3164C15.2994 20.1094 15.3384 19.8883 15.333 19.666V12.333C15.333 11.5374 15.6491 10.7743 16.2117 10.2117C16.7743 9.64908 17.5374 9.33301 18.333 9.33301C19.1286 9.33301 19.8917 9.64908 20.4543 10.2117C21.0169 10.7743 21.333 11.5374 21.333 12.333V16.666C21.3263 16.8383 21.2532 17.0013 21.1289 17.1209C21.0047 17.2404 20.8389 17.3072 20.6665 17.3072C20.4941 17.3072 20.3283 17.2404 20.2041 17.1209C20.0798 17.0013 20.0067 16.8383 20 16.666V12.333C20 11.8911 19.8245 11.4672 19.5121 11.1546C19.1997 10.842 18.7759 10.6663 18.334 10.666Z" fill="#777E90"/>
<path d="M10.757 9.65398C10.8158 9.55335 10.8999 9.46987 11.0009 9.41185C11.102 9.35383 11.2165 9.3233 11.333 9.3233C11.4495 9.3233 11.564 9.35383 11.6651 9.41185C11.7661 9.46987 11.8502 9.55335 11.909 9.65398L13.082 11.664C13.1403 11.7652 13.1711 11.8801 13.1711 11.9969C13.1711 12.1138 13.1404 12.2286 13.0821 12.3299C13.0237 12.4312 12.9398 12.5153 12.8387 12.574C12.7376 12.6326 12.6229 12.6636 12.506 12.664H10.161C10.0441 12.6636 9.9294 12.6326 9.8283 12.574C9.7272 12.5153 9.64328 12.4312 9.58495 12.3299C9.52662 12.2286 9.49592 12.1138 9.49593 11.9969C9.49593 11.8801 9.52665 11.7652 9.585 11.664L10.757 9.65398Z" fill="#777E90"/>
</svg>
