<svg width="18" height="22" viewBox="0 0 18 22" fill="none" xmlns="http://www.w3.org/2000/svg">
<path fill-rule="evenodd" clip-rule="evenodd" d="M0 4C0 2.93913 0.421427 1.92172 1.17157 1.17157C1.92172 0.421427 2.93913 2.6579e-09 4 2.6579e-09L12.343 2.6579e-09C12.8684 -1.91503e-05 13.3887 0.103475 13.8741 0.30457C14.3595 0.505664 14.8005 0.80042 15.172 1.172L16.829 2.829C17.5788 3.57913 18 4.59636 18 5.657V18C18 19.0609 17.5786 20.0783 16.8284 20.8284C16.0783 21.5786 15.0609 22 14 22H4C2.93913 22 1.92172 21.5786 1.17157 20.8284C0.421427 20.0783 0 19.0609 0 18V4ZM16 7V18C16 18.5304 15.7893 19.0391 15.4142 19.4142C15.0391 19.7893 14.5304 20 14 20H4C3.46957 20 2.96086 19.7893 2.58579 19.4142C2.21071 19.0391 2 18.5304 2 18V4C2 3.46957 2.21071 2.96086 2.58579 2.58579C2.96086 2.21071 3.46957 2 4 2H11V4C11 4.79565 11.3161 5.55871 11.8787 6.12132C12.4413 6.68393 13.2044 7 14 7H16ZM15.889 5C15.7898 4.71507 15.6274 4.45628 15.414 4.243L13.757 2.586C13.5437 2.3726 13.2849 2.21021 13 2.111V4C13 4.26522 13.1054 4.51957 13.2929 4.70711C13.4804 4.89464 13.7348 5 14 5H15.889Z" fill="#777E90"/>
<path d="M6 11C5.73478 11 5.48043 11.1054 5.29289 11.2929C5.10536 11.4804 5 11.7348 5 12C5 12.2652 5.10536 12.5196 5.29289 12.7071C5.48043 12.8946 5.73478 13 6 13H12C12.2652 13 12.5196 12.8946 12.7071 12.7071C12.8946 12.5196 13 12.2652 13 12C13 11.7348 12.8946 11.4804 12.7071 11.2929C12.5196 11.1054 12.2652 11 12 11H6Z" fill="#777E90"/>
<path d="M6 15C5.73478 15 5.48043 15.1054 5.29289 15.2929C5.10536 15.4804 5 15.7348 5 16C5 16.2652 5.10536 16.5196 5.29289 16.7071C5.48043 16.8946 5.73478 17 6 17H9C9.26522 17 9.51957 16.8946 9.70711 16.7071C9.89464 16.5196 10 16.2652 10 16C10 15.7348 9.89464 15.4804 9.70711 15.2929C9.51957 15.1054 9.26522 15 9 15H6Z" fill="#777E90"/>
</svg>
