<svg width="20" height="16" viewBox="0 0 20 16" fill="none" xmlns="http://www.w3.org/2000/svg">
<path fill-rule="evenodd" clip-rule="evenodd" d="M2.65111 10.0001C2.33039 10.0008 2.01606 10.0898 1.74253 10.2573C1.46901 10.4247 1.24682 10.6642 1.1003 10.9495C0.953782 11.2348 0.888578 11.5549 0.911826 11.8748C0.935073 12.1947 1.04588 12.502 1.23211 12.7631C2.44811 14.4631 4.65311 15.8331 8.33211 15.8331C14.0321 15.8331 18.6151 11.1841 17.9741 5.69209L18.9131 3.81409C19.06 3.52106 19.1216 3.19269 19.0909 2.86636C19.0602 2.54004 18.9386 2.22888 18.7397 1.96834C18.5409 1.70779 18.2728 1.50832 17.9662 1.39265C17.6595 1.27698 17.3265 1.24976 17.0051 1.31409L15.7661 1.56409C15.4579 1.40414 15.1367 1.27033 14.8061 1.16409C14.1968 0.958816 13.5599 0.847212 12.9171 0.833085C11.8771 0.799176 10.8549 1.10841 10.0081 1.71309C9.3296 2.23207 8.82466 2.94485 8.56011 3.75709C8.45477 4.06891 8.37747 4.38952 8.32911 4.71509C7.86865 4.56843 7.42166 4.38241 6.99311 4.15909C6.12649 3.73163 5.3543 3.13489 4.72211 2.40409C4.53607 2.16897 4.29271 1.98562 4.01539 1.87165C3.73808 1.75768 3.43612 1.71692 3.13852 1.75326C2.84091 1.78961 2.55764 1.90185 2.31591 2.07922C2.07417 2.25658 1.88209 2.4931 1.75811 2.76609C1.40236 3.6569 1.23149 4.61076 1.2559 5.56968C1.28031 6.52859 1.49949 7.47252 1.90011 8.34409C2.14829 8.92998 2.46374 9.48504 2.84011 9.99809L2.65111 10.0001ZM8.33411 14.1671C5.11511 14.1671 3.45011 13.0011 2.58911 11.7951C2.58042 11.7829 2.57529 11.7685 2.57426 11.7536C2.57324 11.7387 2.57637 11.7238 2.58331 11.7105C2.59025 11.6973 2.60072 11.6862 2.61357 11.6785C2.62642 11.6709 2.64115 11.6669 2.65611 11.6671C3.98218 11.7327 5.30477 11.4811 6.51411 10.9331C6.52776 10.9248 6.5387 10.9127 6.54559 10.8983C6.55249 10.884 6.55503 10.8679 6.5529 10.852C6.55078 10.8362 6.54408 10.8214 6.53364 10.8093C6.5232 10.7972 6.50946 10.7885 6.49411 10.7841C3.73111 9.85009 2.16011 5.91509 3.27611 3.45509C3.28204 3.4422 3.29122 3.43107 3.30275 3.42279C3.31427 3.41452 3.32774 3.40937 3.34185 3.40786C3.35596 3.40635 3.37022 3.40852 3.38323 3.41417C3.39625 3.41982 3.40758 3.42875 3.41611 3.44009C5.06592 5.33024 7.39734 6.48984 9.90011 6.66509C9.91257 6.66513 9.92489 6.66244 9.93619 6.6572C9.9475 6.65196 9.95751 6.6443 9.96553 6.63476C9.97354 6.62522 9.97936 6.61403 9.98257 6.60199C9.98578 6.58995 9.98631 6.57735 9.98411 6.56509C9.88411 5.93209 9.51311 2.49809 12.9181 2.49809C13.8008 2.5205 14.6581 2.79839 15.3861 3.29809C15.3961 3.3075 15.4083 3.3144 15.4215 3.31822C15.4347 3.32205 15.4486 3.32269 15.4621 3.32009L17.3341 2.94509C17.3494 2.94186 17.3654 2.94304 17.3801 2.94849C17.3948 2.95394 17.4076 2.96344 17.4171 2.97589C17.4267 2.98834 17.4325 3.00323 17.4339 3.01883C17.4353 3.03444 17.4322 3.05013 17.4251 3.06409L16.2631 5.39109C16.255 5.40714 16.2522 5.42534 16.2551 5.44309C17.0691 10.0161 13.3241 14.1661 8.33311 14.1661L8.33411 14.1671Z" fill="#739AFF"/>
</svg>
