<svg width="18" height="22" viewBox="0 0 18 22" fill="none" xmlns="http://www.w3.org/2000/svg">
<path d="M9 12C7.14348 12 5.36301 12.7375 4.05025 14.0503C2.7375 15.363 2 17.1435 2 19V21C2 21.2652 1.89464 21.5196 1.70711 21.7071C1.51957 21.8946 1.26522 22 1 22C0.734784 22 0.480429 21.8946 0.292892 21.7071C0.105356 21.5196 0 21.2652 0 21V19C0 16.6131 0.948212 14.3239 2.63604 12.636C4.32387 10.9482 6.61305 10 9 10C11.3869 10 13.6761 10.9482 15.364 12.636C17.0518 14.3239 18 16.6131 18 19V21C18 21.2652 17.8946 21.5196 17.7071 21.7071C17.5196 21.8946 17.2652 22 17 22C16.7348 22 16.4804 21.8946 16.2929 21.7071C16.1054 21.5196 16 21.2652 16 21V19C16 17.1435 15.2625 15.363 13.9498 14.0503C12.637 12.7375 10.8565 12 9 12Z" fill="#B1B5C3"/>
<path fill-rule="evenodd" clip-rule="evenodd" d="M9.00024 10C9.92567 10.0002 10.8225 9.67951 11.538 9.09257C12.2535 8.50563 12.7434 7.68875 12.9241 6.78114C13.1048 5.87353 12.9652 4.93133 12.5291 4.11509C12.093 3.29885 11.3874 2.65906 10.5325 2.30476C9.67757 1.95046 8.72624 1.90356 7.84061 2.17204C6.95498 2.44052 6.18985 3.00779 5.67558 3.77717C5.1613 4.54656 4.92972 5.47047 5.02029 6.39146C5.11085 7.31245 5.51795 8.17354 6.17223 8.82802C6.9222 9.57821 7.93946 9.99979 9.00024 10ZM9.00024 12C10.3884 11.9998 11.7335 11.5184 12.8064 10.6376C13.8794 9.75691 14.6137 8.53138 14.8844 7.1699C15.155 5.80842 14.9452 4.39521 14.2907 3.17106C13.6363 1.94692 12.5776 0.987575 11.2951 0.456494C10.0125 -0.074586 8.58557 -0.144554 7.25726 0.258527C5.92894 0.661608 4.78148 1.51281 4.01039 2.66707C3.2393 3.82132 2.89228 5.20721 3.02847 6.58864C3.16465 7.97006 3.77561 9.26156 4.75724 10.243C5.31446 10.8002 5.97597 11.2421 6.70399 11.5435C7.432 11.845 8.21227 12.0001 9.00024 12Z" fill="#B1B5C3"/>
</svg>
