<svg id="Layer_1" viewBox="0 0 64 64" xmlns="http://www.w3.org/2000/svg" data-name="Layer 1"><path d="m15.559 48.441c4.533 4.533 10.487 6.799 16.441 6.799s11.909-2.267 16.441-6.799c9.065-9.066 9.065-23.817 0-32.883-9.065-9.065-23.817-9.065-32.883 0-9.065 9.066-9.065 23.817 0 32.883zm16.441-37.683c5.441 0 10.885 2.072 15.027 6.214 8.286 8.286 8.286 21.769 0 30.055-8.286 8.284-21.769 8.285-30.055 0-8.286-8.286-8.286-21.769 0-30.055 4.144-4.143 9.584-6.214 15.027-6.214z"/><path d="m10.787 53.213c5.666 5.667 13.2 8.787 21.213 8.787s15.547-3.121 21.213-8.787 8.787-13.2 8.787-21.213-3.121-15.547-8.787-21.213c-5.666-5.667-13.2-8.787-21.213-8.787-6.58 0-12.835 2.108-18 5.999 0-3.308-2.692-5.999-6-5.999s-6 2.691-6 6 2.691 5.999 5.999 6c-3.891 5.165-5.999 11.42-5.999 18 0 8.013 3.121 15.547 8.787 21.213zm41.012-41.012c5.289 5.289 8.201 12.32 8.201 19.799s-2.913 14.51-8.201 19.799-12.32 8.201-19.799 8.201-14.51-2.913-19.799-8.201-8.201-12.32-8.201-19.799c0-7.258 2.75-14.089 7.745-19.32.345-.277.659-.59.936-.936 5.231-4.995 12.062-7.745 19.32-7.745 7.479 0 14.51 2.913 19.799 8.201zm-43.799-.201c-2.206 0-4-1.794-4-4s1.794-4 4-4 4 1.794 4 4c0 .933-.334 1.781-.872 2.462-.113.11-.23.214-.341.325-.112.112-.216.228-.325.341-.681.537-1.529.872-2.462.872z"/><path d="m20.635 44.365c.124 0 .248-.023.367-.07l16.298-6.432c.257-.102.461-.306.563-.563l6.432-16.298c.146-.371.059-.792-.223-1.074s-.704-.368-1.074-.223l-16.298 6.432c-.257.102-.461.306-.563.563l-6.432 16.298c-.146.371-.059.792.223 1.074.191.191.447.293.707.293zm7.203-16.527 13.751-5.427-5.427 13.751-13.751 5.427z"/><path d="m29.165 29.165c-1.563 1.563-1.563 4.107 0 5.67.782.782 1.808 1.172 2.835 1.172s2.053-.391 2.835-1.172c1.563-1.563 1.563-4.107 0-5.67s-4.106-1.563-5.67 0zm4.256 4.256c-.783.783-2.059.783-2.842 0-.783-.784-.783-2.058 0-2.842.392-.392.906-.587 1.421-.587s1.029.196 1.421.587c.783.784.783 2.058 0 2.842z"/><path d="m32 15.355c.552 0 1-.448 1-1v-1.355c0-.552-.448-1-1-1s-1 .448-1 1v1.355c0 .552.448 1 1 1z"/><path d="m32 48.645c-.552 0-1 .448-1 1v1.355c0 .552.448 1 1 1s1-.448 1-1v-1.355c0-.552-.448-1-1-1z"/><path d="m49.645 33h1.355c.552 0 1-.448 1-1s-.448-1-1-1h-1.355c-.552 0-1 .448-1 1s.448 1 1 1z"/><path d="m13 33h1.355c.552 0 1-.448 1-1s-.448-1-1-1h-1.355c-.552 0-1 .448-1 1s.448 1 1 1z"/></svg>