<?xml version="1.0" encoding="iso-8859-1"?>
<!-- Generator: Adobe Illustrator 19.0.0, SVG Export Plug-In . SVG Version: 6.00 Build 0)  -->
<svg version="1.1" id="Layer_1" xmlns="http://www.w3.org/2000/svg" xmlns:xlink="http://www.w3.org/1999/xlink" x="0px" y="0px"
	 viewBox="0 0 205.672 205.672" style="enable-background:new 0 0 205.672 205.672;" xml:space="preserve">
<g>
	<g>
		<g>
			<path d="M199.216,47.672c-4.164-4.164-9.68-6.456-15.528-6.456l-31.752-0.005c0.215-0.429,0.348-0.907,0.348-1.419
				c0-1.76-1.432-3.188-3.188-3.188l-5.492-0.001v-4.651c0-10.612-9.428-19.248-21.024-19.252l-40.596-0.004
				c-11.592,0-21.028,8.632-21.032,19.248v4.744h-4.384c-1.756,0-3.188,1.424-3.188,3.184c0,0.474,0.111,0.92,0.297,1.325L22,41.192
				c-12.124,0-21.988,9.864-21.988,21.984L0,166.036c0,5.852,2.288,11.364,6.452,15.528c2.796,2.796,6.209,4.724,9.915,5.705
				c0,0.027-0.007,0.052-0.007,0.079c0,3.096,2.52,5.612,5.616,5.612h6.352c2.868,0,5.237-2.16,5.572-4.938l137.878,0.02
				c0.337,2.776,2.705,4.934,5.571,4.934h6.36c1.492,0,2.896-0.584,3.956-1.64c1.064-1.068,1.652-2.476,1.652-3.972
				c0-0.02-0.005-0.038-0.005-0.058c9.395-2.498,16.343-11.077,16.349-21.246l0.012-102.86
				C205.672,57.348,203.38,51.836,199.216,47.672z M196.404,50.476c3.412,3.416,5.292,7.936,5.292,12.724l-0.004,35.888h-26.517
				c-0.126-3.59-1.844-6.772-4.467-8.849l0.004-45.057l12.972,0.002C188.476,45.184,192.992,47.06,196.404,50.476z M171.136,184.074
				l-67.16-0.01v-82.712h42.532V112c0,3.14,1.212,6.096,3.408,8.328c0.34,0.345,0.703,0.656,1.076,0.952l-0.004,25.732
				c0,5.58,4.544,10.12,10.124,10.124c5.288,0,9.588-4.3,9.588-9.584l0.004-26.27c2.728-2.158,4.492-5.51,4.492-9.278v-10.652
				h26.496l-0.006,53.172h-14.197c-4.348,0-8.448,1.784-11.544,5.02c-3.096,3.24-4.804,7.528-4.808,12.084V184.074z M3.976,101.348
				h26.501c0,0.032-0.005,0.064-0.005,0.096v12.488c0,3.14,1.208,6.096,3.408,8.328c0.338,0.342,0.698,0.652,1.068,0.947v25.481
				c0,5.42,4.416,9.836,9.84,9.836h0.008c2.632,0,5.108-1.024,6.972-2.888c1.864-1.868,2.892-4.344,2.892-6.98l0.004-25.433
				c2.733-2.159,4.5-5.515,4.5-9.287v-12.488c0-0.032-0.005-0.064-0.005-0.096h42.549v82.712l-67.776-0.01v-13.262
				c0.004-9.532-7.696-17.292-17.164-17.296H3.969L3.976,101.348z M151,45.179l-0.004,45.053c-2.622,2.077-4.338,5.259-4.467,8.852
				H58.926c-0.567-2.794-2.118-5.223-4.262-6.919l0.004-47L151,45.179z M153.26,122.686c1.516,0.713,3.173,1.102,4.892,1.102h5.396
				c1.748,0,3.402-0.403,4.892-1.104l-0.004,24.868c0,4.036-3.284,7.32-7.32,7.32c-4.332-0.004-7.856-3.532-7.856-7.86V122.686z
				 M163.548,121.528h-5.396c-2.496,0-4.848-0.992-6.62-2.788c-1.776-1.8-2.756-4.192-2.752-6.736V99.516
				c0-5.051,3.897-9.189,8.796-9.494v3.652c-2.931,0.293-5.232,2.799-5.232,5.843v12.488c0,3.24,2.604,5.872,5.808,5.872
				l5.396,0.004c3.204,0,5.812-2.632,5.812-5.872V99.516c0-3.041-2.294-5.545-5.224-5.842v-3.648
				c4.894,0.311,8.788,4.443,8.788,9.494v12.488C172.924,117.256,168.72,121.528,163.548,121.528z M160.856,102.864
				c1.16,0,2.175-0.609,2.758-1.52h3.478v10.66c0,1.988-1.588,3.604-3.54,3.604l-5.396-0.004c-1.952,0-3.54-1.616-3.54-3.604
				v-10.656h3.48C158.68,102.255,159.696,102.864,160.856,102.864z M159.848,99.584V86.828c0-0.56,0.452-1.012,1.004-1.012
				c0.56,0.004,1.012,0.456,1.012,1.012v12.756c0,0.56-0.452,1.012-1.008,1.012C160.3,100.596,159.848,100.144,159.848,99.584z
				 M164.136,95.968c1.535,0.262,2.724,1.527,2.913,3.112h-2.913V95.968z M157.576,99.08h-2.917
				c0.189-1.588,1.379-2.854,2.917-3.113V99.08z M168.44,88.835c-1.321-0.622-2.773-0.996-4.304-1.073v-0.93
				c0-1.8-1.472-3.272-3.28-3.276c-1.808,0-3.28,1.468-3.28,3.276v0.922c-1.534,0.077-2.989,0.451-4.312,1.074l0.004-43.5h15.176
				L168.44,88.835z M52.4,45.316l-0.004,45.446c-1.322-0.622-2.776-0.996-4.308-1.072v-0.926c0-1.808-1.468-3.276-3.276-3.276
				s-3.28,1.468-3.28,3.276v0.926c-1.534,0.078-2.989,0.454-4.312,1.078l0.004-45.452H52.4z M41.532,99.08h-2.071
				c0.528-0.612,1.248-1.041,2.071-1.18V99.08z M38.572,101.44c0-0.033,0.009-0.063,0.01-0.096h2.951v0.172
				c0,1.808,1.472,3.276,3.28,3.276c1.719,0,3.122-1.338,3.251-3.028h2.985v12.168c0,1.988-1.588,3.604-3.54,3.604h-5.396
				c-1.952,0-3.54-1.62-3.54-3.608V101.44z M43.804,101.516V88.764c0-0.56,0.452-1.012,1.008-1.012c0.556,0,1.008,0.452,1.008,1.012
				v12.752c0,0.56-0.452,1.012-1.008,1.012C44.256,102.528,43.804,102.076,43.804,101.516z M48.088,99.5v-1.603
				c1.003,0.172,1.862,0.766,2.392,1.603H48.088z M41.532,91.954v3.652c-2.929,0.295-5.228,2.801-5.228,5.842v12.488
				c0,3.24,2.604,5.876,5.808,5.876h5.396c3.2,0,5.808-2.632,5.812-5.872v-12.492c0-3.04-2.295-5.549-5.232-5.846v-3.648
				c4.9,0.305,8.8,4.44,8.8,9.494v12.488c0,5.248-4.204,9.524-9.376,9.524l-5.4-0.004c-2.496,0-4.848-0.992-6.62-2.788
				c-1.776-1.8-2.756-4.192-2.752-6.736v-12.488C32.74,96.396,36.636,92.263,41.532,91.954z M37.216,124.614
				c1.518,0.716,3.178,1.106,4.9,1.106l5.4,0.004c1.742,0,3.39-0.4,4.876-1.097l-0.004,24.029c0,2.032-0.792,3.94-2.228,5.376
				c-1.436,1.436-3.34,2.228-5.368,2.228h-0.004c-4.172,0-7.572-3.4-7.572-7.572V124.614z M150.012,39.792
				c0,0.5-0.42,0.92-0.92,0.92l-19.344-0.004c-0.496,0-0.916-0.42-0.916-0.92c0-0.504,0.412-0.92,0.92-0.92l19.34,0.004
				C149.6,38.872,150.012,39.284,150.012,39.792z M63.224,31.94c0-9.364,8.416-16.98,18.76-16.98l40.596,0.004
				c10.344,0.004,18.756,7.624,18.756,16.988v4.65l-4.708-0.001v-4.653c0.004-7.112-6.296-12.896-14.044-12.9l-40.6-0.004
				c-7.748,0-14.052,5.784-14.052,12.896v4.748h-4.708V31.94z M56.568,38.952h19.344c0.508,0,0.92,0.416,0.92,0.92
				c0,0.504-0.412,0.92-0.92,0.92l-19.344-0.004c-0.508,0-0.92-0.412-0.92-0.92C55.648,39.368,56.06,38.952,56.568,38.952z
				 M75.912,36.688h-5.712l0.004-4.748c0-5.86,5.284-10.628,11.78-10.628l40.6,0.004c6.496,0.004,11.78,4.772,11.776,10.632v4.653
				l-4.608-0.001c-1.756,0-3.188,1.428-3.188,3.188c0,0.513,0.133,0.99,0.349,1.42L78.803,41.2c0.186-0.404,0.297-0.85,0.297-1.324
				C79.1,38.116,77.668,36.688,75.912,36.688z M21.996,45.16l12.96,0.002l-0.004,47.013c-2.135,1.695-3.68,4.12-4.244,6.909H3.976
				L3.98,63.176C3.98,53.244,12.06,45.16,21.996,45.16z M3.968,166.036l0.001-9.544h12.799c7.832,0.004,14.196,6.416,14.192,14.3
				l-0.004,13.261l-8.976-0.001c-4.788,0-9.304-1.876-12.72-5.292C5.848,175.344,3.968,170.824,3.968,166.036z M28.32,190.696
				h-6.352c-1.708,0-3.105-1.296-3.304-2.952c1.09,0.166,2.194,0.276,3.316,0.276l9.62,0.001
				C31.287,189.544,29.937,190.696,28.32,190.696z M186.056,189.732c-0.632,0.632-1.468,0.98-2.352,0.98h-6.36
				c-1.612,0-2.96-1.149-3.274-2.669l9.598,0.001c1.133,0,2.247-0.086,3.334-0.253C186.909,188.521,186.592,189.199,186.056,189.732
				z M183.668,184.076l-9.696-0.001v-12.447c0-3.764,1.412-7.308,3.976-9.988c2.56-2.676,5.948-4.152,9.544-4.152h14.193
				l-0.001,8.572C201.684,175.992,193.6,184.076,183.668,184.076z"/>
			<path d="M84.688,91.2h36.288c4.312,0,7.82-3.508,7.82-7.816V69.232c0-4.312-3.508-7.816-7.82-7.816H84.688
				c-4.312,0-7.82,3.504-7.82,7.816v14.152C76.868,87.692,80.376,91.2,84.688,91.2z M79.136,69.232c0-3.06,2.492-5.552,5.552-5.552
				h36.288c3.06,0,5.552,2.492,5.552,5.552v14.152c0,3.06-2.492,5.552-5.552,5.552H84.688c-3.06,0-5.552-2.492-5.552-5.552V69.232z"
				/>
			<path d="M122.48,67.168H83.184v18.276h39.296V67.168z M120.78,83.744H84.884V68.872h35.896V83.744z"/>
		</g>
	</g>
</g>
<g>
</g>
<g>
</g>
<g>
</g>
<g>
</g>
<g>
</g>
<g>
</g>
<g>
</g>
<g>
</g>
<g>
</g>
<g>
</g>
<g>
</g>
<g>
</g>
<g>
</g>
<g>
</g>
<g>
</g>
</svg>
