<svg width="31" height="35" viewBox="0 0 31 35" fill="none" xmlns="http://www.w3.org/2000/svg">
<path d="M2 20C2 18.4087 2.63214 16.8826 3.75736 15.7574C4.88258 14.6321 6.4087 14 8 14H23C24.5913 14 26.1174 14.6321 27.2426 15.7574C28.3679 16.8826 29 18.4087 29 20V30.5C29 31.2956 28.6839 32.0587 28.1213 32.6213C27.5587 33.1839 26.7956 33.5 26 33.5H5C4.20435 33.5 3.44129 33.1839 2.87868 32.6213C2.31607 32.0587 2 31.2956 2 30.5V20Z" stroke="black" stroke-width="3" stroke-linecap="round" stroke-linejoin="round"/>
<path d="M2 20L6.371 23.5C7.23136 24.188 8.31512 24.5346 9.41503 24.4738C10.5149 24.4129 11.5538 23.9487 12.333 23.17C12.7488 22.754 13.2424 22.4241 13.7857 22.1989C14.329 21.9738 14.9114 21.8579 15.4995 21.8579C16.0876 21.8579 16.67 21.9738 17.2133 22.1989C17.7566 22.4241 18.2502 22.754 18.666 23.17C19.4452 23.949 20.4843 24.4133 21.5845 24.4742C22.6846 24.5351 23.7686 24.1882 24.629 23.5L29 20" stroke="black" stroke-width="3" stroke-linecap="round"/>
<path d="M15.5 9.5C14.7044 9.5 13.9413 9.18393 13.3787 8.62132C12.8161 8.05871 12.5 7.29565 12.5 6.5C12.5 5.186 13.515 4.136 14.41 3.174L15.5 2L16.59 3.174C17.485 4.136 18.5 5.186 18.5 6.5C18.5 7.29565 18.1839 8.05871 17.6213 8.62132C17.0587 9.18393 16.2956 9.5 15.5 9.5Z" stroke="black" stroke-width="3" stroke-linecap="round" stroke-linejoin="round"/>
</svg>
