<svg id="line_expand" height="512" viewBox="0 0 64 64" width="512" xmlns="http://www.w3.org/2000/svg" data-name="line expand"><path d="m54.5791 50.1943a28.9783 28.9783 0 1 0 -8.9482 7.4034l10.0527 3.35a.98.98 0 0 0 .3164.0523 1 1 0 0 0 .97-1.2422zm-8.7275 5.3692a.99.99 0 0 0 -.8008.0732 27.0239 27.0239 0 1 1 7.6689-6.33.9979.9979 0 0 0 -.2021.8838l2.07 8.2852z"/><path d="m39 16h-6a1 1 0 0 0 0 2h2v11a1 1 0 0 0 2 0v-11h2a1 1 0 0 0 0-2z"/><path d="m29 18a1 1 0 0 0 0-2h-6a1 1 0 0 0 -1 1v12a1 1 0 0 0 1 1h6a1 1 0 0 0 0-2h-5v-4h5a1 1 0 0 0 0-2h-5v-4z"/><path d="m19 36a1 1 0 0 0 0-2h-6a1 1 0 0 0 -1 1v12a1 1 0 0 0 2 0v-5h5a1 1 0 0 0 0-2h-5v-4z"/><path d="m49 36a1 1 0 0 0 0-2h-6a1 1 0 0 0 -1 1v12a1 1 0 0 0 1 1h6a1 1 0 0 0 0-2h-5v-4h5a1 1 0 0 0 0-2h-5v-4z"/><path d="m39 36a1 1 0 0 0 0-2h-6a1 1 0 0 0 -1 1v12a1 1 0 0 0 1 1h6a1 1 0 0 0 0-2h-5v-4h5a1 1 0 0 0 0-2h-5v-4z"/><path d="m30 38a4.0039 4.0039 0 0 0 -4-4h-3a1 1 0 0 0 -1 1v12a1 1 0 0 0 2 0v-3.5859l4.293 4.2929a1 1 0 0 0 1.414-1.414l-4.2929-4.293h.5859a4.0039 4.0039 0 0 0 4-4zm-6-2h2a2 2 0 0 1 0 4h-2z"/><path d="m15 18h2a1.0006 1.0006 0 0 1 1 1 1 1 0 0 0 2 0 3.0033 3.0033 0 0 0 -3-3h-2a3.0033 3.0033 0 0 0 -3 3v8a3.0033 3.0033 0 0 0 3 3h2a3.0033 3.0033 0 0 0 3-3v-4a1 1 0 0 0 -1-1h-2a1 1 0 0 0 0 2h1v3a1.0006 1.0006 0 0 1 -1 1h-2a1.0006 1.0006 0 0 1 -1-1v-8a1.0006 1.0006 0 0 1 1-1z"/><path d="m49.3828 16.0762a.9968.9968 0 0 0 -1.09.2168l-3 3a1 1 0 0 0 1.414 1.414l1.2932-1.2929v9.5859a1 1 0 0 0 2 0v-12a.999.999 0 0 0 -.6172-.9238z"/></svg>