<svg id="a" height="24" viewBox="0 0 24 24" width="24" xmlns="http://www.w3.org/2000/svg"><path d="m22.56469 11.23665c-.30762-.69629-.94336-1.12891-1.65723-1.12891h-3.96289l1.53223-6.3374c.2207-.9165-.16504-1.86035-.93945-2.29492-.69336-.38965-1.5127-.26709-2.08691.30762l-7.60352 7.59863c-.59473.59473-.76367 1.5-.42969 2.30566.2998.72412.94141 1.17383 1.67578 1.17383h3.78711l-1.61426 7.4165c-.20117.93066.21191 1.8667 1.00684 2.27637.25586.13184.52539.19629.79199.19629.47656 0 .94336-.20605 1.30078-.59863l7.85059-8.62988c.55566-.61035.69238-1.50732.34863-2.28516zm-1.45801 1.27539-7.85059 8.62988c-.125.13965-.2168.12012-.2959.0791-.1582-.08154-.2959-.31152-.22852-.62451l1.81152-8.32568c.04883-.22217-.00586-.45361-.14844-.63037s-.35742-.2793-.58398-.2793h-4.71777c-.16309 0-.25195-.15527-.29004-.24756-.08301-.19971-.08203-.48438.10449-.67139l7.60352-7.59814c.06348-.06348.12012-.09424.17871-.09424.03613 0 .07324.01123.11328.03369.15625.08789.29004.32373.21582.63477l-1.75586 7.26318c-.05469.22363-.00293.45947.13965.64014.1416.18066.35938.28613.58887.28613h4.91602c.15723 0 .24609.14746.28516.23535.08496.19238.0918.47412-.08594.66895zm-14.44739.34912h-3.56628c-.73438 0-1.37598-.44971-1.67578-1.17383-.33398-.80566-.16504-1.71094.42969-2.30566l7.60351-7.59864c.5752-.57471 1.39258-.69727 2.08691-.30762.54175.30402.88715.85876.97394 1.47748l-1.81964 1.8186.32715-1.35321c.07422-.31104-.05957-.54688-.21582-.63477-.10449-.05811-.18945-.0415-.29199.06055l-7.60352 7.59814c-.18652.18701-.1875.47168-.10449.67139.03809.09229.12695.24756.29004.24756h2.95178c.04169.2713.10815.54175.21716.80469.10559.25488.24274.48419.39734.69531zm.5968 8.28076 3.34235-3.67395-.55328 2.54456c-.0249.11469-.03302.22906-.04614.34357l-1.63354 1.79559c-.35742.39258-.82422.59863-1.30078.59863-.2666 0-.53613-.06445-.79199-.19629-.79492-.40967-1.20801-1.3457-1.00684-2.27637l1.56708-7.19977c.36499.41638.82263.72498 1.34094.8902l-1.4422 6.62842c-.06738.31299.07031.54297.22852.62451.0791.04102.16992.06055.2959-.0791z"/></svg>