<?xml version="1.0" encoding="UTF-8"?>
<svg xmlns="http://www.w3.org/2000/svg" id="Outline" viewBox="0 0 512 512" width="512" height="512"><path d="M496,256a239.787,239.787,0,0,0-32-119.785V56a8,8,0,0,0-8-8H375.786A240.449,240.449,0,0,0,171.209,31.421,47.971,47.971,0,0,0,88,64c0,.222,0,.444,0,.666a48.054,48.054,0,0,0-36.435,65.548A240.013,240.013,0,0,0,459.406,383.375,47.978,47.978,0,0,0,480,344c0-.54-.023-1.074-.041-1.609A238.791,238.791,0,0,0,496,256Zm-16,0a223.628,223.628,0,0,1-8.392,60.924A47.978,47.978,0,0,0,432,296V251.314l18.343,18.343A8,8,0,0,0,464,264V172.759A224.325,224.325,0,0,1,480,256ZM168,88a93.58,93.58,0,0,1,54.513,17.827l96.85,96.85c.415,4.407.637,8.873.637,13.323,0,26.168-6.985,50.668-19.667,68.986C288.271,302.406,272.527,312,256,312a43.036,43.036,0,0,1-10.764-1.377,39.915,39.915,0,0,0-30.047,4.324A91.872,91.872,0,0,1,168,328c-57.346,0-104-53.832-104-120S110.654,88,168,88ZM116.885,331.026a109.413,109.413,0,0,0,28.751,10.6A104.008,104.008,0,0,0,192,447.637v0a88.061,88.061,0,0,1-75.115-116.614Zm87.12,105.209A88.074,88.074,0,0,1,161.5,343.8c2.153.13,4.32.2,6.5.2a106.943,106.943,0,0,0,25.79-3.186A103.961,103.961,0,0,0,240,447.637h0A87.709,87.709,0,0,1,204.005,436.235Zm48,0a88.127,88.127,0,0,1-40.3-101.561,111.73,111.73,0,0,0,11.617-5.946,23.829,23.829,0,0,1,17.919-2.613c1.357.351,2.724.648,4.1.9A104.14,104.14,0,0,0,288,447.637h0A87.709,87.709,0,0,1,252.005,436.235Zm48,0A88.34,88.34,0,0,1,256,360a87.346,87.346,0,0,1,6.12-32.315c19.591-2.027,37.647-13.774,51.367-33.591A115.69,115.69,0,0,0,324.45,274.18,87.884,87.884,0,0,1,336,272.358v32.211a56.006,56.006,0,0,0,0,110.862v32.207A87.709,87.709,0,0,1,300.005,436.235ZM304,360a40.067,40.067,0,0,1,32-39.195V384a47.791,47.791,0,0,0,2.626,15.629A40.054,40.054,0,0,1,304,360Zm40-104a104.853,104.853,0,0,0-13.454.871,152.382,152.382,0,0,0,5.4-37.613L373.79,257.1A47.9,47.9,0,0,0,352,268.261V264A8,8,0,0,0,344,256ZM235.314,96H416V276.686ZM448,244.686l-16-16V88a8,8,0,0,0-8-8H283.314l-16-16H448ZM256,32a224.327,224.327,0,0,1,83.242,16H248a8,8,0,0,0-5.657,13.657L260.686,80H216a7.975,7.975,0,0,0-3.524.826A48.227,48.227,0,0,0,184,64.676c0-.226,0-.45,0-.676a47.74,47.74,0,0,0-3.845-18.814A222.733,222.733,0,0,1,256,32ZM96,80h.8a8,8,0,0,0,7.842-9.581A32.554,32.554,0,0,1,104,64a32,32,0,0,1,64,0,32.554,32.554,0,0,1-.642,6.419,7.943,7.943,0,0,0-.15,1.593A106.441,106.441,0,0,0,144,74.735V56a8,8,0,0,0-16,0V79.779A116.324,116.324,0,0,0,95.242,99.928l-1.585-1.585a8,8,0,0,0-11.314,11.314l1.5,1.5a134.237,134.237,0,0,0-14.187,19.011A32,32,0,0,1,96,80ZM32,256A223.275,223.275,0,0,1,61.308,145.151c.068.071.134.141.2.211A149.851,149.851,0,0,0,48,208c0,47.888,21.955,90.071,55.054,114.31A103.034,103.034,0,0,0,96,360,104.118,104.118,0,0,0,200,464a8,8,0,0,0,8-7.979A104.191,104.191,0,0,0,248,464a8,8,0,0,0,8-7.979A104.191,104.191,0,0,0,296,464a8,8,0,0,0,8-7.979,104.131,104.131,0,0,0,35.84,7.887A224.655,224.655,0,0,1,256,480C132.486,480,32,379.514,32,256ZM351.472,458.839A7.967,7.967,0,0,0,352,456V419.739a47.92,47.92,0,0,0,45.079,10.445A221.507,221.507,0,0,1,351.472,458.839Zm78.78-62.021A47.54,47.54,0,0,0,431.334,392c.915.013,1.824,0,2.726-.043Q432.186,394.415,430.252,396.818ZM432,376a32.545,32.545,0,0,1-6.421-.643A8,8,0,0,0,416,383.2v.8a32,32,0,0,1-64,0V363.32l34.34,34.34a8,8,0,0,0,11.32-11.32L363.32,352H440a8,8,0,0,0,0-16H363.32l34.34-34.34a8,8,0,0,0-11.32-11.32L352,324.68V304a32.036,32.036,0,0,1,32-32,32.445,32.445,0,0,1,5.1.409l26.5,26.5c.266,1.673.409,5.9.409,5.9a8,8,0,0,0,9.579,7.843A32.545,32.545,0,0,1,432,312a32,32,0,0,1,0,64Z"/><path d="M168,264a72,72,0,1,0-72-72A72.081,72.081,0,0,0,168,264Zm0-128a56,56,0,1,1-56,56A56.063,56.063,0,0,1,168,136Z"/><path d="M349.657,106.343a8,8,0,0,0-11.314,0l-24,24a8,8,0,0,0,11.314,11.314l24-24A8,8,0,0,0,349.657,106.343Z"/><path d="M373.657,130.343a8,8,0,0,0-11.314,0l-24,24a8,8,0,0,0,11.314,11.314l24-24A8,8,0,0,0,373.657,130.343Z"/><path d="M386.343,154.343l-24,24a8,8,0,0,0,11.314,11.314l24-24a8,8,0,0,0-11.314-11.314Z"/></svg>
