<svg id="Capa_1" enable-background="new 0 0 512 512" viewBox="0 0 512 512" xmlns="http://www.w3.org/2000/svg"><g><path d="m376.242 88.178c-74.857 0-135.758 60.9-135.758 135.758 0 5.667.353 11.373 1.05 16.96.513 4.11 4.258 7.026 8.37 6.515 4.11-.513 7.027-4.26 6.515-8.37-.62-4.974-.935-10.056-.935-15.104 0-66.586 54.172-120.758 120.758-120.758 66.586-.001 120.758 54.171 120.758 120.757 0 26.532-8.439 51.707-24.404 72.802-15.454 20.419-37.402 35.67-61.801 42.942-3.969 1.183-6.228 5.36-5.045 9.33.97 3.255 3.953 5.359 7.185 5.359.709 0 1.431-.102 2.146-.314 27.436-8.178 52.11-25.319 69.477-48.265 17.952-23.723 27.442-52.027 27.442-81.854 0-74.858-60.901-135.758-135.758-135.758z"/><path d="m400.291 376.758h-11.598c3.428-7.16 3.436-15.427-.108-22.641-4.378-8.912-10.002-17.378-16.715-25.218.675-6.241-1.591-12.643-6.599-17.068-14.715-13.008-32.052-23.182-51.537-30.265-.197-.403-.386-.809-.611-1.202-2.665-4.66-6.981-7.986-12.153-9.367-16.067-4.289-32.72-6.464-49.495-6.464-12.953 0-25.829 1.312-38.423 3.877l1.247-10.597c.517-4.396-.874-8.815-3.815-12.123-2.942-3.309-7.168-5.206-11.595-5.206h-142.294c-4.427 0-8.653 1.897-11.595 5.206-2.942 3.308-4.333 7.727-3.815 12.123l1.75 14.879c-1.117-.094-2.242-.144-3.371-.144-21.815 0-39.564 17.749-39.564 39.565s17.749 39.565 39.564 39.565c4.269 0 8.449-.699 12.427-2.014l2.507 21.312c.238 2.025.747 3.957 1.457 5.782h-40.439c-8.556 0-15.516 6.961-15.516 15.516v16.032c0 8.556 6.96 15.516 15.516 15.516h384.774c8.556 0 15.516-6.96 15.516-15.516v-16.032c.001-8.555-6.96-15.516-15.515-15.516zm-25.74-5.342c-2.083 3.345-5.668 5.342-9.588 5.342h-24.097l23.646-33.104c4.133 5.433 7.696 11.146 10.61 17.077 1.705 3.471 1.497 7.366-.571 10.685zm-60.129-73.52c15.351 6.27 29.089 14.718 40.914 25.173 1.903 1.682 2.206 4.535.705 6.637l-28.393 39.75c-3.266 4.573-8.571 7.303-14.19 7.303h-20.942zm-17.322-12.407c1.274.34 2.34 1.165 3.001 2.321.674 1.179.846 2.548.483 3.855l-22.626 81.454c-.595 2.143-2.564 3.639-4.788 3.639h-43.392c-2.224 0-4.193-1.497-4.788-3.639l-22.625-81.454c-.363-1.307-.191-2.676.483-3.855.662-1.156 1.728-1.981 3.001-2.321 14.806-3.953 30.156-5.957 45.625-5.957s30.82 2.004 45.626 5.957zm-257.536 51.189c-13.544 0-24.564-11.02-24.564-24.565s11.02-24.564 24.564-24.564c1.758 0 3.49.204 5.186.567l5.43 46.158c-3.291 1.58-6.902 2.404-10.616 2.404zm29.832 32.545-13.313-113.162c-.007-.063-.027-.23.127-.403s.322-.173.386-.173h142.293c.063 0 .232 0 .386.173s.134.34.127.403l-1.977 16.8c-3.137 1.744-5.764 4.298-7.598 7.503-.226.395-.417.802-.614 1.207-6.223 2.264-12.328 4.88-18.154 7.807-3.701 1.86-5.194 6.368-3.334 10.069 1.317 2.621 3.961 4.134 6.708 4.134 1.132 0 2.281-.257 3.361-.8 3.48-1.749 7.079-3.365 10.74-4.864l21.9 78.841h-20.942c-5.62 0-10.924-2.73-14.191-7.303l-28.393-39.749c-1.501-2.102-1.198-4.956.705-6.638 1.698-1.501 3.467-2.986 5.258-4.412 3.241-2.58 3.776-7.298 1.196-10.539-2.579-3.24-7.298-3.775-10.539-1.195-1.992 1.585-3.96 3.237-5.85 4.908-5.008 4.427-7.273 10.829-6.598 17.071-6.712 7.84-12.339 16.307-16.716 25.216-3.544 7.214-3.537 15.48-.108 22.641h-36.386c-4.326 0-7.969-3.239-8.474-7.535zm59.002 2.193c-2.067-3.319-2.275-7.213-.57-10.685 2.913-5.93 6.476-11.644 10.609-17.078l23.647 33.105h-24.097c-3.921 0-7.505-1.997-9.589-5.342zm272.409 36.891c0 .284-.231.516-.516.516h-384.775c-.285 0-.516-.231-.516-.516v-16.032c0-.285.231-.517.516-.517h384.774c.285 0 .516.231.516.517v16.032z"/><path d="m136.274 215.919c0 4.142 3.358 7.5 7.5 7.5s7.5-3.358 7.5-7.5c0-16.02-4.784-24.392-9.004-31.778-3.771-6.6-7.028-12.299-7.028-24.335 0-4.143-3.358-7.5-7.5-7.5s-7.5 3.357-7.5 7.5c0 16.02 4.784 24.391 9.004 31.777 3.772 6.601 7.028 12.3 7.028 24.336z"/><path d="m94.12 191.233c3.357 6.674 6.257 12.438 6.257 24.686 0 4.142 3.358 7.5 7.5 7.5s7.5-3.358 7.5-7.5c0-15.808-4.174-24.106-7.856-31.426-.633-1.259-1.268-2.518-1.878-3.82-1.758-3.751-6.224-5.366-9.974-3.609-3.75 1.758-5.366 6.223-3.609 9.974.67 1.431 1.365 2.814 2.06 4.195z"/><path d="m272.548 223.936c0 4.142 3.358 7.5 7.5 7.5h8.016c4.142 0 7.5-3.358 7.5-7.5s-3.358-7.5-7.5-7.5h-8.016c-4.142 0-7.5 3.357-7.5 7.5z"/><path d="m456.919 223.936c0 4.142 3.358 7.5 7.5 7.5h8.016c4.142 0 7.5-3.358 7.5-7.5s-3.358-7.5-7.5-7.5h-8.016c-4.142 0-7.5 3.357-7.5 7.5z"/><path d="m416.581 154.066c1.181.682 2.471 1.006 3.743 1.006 2.592 0 5.113-1.345 6.502-3.751l4.008-6.942c2.071-3.587.842-8.174-2.745-10.246-3.588-2.071-8.174-.842-10.245 2.745l-4.008 6.942c-2.072 3.588-.843 8.175 2.745 10.246z"/><path d="m448.856 274.52 6.942 4.008c1.181.682 2.471 1.006 3.743 1.006 2.592 0 5.113-1.345 6.502-3.751 2.071-3.587.842-8.174-2.745-10.245l-6.942-4.008c-3.588-2.071-8.174-.843-10.245 2.745-2.071 3.586-.842 8.173 2.745 10.245z"/><path d="m413.835 304.05 4.008 6.942c1.389 2.406 3.91 3.751 6.502 3.751 1.272 0 2.562-.324 3.743-1.006 3.587-2.071 4.816-6.658 2.745-10.245l-4.008-6.942c-2.071-3.587-6.66-4.815-10.245-2.745-3.587 2.07-4.816 6.657-2.745 10.245z"/><path d="m332.16 155.073c1.272 0 2.562-.324 3.743-1.006 3.587-2.071 4.816-6.658 2.745-10.245l-4.008-6.942c-2.071-3.587-6.66-4.815-10.245-2.745-3.587 2.071-4.816 6.658-2.745 10.246l4.008 6.942c1.389 2.405 3.91 3.75 6.502 3.75z"/><path d="m455.798 169.344-6.942 4.008c-3.587 2.071-4.816 6.658-2.745 10.245 1.389 2.406 3.91 3.751 6.502 3.751 1.272 0 2.562-.324 3.743-1.006l6.942-4.008c3.587-2.071 4.816-6.658 2.745-10.245-2.071-3.588-6.66-4.817-10.245-2.745z"/><path d="m286.441 172.089c-2.071 3.587-.842 8.174 2.745 10.245l63.988 36.944c-.304 1.506-.465 3.063-.465 4.658 0 12.976 10.557 23.532 23.532 23.532 12.976 0 23.533-10.557 23.533-23.532 0-10.354-6.724-19.16-16.033-22.3v-73.894c0-4.143-3.358-7.5-7.5-7.5s-7.5 3.357-7.5 7.5v73.894c-2.999 1.012-5.728 2.61-8.052 4.661l-64.004-36.953c-3.586-2.073-8.173-.843-10.244 2.745zm89.801 60.379c-4.705 0-8.532-3.828-8.532-8.532s3.828-8.532 8.532-8.532c4.705 0 8.533 3.828 8.533 8.532s-3.828 8.532-8.533 8.532z"/></g><g/><g/><g/><g/><g/><g/><g/><g/><g/><g/><g/><g/><g/><g/><g/></svg>