<svg id="Layer_1" enable-background="new 0 0 512 512" viewBox="0 0 512 512" xmlns="http://www.w3.org/2000/svg"><path d="m411.87 53.43c-41.73-24.78-97.09-38.43-155.87-38.43s-114.14 13.65-155.87 38.43c-42.71 25.37-66.23 59.43-66.23 95.91 0 30.16 16.74 59.55 47.2 83.04v213.15c0 28.38 23.09 51.46 51.46 51.46h246.86c28.38 0 51.46-23.09 51.46-51.46v-213.14c30.47-23.49 47.2-52.88 47.2-83.04.01-36.49-23.51-70.55-66.21-95.92zm9.44 171.16c-1.52 1.13-2.42 2.92-2.42 4.82v216.13c0 21.76-17.7 39.46-39.46 39.46h-246.86c-21.76 0-39.46-17.7-39.46-39.46v-216.13c0-1.9-.9-3.68-2.42-4.82-29.3-21.77-44.78-47.79-44.78-75.24 0-32.08 21.44-62.48 60.36-85.6 39.89-23.7 93.07-36.75 149.73-36.75s109.84 13.05 149.74 36.75c38.92 23.12 60.36 53.52 60.36 85.6-.01 27.45-15.49 53.47-44.79 75.24zm-24.11-146.46c-50.4-29.93-110.1-34.4-141.2-34.4s-90.8 4.47-141.2 34.4c-19.48 11.57-52.17 36.21-52.17 71.22 0 27.73 20.68 48.92 38.03 61.82l9.17 6.81v227.56c0 12.54 10.2 22.74 22.74 22.74h246.86c12.54 0 22.74-10.2 22.74-22.74v-227.56l9.17-6.81c17.35-12.9 38.03-34.09 38.03-61.82 0-35.01-32.69-59.65-52.17-71.22zm6.98 123.41-11.59 8.61c-1.52 1.13-2.42 2.92-2.42 4.82v230.57c0 5.92-4.82 10.74-10.74 10.74h-246.86c-5.92 0-10.74-4.82-10.74-10.74v-230.57c0-1.9-.9-3.68-2.42-4.82l-11.59-8.61c-15.14-11.25-33.19-29.44-33.19-52.19 0-30.15 32.38-52.63 46.3-60.9 47.94-28.47 105.2-32.72 135.07-32.72s87.13 4.25 135.07 32.72c13.92 8.27 46.3 30.75 46.3 60.9 0 22.74-18.05 40.93-33.19 52.19zm-76.88-44.49c-1.45-32.23-27.86-57.47-60.12-57.47h-1.74c-3.31 0-6 2.69-6 6v23.34c-10.51-17.63-29.75-29.34-51.71-29.34h-1.74c-3.31 0-6 2.69-6 6v23.34c-10.51-17.63-29.75-29.34-51.71-29.34h-1.74c-3.31 0-6 2.69-6 6v124.86c0 3.31 2.69 6 6 6 31.4 0 56.95 28.11 56.95 62.67s-25.55 62.67-56.95 62.67c-3.31 0-6 2.69-6 6v38.64c0 3.31 2.69 6 6 6 19.48 0 37.75-5.75 53.45-15.75v9.75c0 1.59.63 3.12 1.76 4.24 1.13 1.13 2.65 1.76 4.24 1.76 19.48 0 37.75-5.75 53.45-15.75v9.75c0 1.59.63 3.12 1.76 4.24 1.13 1.13 2.65 1.76 4.24 1.76 58.46 0 106.02-51.7 106.02-115.24 0-24.44-6.95-47.78-20.09-67.51-15.21-22.85-22.86-45.92-24.07-72.62zm-174.76 216.45c35.22-3.3 62.95-35.41 62.95-74.39s-27.73-71.09-62.95-74.39v-112.96c23.85 2.08 42.78 21.46 43.88 45.83 1.31 28.97 9.59 53.99 26.07 78.73 11.82 17.75 18.07 38.8 18.07 60.86 0 54.71-38.96 99.62-88.02 103.03zm91.97-120.48c11.47 11.69 18.44 28.36 18.44 46.09 0 19.5-8.08 37.27-21.28 48.9 6.97-15.34 10.89-32.6 10.89-50.83 0-15.36-2.75-30.29-8.05-44.16zm-32.52 134.76c6.29-5.38 12-11.52 17.03-18.28 27.54-10.54 45.93-38.58 45.93-70.39 0-30.26-16.44-57.02-42.03-68.75-.15-.23-.29-.46-.44-.69-9.99-15-16.7-30.11-20.48-46.27v-71.64c23.86 2.08 42.78 21.46 43.88 45.83 1.31 28.97 9.59 53.98 26.07 78.73 11.82 17.75 18.07 38.8 18.07 60.86 0 54.71-38.96 99.62-88.02 103.03v-12.43zm91.97-134.76c11.47 11.69 18.44 28.36 18.44 46.09 0 19.5-8.08 37.27-21.28 48.9 6.97-15.34 10.89-32.6 10.89-50.83 0-15.36-2.75-30.29-8.05-44.16zm-32.52 147.19v-12.43c6.29-5.38 12-11.52 17.03-18.28 27.54-10.54 45.93-38.58 45.93-70.39 0-30.26-16.44-57.02-42.03-68.75-.15-.23-.29-.46-.44-.69-9.99-15-16.7-30.11-20.48-46.26v-71.64c23.86 2.08 42.78 21.46 43.88 45.83 1.31 28.97 9.59 53.98 26.07 78.73 11.82 17.76 18.07 38.8 18.07 60.86-.01 54.7-38.97 99.61-88.03 103.02z"/></svg>