<svg id="toast11" enable-background="new 0 0 300 300" height="512" viewBox="0 0 300 300" width="512" xmlns="http://www.w3.org/2000/svg"><g><path d="m46 144c-6.617 0-12 5.383-12 12s5.383 12 12 12 12-5.383 12-12-5.383-12-12-12zm0 16c-2.205 0-4-1.793-4-4s1.795-4 4-4 4 1.793 4 4-1.795 4-4 4z"/><path d="m87.532 113.234c-2.362 0-4.277 1.915-4.277 4.277s1.915 4.276 4.277 4.276 4.276-1.915 4.276-4.276-1.914-4.277-4.276-4.277z"/><path d="m103.532 121.234c-2.362 0-4.277 1.915-4.277 4.277s1.915 4.276 4.277 4.276 4.276-1.915 4.276-4.276-1.914-4.277-4.276-4.277z"/><path d="m107.532 101.234c-2.362 0-4.277 1.915-4.277 4.277s1.915 4.276 4.277 4.276 4.276-1.915 4.276-4.276-1.914-4.277-4.276-4.277z"/><path d="m75.172 66.828c.781.781 1.805 1.172 2.828 1.172s2.047-.391 2.828-1.172l3.172-3.172 3.172 3.172c.781.781 1.805 1.172 2.828 1.172s2.047-.391 2.828-1.172c1.562-1.562 1.562-4.094 0-5.656l-3.172-3.172 3.172-3.172c1.562-1.562 1.562-4.094 0-5.656s-4.094-1.562-5.656 0l-3.172 3.172-3.172-3.172c-1.562-1.562-4.094-1.562-5.656 0s-1.562 4.094 0 5.656l3.172 3.172-3.172 3.172c-1.563 1.562-1.563 4.094 0 5.656z"/><circle cx="50" cy="88" r="4"/><path d="m257.855 141.801c-5.848-10.016-9.527-21.898-10.939-35.312l-1.588-15.082c-1.974-18.747-16.707-33.194-35.055-35.158 1.615-11.644 10.617-12.228 11.758-12.249 2.193-.016 3.969-1.801 3.969-4 0-2.211-1.791-4-4-4-6.427 0-18.156 4.346-19.793 20.18-15.247 1.444-28.032 11.527-33.237 25.548-8.051-1.127-16.426-1.728-24.97-1.728-46.002 0-82.037 16.344-82.037 37.207 0 7.887 4.959 15.25 14.381 21.414-2.934 16.781-4.42 34.363-4.42 52.309 0 21.836 2.154 42.902 6.404 62.605 1.307 6.063 6.733 10.465 12.904 10.465h105.535c6.172 0 11.598-4.402 12.904-10.465 1.533-7.111 2.773-14.541 3.765-22.078 12.019-1.517 23.414-6.555 32.54-14.715 12.725-11.375 20.024-27.683 20.024-44.742 0-10.625-2.816-21.066-8.145-30.199zm-61.087 114.199h-105.536c-2.467 0-4.557-1.707-5.084-4.152-4.131-19.152-6.225-39.648-6.225-60.918 0-18.422 1.605-36.438 4.771-53.547.307-1.652-.455-3.32-1.906-4.176-8.271-4.863-12.826-10.543-12.826-16 .001-14.105 29.751-29.207 74.038-29.207 7.856 0 15.549.534 22.959 1.529-.096.626-.22 1.242-.287 1.878l-1.586 15.07c-1.279 12.148-5.342 24.719-12.076 37.359-5.848 10.98-8.102 23.414-6.518 35.957 3.41 26.988 25.521 48.781 52.58 51.82 2.073.232 4.141.328 6.207.347-.93 6.786-2.045 13.48-3.427 19.887-.528 2.446-2.618 4.153-5.084 4.153zm43.877-45.219c-11.182 9.996-25.637 14.574-40.68 12.879-23.434-2.629-42.584-21.5-45.535-44.867-1.377-10.898.574-21.684 5.643-31.199 7.219-13.551 11.582-27.105 12.971-40.281l1.586-15.07c1.694-16.102 15.181-28.243 31.37-28.243s29.676 12.141 31.371 28.242l1.588 15.082c1.531 14.551 5.564 27.508 11.986 38.508 4.616 7.91 7.055 16.957 7.055 26.168 0 14.785-6.326 28.918-17.355 38.781z"/><path d="m206 132c-22.057 0-40 17.945-40 40s17.943 40 40 40 40-17.945 40-40-17.943-40-40-40zm0 72c-17.645 0-32-14.355-32-32s14.355-32 32-32 32 14.355 32 32-14.355 32-32 32z"/><path d="m206 144c-2.209 0-4 1.789-4 4s1.791 4 4 4c11.027 0 20 8.973 20 20 0 2.211 1.791 4 4 4s4-1.789 4-4c0-15.438-12.561-28-28-28z"/></g></svg>