<svg id="Layer_1" enable-background="new 0 0 2048 2048" height="512" viewBox="0 0 2048 2048" width="512" xmlns="http://www.w3.org/2000/svg"><g><path d="m499.54 1577.379c-17.673 0-32-14.327-32-32v-340.293c0-17.673 14.327-32 32-32s32 14.327 32 32v340.293c0 17.673-14.327 32-32 32z"/><path d="m1396.11 1577.376c-17.673 0-32-14.327-32-32v-281.182c0-17.673 14.327-32 32-32s32 14.327 32 32v281.182c0 17.673-14.327 32-32 32z"/><path d="m1592.941 1322.28c-45.508 0-88.078-6.483-123.453-13.119-22.083-4.142-56.135-9.854-78.359-13.356-17.458-2.752-29.38-19.134-26.628-36.592 2.75-17.457 19.135-29.378 36.591-26.629 21.982 3.465 56.455 9.222 80.195 13.675 116.891 21.925 263.222 27.939 357.991-121.406 40.999-64.609 59.013-140.159 50.725-212.73-8.733-76.472-42.02-126.554-98.934-148.855-36.833-14.432-78.41-14.725-117.078-.824-18.521 6.659-116.852 40.228-234.038 47.194-55.903 3.325-106.981-.105-151.814-10.192-55.177-12.414-101.4-35.033-137.387-67.231-13.17-11.784-14.294-32.014-2.51-45.185s32.016-14.295 45.185-2.51c65.537 58.638 168.175 65.667 242.729 61.231 84.094-4.999 169.015-26.575 216.185-43.533 53.254-19.143 110.813-18.625 162.079 1.462 79.576 31.181 127.7 100.749 139.17 201.182 9.943 87.057-11.462 177.363-60.271 254.283-53.784 84.757-127.837 137.098-220.102 155.567-27.188 5.442-54.214 7.568-80.276 7.568z"/><path d="m499.544 1237.086c-.071 0-.141 0-.211-.001-56.851-.368-118.82-14.429-174.492-39.593-61.589-27.838-111.631-67.218-144.717-113.882-1.165-1.644-2.31-3.273-3.434-4.886-46.897-67.289-75.527-144.555-82.796-223.449-8.405-91.224 11.103-177.919 57.983-257.679 37.469-63.75 90.727-118.46 154.016-158.215 62.52-39.272 134.774-63.96 208.955-71.396 60.634-6.077 122.565-4.855 184.075 3.629 49.13 6.778 98.111 18.184 145.581 33.898 78.994 26.151 127.384 55.479 131.928 58.287 66.318 39.943 124.808 92.294 173.854 155.606 39.038 50.394 72.177 107.774 98.495 170.549 44.754 106.748 54.332 191.937 54.718 195.512 1.896 17.571-10.811 33.353-28.381 35.249-17.559 1.899-33.329-10.791-35.245-28.342-.089-.799-9.303-81.054-50.898-179.537-55.024-130.274-137.695-229.293-245.719-294.307-.154-.093-.307-.187-.459-.282-.408-.252-45.771-28.157-120.387-52.63-68.329-22.412-176.05-46.496-301.179-33.952-131.471 13.179-248.92 87.332-314.178 198.36-39.949 67.966-56.578 141.775-49.428 219.377 6.254 67.874 31.002 134.517 71.571 192.725 1.027 1.473 2.074 2.963 3.138 4.465 58.341 82.284 178.688 125.918 267.415 126.493 17.672.114 31.906 14.533 31.792 32.206-.116 17.604-14.421 31.794-31.997 31.795z"/><g><path d="m696.812 1044.426c-7.756 0-15.533-2.803-21.684-8.475-33.191-30.604-75.203-90.382-86.853-201.365-1.845-17.577 10.908-33.321 28.484-35.166 17.563-1.85 33.32 10.908 35.166 28.484 10.072 95.946 46.042 142.052 66.586 160.995 12.993 11.98 13.814 32.225 1.834 45.218-6.307 6.842-14.907 10.309-23.533 10.309z"/><path d="m562.708 1127.324c-4.074 0-8.215-.783-12.214-2.437-5.999-2.48-147.229-63.699-174.203-320.757-1.844-17.577 10.909-33.321 28.485-35.165 17.586-1.849 33.32 10.909 35.165 28.485 12.244 116.679 50.131 184.458 79.758 220.771 29.078 35.64 55 47.418 55.248 47.521 16.333 6.753 24.098 25.467 17.346 41.799-5.099 12.334-17.02 19.783-29.585 19.783z"/></g><path d="m947.823 1683.824c-122.158 0-237.359-11.38-324.38-32.043-44.064-10.463-79.171-22.934-104.344-37.065-34.215-19.208-51.564-42.536-51.564-69.337s17.349-50.129 51.564-69.337c25.173-14.132 60.279-26.603 104.344-37.065 87.021-20.663 202.222-32.043 324.38-32.043s237.359 11.38 324.381 32.043c44.064 10.463 79.171 22.934 104.344 37.065 34.215 19.208 51.563 42.536 51.563 69.337s-17.349 50.129-51.563 69.337c-25.173 14.132-60.279 26.603-104.344 37.065-87.021 20.663-202.223 32.043-324.381 32.043zm-415.346-138.445c5.022 6.107 28.533 27.606 120.519 47.479 80.498 17.39 185.203 26.967 294.828 26.967s214.33-9.577 294.827-26.967c91.986-19.872 115.497-41.371 120.519-47.479-5.021-6.107-28.532-27.606-120.519-47.479-80.497-17.39-185.202-26.967-294.827-26.967s-214.33 9.577-294.828 26.967c-91.986 19.872-115.496 41.371-120.519 47.479zm831.898 1.7h.01z"/><path d="m1369.043 1297.763c-28.263 0-56.533-4.495-83.534-13.396-110.069-36.284-203.13-103.312-261.816-153.152-59.115-50.204-129.948-82.167-204.842-92.433-96.063-13.165-173.652 12.388-230.614 75.957-43.094 48.091-57.718 99.57-57.861 100.085-4.724 17.03-22.357 27.007-39.389 22.282-17.03-4.725-27.006-22.359-22.282-39.39.747-2.69 18.884-66.56 71.869-125.688 49.509-55.251 139.483-116.869 286.969-96.653 86.999 11.925 169.153 48.945 237.581 107.059 54.341 46.149 140.163 108.101 240.424 141.15 65.783 21.685 136.414 8.781 188.933-34.521 15.857-13.076 26.649-26.225 31.207-38.023 6.369-16.485 24.899-24.683 41.382-18.319 16.486 6.369 24.688 24.896 18.318 41.382-8.633 22.35-25.521 43.996-50.192 64.34-34.077 28.098-75.229 47.147-119.008 55.093-15.56 2.822-31.353 4.226-47.145 4.227z"/></g></svg>