<svg width="29" height="30" viewBox="0 0 29 30" fill="none" xmlns="http://www.w3.org/2000/svg">
<path d="M0 26.1563H25.4545V29.3769H0V26.1563ZM25.4545 0.391742H0V16.4946C0 18.2029 0.670453 19.8412 1.86387 21.0492C3.05728 22.2571 4.67589 22.9357 6.36364 22.9357H15.9091C17.5968 22.9357 19.2154 22.2571 20.4089 21.0492C21.6023 19.8412 22.2727 18.2029 22.2727 16.4946V11.6637H25.4545C26.2984 11.6637 27.1077 11.3244 27.7044 10.7204C28.3011 10.1165 28.6364 9.29731 28.6364 8.44316V3.61231C28.6378 3.18898 28.5564 2.76955 28.397 2.37818C28.2376 1.9868 28.0033 1.6312 27.7076 1.33186C27.4118 1.03252 27.0605 0.795351 26.6738 0.634004C26.2872 0.472658 25.8728 0.390323 25.4545 0.391742ZM19.0909 16.4946C19.0884 17.3479 18.7524 18.1656 18.1562 18.7691C17.56 19.3725 16.7522 19.7126 15.9091 19.7151H6.36364C5.52054 19.7126 4.71269 19.3725 4.11653 18.7691C3.52037 18.1656 3.18434 17.3479 3.18182 16.4946V3.61231H19.0909V16.4946ZM25.4545 8.44316H22.2727V3.61231H25.4545V8.44316Z" fill="black"/>
</svg>
