<svg height="512pt" viewBox="0 0 512 512.001" width="512pt" xmlns="http://www.w3.org/2000/svg"><path d="m124.917969 318.628906h64.019531c4.496094 0 8.453125-5.933594 8.453125-12.40625s-3.957031-12.046875-8.453125-12.046875h-47.117188v-1.621093c0-16.363282 55.570313-29.132813 55.570313-68.15625 0-24.09375-21.042969-37.222657-41.902344-37.222657-20.5 0-40.640625 12.589844-40.640625 34.527344 0 11.328125 5.394532 14.566406 12.589844 14.566406 9.171875 0 14.746094-5.035156 14.746094-10.25 0-9.890625 6.292968-13.488281 13.484375-13.488281 10.070312 0 13.667969 7.015625 13.667969 12.769531 0 22.835938-56.648438 39.023438-56.648438 67.253907v17.445312c0 5.214844 7.195312 8.628906 12.230469 8.628906zm0 0"/><path d="m214.109375 290.9375h42.082031v19.0625c0 5.753906 7.015625 8.632812 14.027344 8.632812s14.027344-2.878906 14.027344-8.632812v-19.0625h7.730468c4.316407 0 8.632813-6.472656 8.632813-12.949219 0-6.472656-2.875-12.945312-8.632813-12.945312h-7.730468v-12.589844c0-5.933594-7.015625-8.453125-14.027344-8.453125-7.015625 0-14.027344 2.519531-14.027344 8.453125v12.589844h-15.464844l31.828126-63.839844c.539062-1.257813.902343-2.339844.902343-3.417969 0-6.472656-9.171875-10.609375-14.027343-10.609375-4.496094 0-8.992188 1.976563-11.691407 7.191407l-41.539062 81.464843c-1.078125 1.976563-1.441407 3.957031-1.441407 5.394531.003907 6.292969 4.140626 9.710938 9.351563 9.710938zm0 0"/><path d="m329.378906 184.117188c-8.09375 0-13.847656 3.417968-13.847656 8.453124v117.429688c0 4.316406 5.753906 8.632812 13.847656 8.632812 7.550782 0 14.027344-4.316406 14.027344-8.632812v-40.28125c0-8.453125 6.113281-13.488281 12.046875-13.488281 7.015625 0 12.949219 6.652343 12.949219 13.488281v40.28125c0 5.753906 7.371094 8.632812 13.847656 8.632812 7.011719 0 14.027344-2.878906 14.027344-8.632812v-40.28125c0-20.679688-14.207032-37.765625-30.574219-37.765625-11.148437 0-19.058594 6.65625-22.296875 13.667969v-53.050782c0-5.035156-6.476562-8.453124-14.027344-8.453124zm0 0"/><path d="m511.539062 255.769531c0-68.320312-26.605468-132.550781-74.914062-180.859375-48.308594-48.304687-112.535156-74.910156-180.855469-74.910156-8.277343 0-14.984375 6.710938-14.984375 14.988281v.003907.007812 40.355469c0 8.277343 6.707032 14.988281 14.984375 14.988281 8.277344 0 14.988281-6.710938 14.988281-14.988281v-24.882813c54.667969 3.558594 105.578126 26.539063 144.671876 65.632813 39.097656 39.097656 62.074218 90.003906 65.632812 144.675781h-24.871094c-8.273437 0-14.984375 6.710938-14.984375 14.988281 0 8.273438 6.710938 14.984375 14.984375 14.984375h24.871094c-3.558594 54.671875-26.535156 105.582032-65.632812 144.675782-39.09375 39.09375-90.003907 62.074218-144.671876 65.632812v-24.882812c0-8.277344-6.710937-14.988282-14.988281-14.988282-8.277343 0-14.984375 6.710938-14.984375 14.988282v25.308593c-39.542968-2.722656-77.511718-15.800781-110.722656-38.183593-38.511719-25.957032-67.695312-62.679688-84.40625-106.203126-8.191406-21.34375-13.066406-43.742187-14.546875-66.347656h24.238281c8.277344 0 14.984375-6.710937 14.984375-14.984375 0-8.277343-6.707031-14.988281-14.984375-14.988281h-24.207031c.414063-6.046875 1.070313-12.078125 1.976563-18.082031 4.324218-28.636719 14.207031-56.28125 28.871093-81.199219l2.519531 12.957031c1.390626 7.160157 7.664063 12.132813 14.695313 12.132813.945313 0 1.910156-.09375 2.875-.28125 8.125-1.578125 13.429687-9.445313 11.851563-17.570313l-9.28125-47.75c-1.582032-8.125-9.445313-13.425781-17.570313-11.851562l-47.75 9.28125c-8.125 1.582031-13.429687 9.445312-11.851563 17.570312 1.578126 8.125 9.449219 13.429688 17.570313 11.851563l11.5-2.234375c-16.824219 28.390625-28.132813 59.9375-33.066406 92.617187-1.652344 10.953125-2.578125 21.988282-2.785157 33.03125-.449218 1.425782-.695312 2.941406-.695312 4.515625 0 1.566407.242188 3.078125.691406 4.5.492188 29.800781 6.207032 59.5 16.984375 87.574219 18.921875 49.296875 51.992188 90.902344 95.632813 120.316406 42.5625 28.6875 92.066406 43.84375 143.191406 43.839844h.300781c1.335938 0 2.625-.195312 3.855469-.523438 66.488281-1.238281 128.816406-27.699218 175.96875-74.851562 48.308594-48.308594 74.914062-112.539062 74.914062-180.855469zm0 0"/></svg>