<svg enable-background="new 0 0 492 492" viewBox="0 0 492 492" xmlns="http://www.w3.org/2000/svg"><g id="Master_Layer_1"/><g id="Layer_1"><g><g><g><g><path clip-rule="evenodd" d="m246.26 431.06c-21.948 0-43.425-3.82-63.834-11.355-19.719-7.28-37.938-17.828-54.152-31.351-2.443-2.037-2.772-5.67-.734-8.113s5.67-2.772 8.113-.734c30.952 25.815 70.234 40.032 110.608 40.032 95.282 0 172.8-77.518 172.8-172.8s-77.518-172.8-172.8-172.8-172.8 77.518-172.8 172.8c0 3.181-2.579 5.76-5.76 5.76s-5.76-2.579-5.76-5.76c0-24.88 4.874-49.019 14.487-71.747 9.284-21.95 22.573-41.661 39.499-58.587s36.637-30.215 58.586-39.499c22.728-9.613 46.867-14.488 71.747-14.488s49.019 4.875 71.747 14.487c21.949 9.284 41.66 22.573 58.586 39.499s30.215 36.637 39.499 58.587c9.613 22.728 14.488 46.867 14.488 71.747s-4.874 49.019-14.487 71.747c-9.284 21.949-22.573 41.66-39.499 58.586s-36.637 30.215-58.587 39.499c-22.728 9.615-46.867 14.49-71.747 14.49z" fill-rule="evenodd"/></g><g><path clip-rule="evenodd" d="m246.26 406.228c-18.581 0-36.786-3.168-54.112-9.416-16.742-6.038-32.274-14.801-46.167-26.047-2.473-2.001-2.854-5.628-.853-8.101 2.002-2.472 5.628-2.854 8.101-.853 26.206 21.214 59.244 32.897 93.03 32.897 81.59 0 147.968-66.378 147.968-147.968 0-3.181 2.579-5.76 5.76-5.76s5.76 2.579 5.76 5.76c0 21.528-4.217 42.415-12.536 62.082-8.033 18.992-19.532 36.048-34.177 50.693s-31.701 26.144-50.693 34.177c-19.665 8.318-40.552 12.536-62.081 12.536z" fill-rule="evenodd"/></g><g><g><g><path clip-rule="evenodd" d="m109.79 411.865c-.497 0-.998-.065-1.491-.196-1.988-.533-3.54-2.085-4.073-4.073l-22.895-85.444c-.533-1.988.036-4.108 1.491-5.564 1.455-1.455 3.576-2.023 5.563-1.491l85.444 22.895c1.988.533 3.54 2.085 4.073 4.073s-.035 4.108-1.491 5.564l-62.549 62.549c-1.093 1.094-2.564 1.687-4.072 1.687zm-14.749-83.058 17.73 66.17 48.44-48.44z" fill-rule="evenodd"/></g></g></g></g><g><g><path clip-rule="evenodd" d="m246.356 252.637c-1.377 0-2.719-.494-3.774-1.408l-77.577-67.279c-2.403-2.084-2.662-5.722-.578-8.126 2.084-2.403 5.722-2.662 8.125-.578l72.395 62.784 27.536-45.891c1.637-2.728 5.175-3.612 7.903-1.975 2.727 1.637 3.612 5.175 1.975 7.903l-31.065 51.774c-.876 1.46-2.352 2.457-4.033 2.725-.302.047-.606.071-.907.071z" fill-rule="evenodd"/></g></g><g><g><path clip-rule="evenodd" d="m110.82 252.5h-18.288c-3.181 0-5.76-2.579-5.76-5.76s2.579-5.76 5.76-5.76h18.288c3.181 0 5.76 2.579 5.76 5.76s-2.579 5.76-5.76 5.76z" fill-rule="evenodd"/></g><g><path clip-rule="evenodd" d="m399.988 252.5h-18.288c-3.181 0-5.76-2.579-5.76-5.76s2.579-5.76 5.76-5.76h18.288c3.181 0 5.76 2.579 5.76 5.76s-2.578 5.76-5.76 5.76z" fill-rule="evenodd"/></g></g><g><g><path clip-rule="evenodd" d="m128.96 184.781c-.977 0-1.968-.249-2.875-.772l-15.838-9.144c-2.755-1.591-3.699-5.113-2.108-7.868s5.114-3.699 7.868-2.109l15.838 9.144c2.755 1.591 3.699 5.114 2.108 7.868-1.066 1.848-3.002 2.881-4.993 2.881z" fill-rule="evenodd"/></g><g><path clip-rule="evenodd" d="m379.387 329.365c-.977 0-1.967-.249-2.875-.773l-15.838-9.144c-2.755-1.59-3.699-5.113-2.108-7.868 1.59-2.755 5.113-3.699 7.868-2.108l15.838 9.144c2.755 1.591 3.699 5.113 2.108 7.868-1.066 1.848-3.002 2.881-4.993 2.881z" fill-rule="evenodd"/></g></g><g><g><path clip-rule="evenodd" d="m178.546 135.206c-1.991 0-3.927-1.033-4.994-2.881l-9.144-15.838c-1.59-2.755-.647-6.278 2.108-7.868 2.755-1.591 6.278-.647 7.868 2.108l9.144 15.838c1.591 2.755.647 6.278-2.108 7.868-.907.524-1.897.773-2.874.773z" fill-rule="evenodd"/></g><g><path clip-rule="evenodd" d="m323.13 385.633c-1.991 0-3.927-1.033-4.994-2.881l-9.144-15.838c-1.591-2.755-.646-6.278 2.108-7.868 2.755-1.591 6.277-.647 7.868 2.108l9.144 15.838c1.591 2.755.647 6.278-2.108 7.868-.906.524-1.897.773-2.874.773z" fill-rule="evenodd"/></g></g><g><g><path clip-rule="evenodd" d="m246.26 117.06c-3.181 0-5.76-2.579-5.76-5.76v-18.289c0-3.181 2.579-5.76 5.76-5.76s5.76 2.579 5.76 5.76v18.289c0 3.181-2.578 5.76-5.76 5.76z" fill-rule="evenodd"/></g><g><path clip-rule="evenodd" d="m246.26 406.228c-3.181 0-5.76-2.579-5.76-5.76v-18.288c0-3.181 2.579-5.76 5.76-5.76s5.76 2.579 5.76 5.76v18.288c0 3.181-2.578 5.76-5.76 5.76z" fill-rule="evenodd"/></g></g><g><path clip-rule="evenodd" d="m313.975 135.206c-.977 0-1.967-.249-2.875-.772-2.755-1.59-3.699-5.113-2.108-7.868l9.144-15.838c1.591-2.755 5.113-3.699 7.868-2.108 2.755 1.59 3.699 5.113 2.108 7.868l-9.144 15.838c-1.066 1.847-3.003 2.88-4.993 2.88z" fill-rule="evenodd"/></g><g><path clip-rule="evenodd" d="m363.56 184.781c-1.991 0-3.927-1.033-4.994-2.881-1.591-2.755-.646-6.278 2.108-7.868l15.838-9.144c2.755-1.591 6.277-.646 7.868 2.109s.646 6.278-2.108 7.868l-15.838 9.144c-.907.523-1.897.772-2.874.772z" fill-rule="evenodd"/></g></g></g></g></svg>