<svg id="Capa_1" enable-background="new 0 0 512 512" height="512" viewBox="0 0 512 512" width="512" xmlns="http://www.w3.org/2000/svg"><path d="m288.42 452.03c-29.79 0-32.88-2.09-34.48-4.23l-22.95-22.95-.25-1.63c-1.8-11.9-.01-79.98 1.88-152.05.42-15.95.85-32.36 1.23-47.72-37 14.36-40.77 13.88-42.77 13.57-2.07-.3-3.31-1.68-3.93-2.54l-20.44-20.44c-1.9-1.31-2.91-3.68-3.65-5.41-3.5-8.22-9.25-28.83-13.46-45.38-9.04-35.48-8.04-36.81-6.53-38.83l.29-.35c10.48-11.64 131.59-58.82 140.6-61.82l.99-.33 1.04.09c5.01.46 51.81 6.72 61.21 14.78l.28.26 23.55 23.55v2.07c0 13.13-.04 321.84-3.08 342.11l-.45 3.03-2.91.97c-3.96 1.32-37.42 2.58-54.46 2.96-8.49.2-15.66.29-21.71.29zm-27.51-11.41c9.68 2.96 80.39.56 97.48-.98 2.06-32.39 2.63-228.82 2.64-334.89l-20.45-20.46c-5.34-4.24-39.22-10.68-54.44-12.21-19.77 6.84-119.47 47.18-133.97 57.53 1.73 12.21 16.34 68.5 20.69 76.42l20.84 20.84c3.35-.72 13.53-3.66 43.52-15.47l7.01-2.76-.18 7.53c-.42 17.46-.92 36.67-1.41 55.26-1.65 62.75-3.51 133.55-2.17 148.73z"/><path d="m266.33 429.95c-31.52 0-33.15-2.34-34.74-4.61l-.67-.96-.18-1.16c-1.8-11.9-.01-79.96 1.88-152.01.72-27.31 1.46-55.45 1.94-78.89-6.22 2.52-15.8 6.36-25.59 10.13-34.38 13.23-37.93 12.8-39.96 12.49-3.48-.5-4.96-3.99-5.95-6.3-3.5-8.22-9.25-28.83-13.46-45.38-9.04-35.48-8.04-36.81-6.53-38.83l.29-.35c10.48-11.64 131.59-58.82 140.6-61.82l.99-.33 1.04.09c5.01.46 51.81 6.72 61.21 14.78l1.75 1.5v2.3c0 13.13-.04 321.84-3.08 342.11l-.45 3.03-2.91.97c-3.96 1.32-37.42 2.58-54.46 2.96-8.49.19-15.66.28-21.72.28zm-25.98-11.07c13.99 2.42 79.57.16 95.95-1.33 2.06-32.32 2.63-228 2.64-334.23-8.61-4.19-38.72-9.82-52.81-11.24-19.77 6.84-119.47 47.18-133.97 57.53 1.65 11.66 15.05 63.55 20.04 75.07 8.98-2.08 38.94-13.48 65.61-24.49l7.05-2.91-.14 7.63c-.47 24.84-1.29 56.22-2.09 86.56-1.62 61.12-3.43 129.88-2.28 147.41z"/></svg>