<svg id="Outline_ok" viewBox="0 0 64 64" xmlns="http://www.w3.org/2000/svg"><g fill="rgb(0,0,0)"><g><path d="m29 9h-11c-.552 0-1-.448-1-1s.448-1 1-1h11c.552 0 1 .448 1 1s-.448 1-1 1z"/><path d="m58 63h-52c-2.757 0-5-2.243-5-5v-50c0-.552.448-1 1-1h7c.552 0 1 .448 1 1s-.448 1-1 1h-6v49c0 1.654 1.346 3 3 3h52c1.654 0 3-1.346 3-3v-49h-3c-.552 0-1-.448-1-1s.448-1 1-1h4c.552 0 1 .448 1 1v50c0 2.757-2.243 5-5 5z"/><path d="m49 9h-11c-.552 0-1-.448-1-1s.448-1 1-1h11c.552 0 1 .448 1 1s-.448 1-1 1z"/><path d="m15 13h-6c-.552 0-1-.448-1-1v-10c0-.552.448-1 1-1h6c.552 0 1 .448 1 1v10c0 .552-.448 1-1 1zm-5-2h4v-8h-4z"/><path d="m35 13h-6c-.552 0-1-.448-1-1v-10c0-.552.448-1 1-1h6c.552 0 1 .448 1 1v10c0 .552-.448 1-1 1zm-5-2h4v-8h-4z"/><path d="m55 13h-6c-.552 0-1-.448-1-1v-10c0-.552.448-1 1-1h6c.552 0 1 .448 1 1v10c0 .552-.448 1-1 1zm-5-2h4v-8h-4z"/></g><path d="m62 21h-60c-.552 0-1-.448-1-1s.448-1 1-1h60c.552 0 1 .448 1 1s-.448 1-1 1z"/><path d="m46 57h-28c-.552 0-1-.448-1-1v-8.81c0-.552.448-1 1-1s1 .448 1 1v7.81h26v-7.77c0-.552.448-1 1-1s1 .448 1 1v8.77c0 .552-.448 1-1 1z"/><path d="m32.004 49c-.072 0-.145-.002-.217-.006-1.629-.085-2.987-1.182-3.531-2.692-1.275.873-3.198.883-4.481.02-.209.595-.557 1.14-1.021 1.58-.804.763-1.854 1.151-2.966 1.092-2.124-.111-3.787-1.94-3.787-4.164v-5.83c0-1.103.897-2 2-2h28c1.103 0 2 .897 2 2v6c0 1.092-.455 2.15-1.247 2.902-.804.763-1.86 1.153-2.967 1.092-1.629-.085-2.987-1.182-3.531-2.692-1.275.873-3.197.883-4.481.019-.209.596-.557 1.141-1.021 1.581-.751.713-1.72 1.098-2.749 1.098zm9.996-6v1.83c0 1.14.848 2.112 1.891 2.167.553.027 1.084-.165 1.486-.546.402-.382.624-.897.624-1.451v-6h-28.002v5.83c.001 1.14.85 2.112 1.893 2.167.561.031 1.083-.165 1.485-.546s.624-.897.624-1.451v-2c0-.552.448-1 1-1s1 .448 1 1c0 1.103.897 2 2 2s2-.897 2-2c0-.552.448-1 1-1s1 .448 1 1v1.83c0 1.14.848 2.112 1.891 2.167.558.031 1.083-.165 1.485-.546s.624-.897.624-1.451v-1.995c0-.552.447-1 .999-1 .552 0 .999.447 1 .998.002 1.101.899 1.997 2 1.997s2-.897 2-2c0-.552.448-1 1-1s1 .448 1 1z"/><path d="m32 32c-1.654 0-3-1.346-3-3 0-1.424 1.77-3.212 2.312-3.726.386-.366.99-.366 1.376 0 .542.514 2.312 2.302 2.312 3.726 0 1.654-1.346 3-3 3zm-1-2.999c0 .551.449.999 1 .999s1-.449 1-1c-.013-.26-.442-.907-1-1.551-.557.644-.987 1.291-1 1.552z"/><path d="m40 32c-1.654 0-3-1.346-3-3 0-1.424 1.77-3.212 2.312-3.726.386-.366.99-.366 1.376 0 .542.514 2.312 2.302 2.312 3.726 0 1.654-1.346 3-3 3zm-1-2.999c0 .551.449.999 1 .999s1-.449 1-1c-.013-.26-.442-.907-1-1.551-.557.644-.987 1.291-1 1.552z"/><path d="m24 32c-1.654 0-3-1.346-3-3 0-1.424 1.77-3.212 2.312-3.726.386-.366.99-.366 1.376 0 .542.514 2.312 2.302 2.312 3.726 0 1.654-1.346 3-3 3zm0-4.551c-.558.644-.987 1.292-1 1.553 0 .549.449.998 1 .998s.999-.448 1-.999c-.013-.262-.443-.909-1-1.552z"/><path d="m24 36c-.552 0-1-.448-1-1v-4c0-.552.448-1 1-1s1 .448 1 1v4c0 .552-.448 1-1 1z"/><path d="m32 36c-.552 0-1-.448-1-1v-4c0-.552.448-1 1-1s1 .448 1 1v4c0 .552-.448 1-1 1z"/><path d="m40 36c-.552 0-1-.448-1-1v-4c0-.552.448-1 1-1s1 .448 1 1v4c0 .552-.448 1-1 1z"/></g></svg>