<svg id="OBJECT" viewBox="0 0 512 512" xmlns="http://www.w3.org/2000/svg"><path d="m512 142.65c0-28.73-11.19-55.73-31.51-76.04-20.31-20.3-47.29-31.47-76-31.47h-.05c-18.65 0-36.74 4.87-52.77 14.1-3.75-5.24-7.95-10.2-12.6-14.85-22.2-22.18-51.69-34.39-83.07-34.39h-.06c-31.36.02-60.83 12.44-82.96 34.98-4.43 4.51-8.46 9.31-12.07 14.36-16.22-9.31-34.53-14.2-53.41-14.2h-.05c-28.7.01-55.66 11.38-75.91 32.01-20.86 21.23-32.05 49.4-31.52 79.32.6 33.95 9.42 67.2 24.82 93.63 14.2 24.37 33.39 41.95 54.57 50.18l-3.28 16.42c-1.25 6.23.35 12.63 4.38 17.55 3.87 4.72 9.52 7.5 15.59 7.72-2.71 10.37-2.23 24.63 8.91 38.67 18.76 23.63 10.19 32.11-2.77 44.94-5.92 5.86-12.04 11.92-15.55 19.86-7.13 16.14-2.9 32.85 12.26 48.31 10.52 10.74 22.76 17.14 23.28 17.41 1.1.57 2.28.84 3.45.84 2.71 0 5.33-1.48 6.67-4.05 1.91-3.68.47-8.2-3.21-10.11-.4-.21-39.9-21.04-28.72-46.34 2.36-5.35 7.23-10.17 12.38-15.27 13.12-12.99 31.08-30.78 3.96-64.93-10.08-12.69-7.27-23.95-4.86-29.32h6.24c6.36 0 12.32-2.82 16.35-7.74s5.63-11.31 4.38-17.55l-3.28-16.42c18.29-7.11 35.12-21.21 48.51-40.64 12.43 13.8 26.7 23.99 41.88 29.76l-3.74 18.68c-1.33 6.64.37 13.44 4.66 18.68 4.29 5.23 10.63 8.24 17.4 8.24h.13c-3.19 11.28-2.99 27.16 9.42 42.79 21.05 26.51 11.44 36.03-3.11 50.43-6.46 6.4-13.14 13.01-16.94 21.62-7.71 17.45-3.1 35.54 13.33 52.31 11.49 11.72 24.85 18.72 25.42 19.01 1.1.57 2.28.84 3.44.84 2.71 0 5.32-1.47 6.66-4.04 1.91-3.67.48-8.2-3.19-10.11-.45-.23-44.47-23.6-31.94-51.94 2.66-6.01 8.06-11.36 13.78-17.02 14.23-14.09 33.71-33.38 4.3-70.42-11.51-14.49-7.87-27.62-5.2-33.46h7.3c6.77 0 13.11-3 17.4-8.24 4.29-5.23 5.99-12.04 4.66-18.68l-3.73-18.67c15.53-5.88 29.71-16.14 41.92-29.7 13.39 19.39 30.19 33.47 48.46 40.57l-3.28 16.42c-1.25 6.23.35 12.63 4.38 17.55 3.87 4.72 9.52 7.5 15.59 7.72-2.71 10.37-2.23 24.63 8.91 38.67 18.76 23.63 10.19 32.11-2.77 44.94-5.92 5.86-12.04 11.92-15.55 19.86-7.13 16.14-2.9 32.85 12.26 48.31 10.52 10.74 22.76 17.14 23.28 17.41 1.1.57 2.28.84 3.45.84 2.71 0 5.33-1.48 6.67-4.05 1.91-3.68.47-8.2-3.21-10.11-.4-.21-39.9-21.04-28.72-46.34 2.36-5.35 7.23-10.17 12.38-15.27 13.12-12.99 31.08-30.78 3.96-64.93-10.08-12.69-7.27-23.95-4.86-29.32h6.24c6.36 0 12.32-2.82 16.35-7.74s5.63-11.31 4.38-17.55l-3.28-16.41c46.41-17.93 79.42-78.55 79.42-147.64zm-389.12 172.09c-.69.84-2.22 2.25-4.75 2.25h-21.28c-2.53 0-4.06-1.41-4.75-2.25s-1.77-2.62-1.27-5.09l3.37-16.84h26.58l3.37 16.84c.5 2.48-.58 4.26-1.27 5.1zm2.93-36.93h-36.62c-41.91-12.94-73.04-68.04-74.16-131.6-.46-25.86 9.21-50.21 27.21-68.54 17.41-17.73 40.58-27.51 65.22-27.52 16.11 0 31.67 4.1 45.49 11.92-9.77 18.04-14.78 38.43-14.41 59.62.66 37.21 10.32 73.66 27.2 102.62 2.67 4.59 5.51 8.95 8.49 13.08-13.13 20.53-30.16 34.77-48.42 40.41zm147.7 29.45c-1.43 1.74-3.54 2.75-5.8 2.75h-23.41c-2.26 0-4.37-1-5.8-2.75s-2-4.01-1.55-6.23l3.82-19.12h30.47l3.82 19.12c.44 2.21-.12 4.48-1.55 6.23zm2.75-40.35h-40.51c-46.46-14.26-80.97-75.21-82.21-145.49-.51-28.65 10.2-55.62 30.15-75.93 19.3-19.65 44.96-30.48 72.27-30.49h.05c27.37 0 53.1 10.66 72.46 30 19.37 19.36 30.04 45.11 30.04 72.5 0 35.46-8.66 70.22-24.38 97.85-15.04 26.44-35.56 44.7-57.86 51.56zm143.63 47.83c-.69.84-2.22 2.25-4.75 2.25h-21.28c-2.53 0-4.06-1.41-4.75-2.25s-1.77-2.62-1.27-5.09l3.37-16.84h26.58l3.37 16.84c.5 2.48-.58 4.26-1.27 5.1zm2.93-36.93h-36.62c-18.23-5.64-35.24-19.85-48.37-40.34 22.15-30.77 35.69-73.63 35.69-119.97 0-19.7-4.82-38.65-13.89-55.52 13.65-7.75 29.01-11.82 44.83-11.83h.05c24.7 0 47.93 9.62 65.4 27.08 17.48 17.47 27.11 40.71 27.11 65.43 0 32.13-7.84 63.6-22.08 88.63-13.57 23.84-32.04 40.32-52.12 46.53z"/><path d="m338.5 117.5c0-33.1-19.71-62.89-50.21-75.91-3.81-1.63-8.22.14-9.84 3.95-1.63 3.81.14 8.22 3.95 9.84 24.97 10.66 41.1 35.04 41.1 62.12 0 4.14 3.36 7.5 7.5 7.5s7.5-3.36 7.5-7.5z"/><path d="m259.53 35.08c-1.19-.05-2.39-.08-3.57-.08-4.14 0-7.5 3.36-7.5 7.5s3.36 7.5 7.5 7.5c.97 0 1.96.02 2.93.06h.32c4 0 7.32-3.15 7.49-7.18.18-4.14-3.04-7.64-7.17-7.81z"/></svg>