<svg width="35" height="35" viewBox="0 0 35 35" fill="none" xmlns="http://www.w3.org/2000/svg">
<path d="M22.4036 29C22.4036 31.486 20.9516 33.5 18.4666 33.5H9.18459C6.69859 33.5 5.24759 31.486 5.24759 29M23.3886 23.375C24.0565 23.4576 24.6657 23.798 25.0861 24.3236C25.5065 24.8492 25.7047 25.5182 25.6386 26.188C25.7047 26.8578 25.5065 27.5268 25.0861 28.0524C24.6657 28.578 24.0565 28.9184 23.3886 29.001H4.26259C3.59486 28.9184 2.98584 28.5781 2.56548 28.0528C2.14513 27.5274 1.94672 26.8586 2.01259 26.189C1.94617 25.5191 2.14432 24.8497 2.56473 24.324C2.98514 23.7982 3.59448 23.4576 4.26259 23.375" stroke="black" stroke-width="2.25" stroke-miterlimit="10" stroke-linecap="round"/>
<path d="M4.2626 19.156V19.141C4.2626 15.274 7.4266 13.25 11.2936 13.25H16.3566C20.2236 13.25 23.3876 15.289 23.3876 19.156V19.141M16.7076 7.625L17.2306 12.125M23.9506 23.375H12.3706C12.2963 23.3747 12.2227 23.3891 12.1541 23.4175C12.0854 23.4458 12.0231 23.4874 11.9706 23.54L10.0846 25.426C10.0585 25.4525 10.0273 25.4735 9.99298 25.4879C9.95865 25.5022 9.92181 25.5096 9.8846 25.5096C9.84738 25.5096 9.81054 25.5022 9.77621 25.4879C9.74188 25.4735 9.71074 25.4525 9.6846 25.426L7.8026 23.54C7.75013 23.4874 7.68777 23.4458 7.61911 23.4175C7.55045 23.3891 7.47686 23.3747 7.4026 23.375H3.7026C3.48084 23.3753 3.26121 23.3318 3.05624 23.2472C2.85128 23.1625 2.665 23.0383 2.50806 22.8817C2.35112 22.725 2.22658 22.5389 2.14157 22.3341C2.05655 22.1293 2.01273 21.9098 2.0126 21.688C2.0126 21.2403 2.19044 20.811 2.507 20.4944C2.82356 20.1778 3.25291 20 3.7006 20H23.9506C24.3983 20 24.8276 20.1778 25.1442 20.4944C25.4608 20.811 25.6386 21.2403 25.6386 21.688C25.6383 22.1355 25.4604 22.5646 25.1438 22.8809C24.8273 23.1973 24.3981 23.375 23.9506 23.375Z" stroke="black" stroke-width="2.25" stroke-miterlimit="10" stroke-linecap="round"/>
<path d="M17.7626 33.5H27.5626C28.1303 33.5001 28.677 33.2855 29.0932 32.8994C29.5094 32.5133 29.7642 31.9841 29.8066 31.418L32.3176 7.625" stroke="black" stroke-width="2.25" stroke-miterlimit="10" stroke-linecap="round"/>
<path d="M25.6376 7.625L26.7626 3.125L30.0626 2" stroke="black" stroke-width="2.25" stroke-linecap="round" stroke-linejoin="round"/>
<path d="M15.5126 7.625H33.5126" stroke="black" stroke-width="2.25" stroke-miterlimit="10" stroke-linecap="round"/>
</svg>
