<svg id="Layer_1" enable-background="new 0 0 512 512" viewBox="0 0 512 512" xmlns="http://www.w3.org/2000/svg"><path d="m487.13 306.81h-8.98c5.55-53.72-39.65-103.3-93.23-107.4-12.93-1.9-29.11 2.93-40.72-5.06 2.2-2.23 4.17-4.72 5.77-7.46.01 0 .01-.01.01-.01 10.27-17.52 4.86-39.88-13.42-43.55.3-2.65 4.2-4.32 5.37-4.09 6.72-.23 6.55-10.53-.31-10.36-2.11.06-7.46.71-11.62 5.32-1.33 1.48-2.25 3.11-2.89 4.78-9.16-4.13-19.6-.67-26.97 6.65 11.93-30.22-9.8-66.4-43.51-68.16-15.82-87.38-139.78-87.35-155.64.01-45.77 3.33-62.72 61.69-27.94 89.57l20.1 96.66c-5.4 6.86-7.63 17.06-5.23 25.61h-16.34c-16.76 0-30.8 12.01-33.4 28.56l-.36 2.27-18.92 119h-12.72c-2.86 0-5.18 2.32-5.18 5.18v9.56c-.02 16.24 13.4 29.4 29.63 29.12v11.87c0 2.86 2.32 5.18 5.18 5.18h203.21c2.78 0 5-2.19 5.13-4.94 6.57 3.18 13.85 4.92 21.24 4.92.1.02 61.59-.04 61.68.02h61.73c19.83 0 37.51-11.86 45.06-30.21 0 0 47.3-115.2 47.3-115.2 8.26.5 16.94-.68 22.98-7.06 14.9-14.58 3.85-41.16-17.01-40.78zm-186.42-141.88c3.18-11.33 11.74-19.05 21.11-16.96 3.81.98 5.89 4.68 9.83 5.1 13.35.45 16.72 15.99 9.39 28.58-12.51 23.32-47.88 8.55-40.33-16.72zm7.05 35.55c8.58 4.13 18.96 4.35 27.7.58 13.57 10.87 33.21 7.79 49.68 9.19 48.46 3.03 87.62 49.21 82.68 97.51-18.53-4.5-47.11-4.56-52.46 18.13-1.13 6.09.63 12.49-.84 18.5-1.47 6.02-8.98 11.3-13.67 7.25-4.25-3.67-3.47-12.74-9.06-13.27-6.58.01-6.54 8.37-5.6 13.16.7 6.78-.5 14.3-5.52 18.92-5.76 5.31-15.89 4.77-21.05-1.13-7.35-8.39-3.19-21.29-4.3-32.38-2.74-25.17-27.28-32.14-49.3-30.51-22.25.2-44.5.39-66.74.59-4.57.48-8.06-1.43-10.21-5.47-9.61-13-27.69-13.09-42.41-12.1 1.21-.11 5.9-9.92 6.82-11.12 9.12-11.83 24.61-16.54 33.02-29.06 6.92-10.3 7.11-23.6 11.33-35.27 7.61-21.06 29.82-35.88 52.19-34.83 2.52 9.2 9.16 17.18 17.74 21.31zm-23.46-31.67.35-1.65c2.38-1.95 4.55-4.06 6.5-6.32-.84 2.51-1.29 5.14-1.52 7.77-1.8-.01-3.57.07-5.33.2zm-203.24-8.58c-30.54-22.56-15.29-72.78 24.21-72.56 2.64 0 5.15-2.24 5.44-4.87 3.87-34.71 33.14-60.89 68.09-60.89 34.99 0 64.27 26.18 68.09 60.85.27 2.64 2.94 4.91 5.6 4.91 54.02 1.18 53.03 79.14.21 80.51-12.91.09-25.35-6.41-32.78-16.94-1.41-1.65-3.61-2.57-5.75-1.85-10.96 5.86-22.67 9.84-35.37 9.63-11.97 0-23.8-3.18-34.2-9.2-2.32-1.34-5.27-.69-6.82 1.48-12.37 18.13-39.4 22.34-56.72 8.93zm11.95 51.92-7.83-37.64c3.12 1.35 6.39 2.27 9.71 3.02l50 54.17c1.94 2.1 5.23 2.23 7.32.29 2.11-1.94 2.24-5.22.3-7.32l-42.77-46.34c7.8-.71 15.24-3.22 21.92-7.37l56.02 58.62c4.69 4.91 12.14-2.29 7.49-7.16 0 0-55.27-57.83-55.27-57.83 1.22-1.16 2.4-2.37 3.49-3.64 10.28 5.18 21.65 7.84 33.1 8.17l27.41 25.32c4.99 4.58 11.99-2.99 7.03-7.61 0 0-20.12-18.59-20.12-18.59 8.14-1.23 16.12-3.6 23.51-7.34 9.6 11.38 24.43 17.93 39.29 17.64-5.04.09-13.9 11.5-16.8 15.31-16.18 18.71-8.61 46.7-31.44 60.62-13.13 8.37-24.26 20.27-30.05 34.86h-36.98c3.67-9.97 1.7-24.03-8.92-29.03 12.91-13.38-6.63-17.55-12.75-5.3-4.79-1.61-9.98-1.03-14.53 1.04l-4.94-23.74 12.64 14.05c4.56 5.02 12.21-1.88 7.7-6.93 0 0-24.53-27.27-24.53-27.27zm31.12 80.72c-6.33 6.66-14.43 4.9-21.22.95-9.32-5.36-6.1-20.26.69-26.24 1.87-1.65 4.16-2.94 6.64-3.16 4.8-.2 7.56 4.23 12.41 4.47 10.81 2.71 7.67 17.99 1.48 23.98zm-52.55 6.82h21.96c10.21 10.33 28.5 11.36 38.33.02h71.34c10.06 0 18.99 6.63 22.25 16.08h-61.03c-9.55 0-17.32 7.77-17.32 17.31v20.69c-.24 12.75-19.16 12.74-19.39 0 0-2.86-2.32-5.18-5.18-5.18s-5.18 2.32-5.18 5.18v14.24c-.17 12.23-17.84 12.93-19.32.99 0 0-.04-29.48-.04-29.48 0-2.86-2.32-5.18-5.18-5.18s-5.18 2.32-5.18 5.18c.02 1.48-.43 3.3-1.16 4.61-4.39 8.27-17.26 5.69-18.19-3.61 0 0-.04-7.44-.04-7.44.05-10.21-8.86-18.08-18.94-17.31 3.1-9.53 11.94-16.1 22.27-16.1zm-24.22 26.45h3.57c3.83 0 6.95 3.12 6.95 6.95-.89 16.87 12.3 33.18 29.74 24-.72.4-.02 9.04.02 10.27.2 6.84 3.01 13.31 8.8 17.25 7.63 5.27 18.77 4.25 25.34-2.29.9-.88 7.52-10.06 5.69-11.12 12.75 7.74 30.41-2.37 30-17.42v-20.69c0-3.83 3.12-6.95 6.95-6.95h63.05c2.57 16.16 15.14 95.3 17.96 113h-216.03zm186.48 163.55h-192.85v-6.69h192.84c0 1.63.01 5.04.01 6.69zm-5.19-17.05c-50.6 0-101.2 0-151.8 0-15.58 0-31.16 0-46.74 0-12.64-.11-20.13-11.14-18.75-23.13h252.11c.22 23.09-15.88 24.65-34.82 23.13zm25.02-47.74 3.32 14.24h-1.06zm11.72 64.77c-6.55 0-16.24-1.65-21.11-6.46 2.63-1.13 6.48-.72 9.4-1.67 4.27-1.38 8.16-3.77 11.39-6.86 1.74 5.36 4.43 10.49 7.82 14.99zm56.48 0h-35.15c-7.48-7.12-13.48-17.3-13.96-27.8.14-6.07 5.52-23.3-5.12-22.72l-19.71-84.52h73.94zm-81.02-145.41-4.18-26.33c-.04-.26-.08-.52-.13-.77h85.07c14.53-.1 24.98 12.99 23.48 27.1zm121.32 145.43h-29.92c0-45.02 0-90.03 0-135.05 4.3 0 8.6.01 12.9.01-3.33 34.88 46.99 41.19 51.24 6.13 2.44 1.18 5.03 2.13 7.82 2.32l-24.16 103.59c-3.16 13.54-10.51 23-17.88 23zm62.1-23.79c-5.94 14.45-19.87 23.79-35.47 23.79h-7.95c7.56-9.68 9.59-22.01 12.33-33.64 6.01-25.7 11.98-51.4 17.98-77.1.55-2.37 2.05-17.11 4.27-18.33 2.55-1.59 4.86-3.48 6.6-5.98h47.92zm72.51-125.62c-4.41 5.15-13.13 3.9-19.1 4h-52.25c.02-.26 0-.53.03-.79v-14.77c0-6.4 5.24-11.54 11.51-11.55h50.16c11.75-.34 18.07 15.01 9.65 23.11zm-419.44-19.54c-2.32-6.45 4.49-9.39 11.47-7.57 6.84 2.58 10.69 9.07 4.97 12.95-2.47 1.33-5.66.41-7.01-2.14-.04-.07-.39-.71-1.11-.94-.7-.23-1.33.07-1.4.1-2.59 1.27-5.67.18-6.92-2.4zm58.84-9.16c.7-1.34 2.78-4.6 7.13-5.99 4.21-1.33 7.74.01 9.06.65 6.08 2.97 1.62 12.26-4.51 9.33-.07-.04-.71-.34-1.41-.11-.72.23-1.07.89-1.08.9-3.18 6.02-12.29 1.22-9.19-4.78zm-31.87 20.97c.69-1.34 2.78-4.62 7.14-6 4.18-1.34 7.73.01 9.05.65 6.08 2.97 1.62 12.26-4.51 9.33-.11-.06-.74-.31-1.4-.11-.72.23-1.07.86-1.08.89-3.19 5.95-12.26 1.23-9.2-4.76zm180.64-121.88c5.21 4.34-1.33 12.28-6.59 8.01-.79-.66-1.91-.83-2.83-.44-.98.4-1.64 1.36-1.71 2.43-.15 2.86-2.65 5.04-5.47 4.87-2.86-.17-5.04-2.62-4.87-5.48.3-10.44 13.6-16.31 21.47-9.39zm129.81 65.7c.29-5 3.45-9.47 8.06-11.39 5.82-3.17 19.23 1.35 14.12 9.29-1.82 2.21-5.08 2.52-7.3.71-.8-.67-1.9-.83-2.84-.44-.97.4-1.63 1.36-1.7 2.43-.43 6.77-10.72 6.16-10.34-.6zm-46.49-35.88c-5.1-7.95 8.3-12.46 14.12-9.29 6.62 1.92 12.73 15.59 2.88 16.87-2.72 0-5.01-2.13-5.17-4.88-.07-2.23-2.86-3.46-4.54-1.99-2.21 1.82-5.47 1.5-7.29-.71zm-58.2 26.27c-5.12-7.94 8.29-12.46 14.12-9.3 6.61 1.92 12.72 15.6 2.87 16.87-2.72 0-5.01-2.13-5.17-4.88-.07-2.23-2.84-3.45-4.53-1.99-2.2 1.83-5.47 1.5-7.29-.7zm-58.86 3.98c5.21 4.34-1.33 12.28-6.59 8.01-.8-.67-1.9-.83-2.84-.44-.97.4-1.63 1.36-1.7 2.43-.15 2.86-2.65 5.04-5.47 4.87-2.86-.17-5.04-2.62-4.87-5.48.29-10.44 13.59-16.31 21.47-9.39zm-130.21-186.78c3.28-29.46 28.13-51.68 57.8-51.68 2.86 0 5.18 2.32 5.18 5.18s-2.32 5.18-5.18 5.18c-24.38 0-44.79 18.26-47.49 42.46-.79 6.74-11.03 5.59-10.31-1.14z"/></svg>