<svg id="Outline" enable-background="new 0 0 64 64" viewBox="0 0 64 64" xmlns="http://www.w3.org/2000/svg"><g><path d="m30 29h-6.52374l1.28009-3.19824 2.56006-.85352c.52393-.17383.80713-.74023.63232-1.26465-.17432-.52344-.73975-.80859-1.26514-.63184l-3 1c-.27881.09277-.50293.30371-.61182.57715l-1.74926 4.3711h-4.32251c-.55225 0-1 .44727-1 1s.44775 1 1 1h3.52209l-1.21552 3.03735c-1.89893-1.04816-4.59503-1.30603-6.87592-.68378l-3.69335-4.02935c-.37256-.40625-1.00537-.43457-1.41309-.06152-.40723.37305-.43457 1.00586-.06152 1.41309l10.73731 11.71343v6.61078h-1c-.55225 0-1 .44727-1 1s.44775 1 1 1h4c.55225 0 1-.44727 1-1s-.44775-1-1-1h-1v-6.61078l10.7373-11.71344c.26758-.29199.33789-.71582.17822-1.07812-.15966-.36328-.51904-.59766-.91552-.59766zm-11.51758 6.85547c1.03967.62939 2.38202.99603 3.78735 1.09772l-3.26977 3.56732-4.99847-5.45319c1.59033-.19494 3.30377.08289 4.48089.78815zm5.65271-.93726c-1.00391.13318-2.04663.08643-2.97485-.13171l1.5155-3.7865h5.05078z"/><path d="m56.7373 30.67578c.26758-.29199.33789-.71582.17822-1.07812-.15966-.36328-.51904-.59766-.91552-.59766h-13.32251l-1.74927-4.37109c-.10889-.27344-.33301-.48438-.61182-.57715l-3-1c-.52637-.17676-1.09082.1084-1.26514.63184-.1748.52441.1084 1.09082.63232 1.26465l2.56006.85352 1.2801 3.19823h-6.52374c-.39648 0-.75586.23438-.91553.59766-.15967.3623-.08936.78613.17822 1.07812l10.73731 11.71344v6.61078h-1c-.55225 0-1 .44727-1 1s.44775 1 1 1h4c.55225 0 1-.44727 1-1s-.44775-1-1-1h-1v-6.61078zm-11.22363 5.18164c1.1795-.70587 2.89343-.98328 4.48389-.78918l-4.99756 5.45227-3.27002-3.5675c1.40491-.10206 2.7464-.46784 3.78369-1.09559zm8.21289-4.85742-2.15753 2.35382c-2.27869-.6203-4.97321-.36359-6.87555.68365l-1.21557-3.03747zm-12.40234 0 1.51526 3.78583c-.92822.2179-1.97156.26508-2.97467.13226l-3.59137-3.91809z"/><path d="m15 21c.55225 0 1-.44727 1-1v-1c0-.55273-.44775-1-1-1s-1 .44727-1 1v1c0 .55273.44775 1 1 1z"/><path d="m17 23h1c.55225 0 1-.44727 1-1s-.44775-1-1-1h-1c-.55225 0-1 .44727-1 1s.44775 1 1 1z"/><path d="m15 23c-.55225 0-1 .44727-1 1v1c0 .55273.44775 1 1 1s1-.44727 1-1v-1c0-.55273-.44775-1-1-1z"/><path d="m12 23h1c.55225 0 1-.44727 1-1s-.44775-1-1-1h-1c-.55225 0-1 .44727-1 1s.44775 1 1 1z"/><path d="m26 16c.55225 0 1-.44727 1-1v-1c0-.55273-.44775-1-1-1s-1 .44727-1 1v1c0 .55273.44775 1 1 1z"/><path d="m28 18h1c.55225 0 1-.44727 1-1s-.44775-1-1-1h-1c-.55225 0-1 .44727-1 1s.44775 1 1 1z"/><path d="m26 18c-.55225 0-1 .44727-1 1v1c0 .55273.44775 1 1 1s1-.44727 1-1v-1c0-.55273-.44775-1-1-1z"/><path d="m23 18h1c.55225 0 1-.44727 1-1s-.44775-1-1-1h-1c-.55225 0-1 .44727-1 1s.44775 1 1 1z"/><path d="m49 21c.55225 0 1-.44727 1-1v-1c0-.55273-.44775-1-1-1s-1 .44727-1 1v1c0 .55273.44775 1 1 1z"/><path d="m46 23h1c.55225 0 1-.44727 1-1s-.44775-1-1-1h-1c-.55225 0-1 .44727-1 1s.44775 1 1 1z"/><path d="m49 23c-.55225 0-1 .44727-1 1v1c0 .55273.44775 1 1 1s1-.44727 1-1v-1c0-.55273-.44775-1-1-1z"/><path d="m51 23h1c.55225 0 1-.44727 1-1s-.44775-1-1-1h-1c-.55225 0-1 .44727-1 1s.44775 1 1 1z"/><path d="m38 16c.55225 0 1-.44727 1-1v-1c0-.55273-.44775-1-1-1s-1 .44727-1 1v1c0 .55273.44775 1 1 1z"/><path d="m35 18h1c.55225 0 1-.44727 1-1s-.44775-1-1-1h-1c-.55225 0-1 .44727-1 1s.44775 1 1 1z"/><path d="m38 18c-.55225 0-1 .44727-1 1v1c0 .55273.44775 1 1 1s1-.44727 1-1v-1c0-.55273-.44775-1-1-1z"/><path d="m40 18h1c.55225 0 1-.44727 1-1s-.44775-1-1-1h-1c-.55225 0-1 .44727-1 1s.44775 1 1 1z"/><circle cx="13" cy="30" r="1"/></g></svg>