<svg width="30" height="33" viewBox="0 0 30 33" fill="none" xmlns="http://www.w3.org/2000/svg">
<path d="M13.5 18.75V1.5L1.5 18.75H13.5ZM10.5 15.75H7.245L10.5 11.07V15.75ZM28.5 18.75C28.5 8.25 18.75 0 15.75 0C16.7143 3.16141 17.2194 6.44494 17.25 9.75C17.2729 12.8141 16.7654 15.859 15.75 18.75H28.5ZM20.07 6.36C22.5826 8.97734 24.3487 12.2196 25.185 15.75H19.665C20.0486 13.7729 20.2445 11.764 20.25 9.75C20.25 8.565 20.175 7.425 20.07 6.36ZM30 21H0C0.447728 23.2285 1.69198 25.2175 3.5 26.595C4.46128 26.1755 5.31575 25.5449 6 24.75C6.5478 25.4225 7.23229 25.9709 8.0081 26.3588C8.78391 26.7467 9.63331 26.9653 10.5 27C11.3667 26.9653 12.2161 26.7467 12.9919 26.3588C13.7677 25.9709 14.4522 25.4225 15 24.75C15.5478 25.4225 16.2323 25.9709 17.0081 26.3588C17.7839 26.7467 18.6333 26.9653 19.5 27C20.3664 26.9636 21.2152 26.7443 21.9908 26.3566C22.7664 25.9688 23.4511 25.4213 24 24.75C24.6857 25.5455 25.5419 26.1761 26.505 26.595C28.3111 25.2166 29.5535 23.2277 30 21ZM30 33V30H28.5C26.8809 29.978 25.3085 29.4539 24 28.5C22.6921 29.4506 21.1168 29.9626 19.5 29.9626C17.8832 29.9626 16.3079 29.4506 15 28.5C13.6921 29.4506 12.1168 29.9626 10.5 29.9626C8.88317 29.9626 7.30787 29.4506 6 28.5C4.69258 29.456 3.11953 29.9803 1.5 30H0V33H1.5C3.06931 32.9977 4.61423 32.6115 6 31.875C7.38495 32.6136 8.93041 32.9999 10.5 32.9999C12.0696 32.9999 13.615 32.6136 15 31.875C16.385 32.6136 17.9304 32.9999 19.5 32.9999C21.0696 32.9999 22.615 32.6136 24 31.875C25.3858 32.6115 26.9307 32.9977 28.5 33H30Z" fill="black"/>
</svg>
