<svg clip-rule="evenodd" fill-rule="evenodd" stroke-linejoin="round" stroke-miterlimit="2" viewBox="0 0 267 267" xmlns="http://www.w3.org/2000/svg"><path d="m203.43 83.725c8.444 1.854 15.348 5.301 18.429 8.64 1.805 1.956 2.44 3.985 2.046 5.775-.393 1.791-1.819 3.367-4.278 4.386-4.196 1.741-11.909 1.977-20.353.122-8.444-1.854-15.348-5.301-18.429-8.64-1.805-1.956-2.439-3.985-2.046-5.775.393-1.791 1.819-3.367 4.278-4.386 4.197-1.741 11.91-1.977 20.353-.122zm-.894 4.069c-6.421-1.41-12.365-1.574-16.278-.607-1.091.27-2.003.618-2.668 1.083-.358.251-.645.508-.722.857-.076.349.077.702.297 1.08.409.701 1.09 1.399 1.968 2.101 3.147 2.518 8.613 4.86 15.035 6.271 6.422 1.41 12.366 1.574 16.278.607 1.091-.27 2.003-.618 2.668-1.083.358-.251.645-.508.722-.857.076-.349-.077-.702-.297-1.08-.408-.701-1.09-1.399-1.968-2.101-3.147-2.518-8.613-4.86-15.035-6.271z"/><path d="m223.538 99.074c-.677 2.736-3.354 9.1-3.883 16.091-.489 6.461.922 13.524 8.144 18.35 16.533 11.047 39.251 46.561 10.74 85.301-16.234 22.059-42.902 26.541-65.468 20.489-15.065-4.041-28.26-12.785-35.324-23.995-17.627-27.973-17.431-67.977 19.696-88.1 9.561-5.182 14.869-10.194 17.776-15.163 4.373-7.474 3.312-14.756 3.614-21.892.043-1.016.813-1.852 1.822-1.979s1.962.493 2.255 1.467c.357 1.187 1.639 2.346 3.419 3.537 3.257 2.18 8.176 4.155 13.839 5.399 5.959 1.308 11.508 1.539 15.415.795 2.007-.383 3.55-.886 4.15-1.878.532-.882 1.629-1.242 2.581-.847.951.394 1.472 1.425 1.224 2.425zm-5.592 4.025c-4.373 1.208-11.239 1.182-18.672-.451-6.253-1.373-11.666-3.599-15.263-6.006-.398-.266-.774-.536-1.131-.809-.097 5.999-.418 12.085-4.064 18.318-3.186 5.445-8.91 11.044-19.387 16.722-34.627 18.768-34.597 56.127-18.157 82.215 6.562 10.414 18.884 18.439 32.878 22.192 21.021 5.638 45.911 1.615 61.034-18.933 26.515-36.029 5.676-69.094-9.7-79.368-8.733-5.835-10.576-14.315-9.984-22.129.331-4.376 1.451-8.521 2.446-11.751z"/><path d="m242.304 183.557c-.565 9.21-3.869 19.275-11.463 29.594-13.684 18.594-36.272 22.023-55.294 16.921-12.608-3.381-23.801-10.476-29.713-19.859-8.924-14.161-12.593-32.039-7.368-47.729.005-.014.01-.028.015-.043 1.037-2.9 3.224-5.244 6.046-6.478 10.455-4.576 23.818-4.723 44.392 11.19 19.099 14.772 38.267 17.392 50.8 14.256.644-.161 1.326-.006 1.837.419.511.424.788 1.067.748 1.729zm-4.416 2.495c-13.359 2.338-32.499-.893-51.518-15.603-18.68-14.448-30.681-14.823-40.173-10.668-1.764.771-3.133 2.234-3.792 4.063-4.818 14.522-1.304 31.044 6.954 44.148 5.41 8.586 15.73 14.961 27.267 18.056 17.478 4.687 38.286 1.717 50.859-15.367 6.282-8.536 9.431-16.869 10.403-24.629z"/><path d="m226.867 151.444c3.83.135 7.322 2.23 9.246 5.545.005.009.01.017.015.026 4.1 7.305 6.796 16.417 6.176 26.542-.056.907-.693 1.674-1.574 1.894-13.395 3.352-33.947.786-54.36-15.002-7.553-5.842-14.035-9.402-19.725-11.287-.854-.283-1.43-1.082-1.428-1.981.001-.9.58-1.697 1.435-1.976 7.24-2.371 15.487-2.462 21.825.456 6.713 3.091 9.565 4.382 12.411 3.925 1.895-.304 3.741-1.354 6.691-2.928 7.02-3.745 13.421-5.24 19.223-5.215.022 0 .043 0 .065.001zm-.118 4.165c-5.199-.016-10.922 1.371-17.208 4.725-3.503 1.869-5.742 3.005-7.992 3.366-3.371.541-6.866-.594-14.815-4.254-3.677-1.693-8.101-2.159-12.494-1.657 4.444 2.163 9.312 5.212 14.679 9.364 18.349 14.191 36.761 17.167 49.293 14.598.218-8.623-2.179-16.384-5.709-22.681-1.2-2.061-3.371-3.367-5.754-3.461z"/><path d="m178.093 104.208c.878-4.751.545-9.428.74-14.053.043-1.016.813-1.852 1.822-1.979s1.962.493 2.255 1.467c.357 1.187 1.639 2.346 3.419 3.537 3.257 2.18 8.176 4.155 13.839 5.399 5.959 1.308 11.508 1.539 15.415.795 2.007-.383 3.55-.886 4.15-1.878.532-.882 1.629-1.242 2.581-.847.951.394 1.472 1.425 1.224 2.425-.564 2.281-2.498 7.064-3.451 12.637-.149.868-.826 1.549-1.693 1.701-11.124 1.957-26.14 1.382-39.373-7.07-.715-.457-1.082-1.301-.928-2.134zm39.847-1.107c-4.373 1.206-11.236 1.179-18.666-.453-6.253-1.373-11.666-3.599-15.263-6.006-.393-.263-.766-.53-1.119-.8-.033 2.549-.106 5.116-.47 7.704 11.386 6.792 24.046 7.463 33.833 5.994.481-2.366 1.104-4.558 1.685-6.439z"/><path d="m126.777 110.679c9.736.596 17.194 2.038 20.881 3.984 2.356 1.244 3.433 2.854 3.537 4.394.075 1.122-.315 2.299-1.324 3.433-.992 1.115-2.716 2.275-5.117 3.358-8.149 3.675-24.837 6.985-44.231 8.296s-36.376.276-44.945-2.269c-2.525-.751-4.39-1.667-5.523-2.639-1.152-.989-1.697-2.101-1.773-3.224-.076-1.122.315-2.298 1.324-3.432.991-1.116 2.716-2.275 5.117-3.358 8.148-3.676 24.836-6.986 44.231-8.296 5.819-.394 11.42-.578 16.637-.574.606 0 1.181.264 1.576.722.396.458.572 1.066.484 1.665-.275 1.868-.481 3.714-.409 5.237.024.498.077.955.18 1.352.064.246.09.478.251.593.157.112.37-.012.663-.092.9-.246 2.018-.858 3.438-1.86 2.344-1.654 3.167-3.217 2.837-4.782-.134-.636.037-1.298.462-1.79.425-.493 1.055-.758 1.704-.718zm2.003 4.314c-.32 2.097-1.633 4.284-4.604 6.381-2.392 1.688-4.241 2.461-5.603 2.655-1.406.2-2.485-.119-3.323-.719-1.077-.77-1.817-2.146-2.07-4.016-.182-1.344-.13-3 .047-4.764-4.443.045-9.141.225-13.992.553-18.759 1.268-34.917 4.382-42.799 7.937-1.479.667-2.638 1.331-3.403 2.017-.207.186-.379.366-.502.552-.036.054-.096.089-.092.142.004.054.068.08.11.129.147.168.341.324.572.48.851.577 2.088 1.078 3.644 1.54 8.288 2.463 24.718 3.375 43.477 2.107s34.917-4.382 42.798-7.937c1.48-.668 2.638-1.331 3.404-2.017.207-.186.379-.367.502-.553.035-.054.095-.088.091-.142-.011-.165-.207-.243-.383-.387-.565-.463-1.393-.87-2.433-1.26-3.39-1.271-8.756-2.183-15.441-2.698z"/><path d="m143.819 217.693c-.846 6.05-1.787 10.168-2.539 11.381-.514.828-1.477 1.675-2.906 2.409-2.483 1.276-6.634 2.388-11.642 3.252-11.221 1.937-26.874 2.744-36.839 2.17-4.656-.268-8.153-.918-9.662-1.762-.581-.326-1.332-1.067-2.069-2.317-1.166-1.975-2.616-5.543-4.22-10.233-8.831-25.813-23.054-86.69-25.384-95.422-.276-1.034.276-2.108 1.276-2.487 1.001-.378 2.125.063 2.602 1.021.205.412.727.708 1.4 1.055 1.055.545 2.459 1.026 4.157 1.458 8.643 2.201 24.392 2.976 42.249 1.769 18.613-1.258 34.665-4.335 42.617-7.856 1.506-.667 2.694-1.333 3.495-2.02.228-.195.417-.385.557-.58.054-.076.126-.131.126-.206 0-1.095.848-2.003 1.94-2.079 1.092-.075 2.056.708 2.207 1.792.167 1.208-.024 7.532-.513 16.605-.032.593-.316 1.144-.779 1.515-24.966 19.97-23.388 52.496-8.62 75.93.654 1.038 1.366 2.052 2.131 3.041.344.444.494 1.008.416 1.564zm-89.919-86.376c4.327 17.534 16.234 67.274 23.984 89.927 1.282 3.747 2.439 6.732 3.43 8.667.368.718.942 1.517 1.029 1.637 1.264.656 4.092.984 7.79 1.197 9.708.56 24.958-.229 35.891-2.116 3.886-.67 7.212-1.471 9.497-2.417 1.072-.443 1.893-.811 2.218-1.334.606-.978 1.166-4.203 1.834-8.905-.647-.871-1.256-1.759-1.826-2.663-15.695-24.905-17.209-59.35 8.813-80.814.209-3.927.367-7.271.459-9.805-.726.423-1.551.841-2.473 1.25-8.217 3.638-24.789 6.903-44.023 8.203-18.411 1.244-34.647.381-43.558-1.888-1.134-.288-2.158-.603-3.065-.939z"/><path d="m80.332 214.422c-.487-1.538-.118-3.22.967-4.413 4.296-4.721 8.997-8.512 15.335-7.439 3.189.54 6.406 1.574 9.806 2.328 4.664 1.035 9.711 1.518 15.622-1.034l.02-.008c1.094-.459 2.327-.465 3.425-.016 1.09.446 1.96 1.303 2.422 2.385 1.735 3.955 3.748 7.801 6.052 11.457.148.235.297.47.45.702.292.445.402.985.309 1.508-.193 1.081-.386 2.087-.548 2.896-.15.751-.701 1.36-1.434 1.584-1.755.536-4.824 1.411-7.491 1.872-10.624 1.833-25.444 2.602-34.878 2.058-1.314-.076-2.829-.261-3.991-.424-.719-.102-1.334-.57-1.622-1.237-.714-1.653-1.812-4.298-2.681-6.837-.567-1.658-1.156-3.459-1.763-5.382zm3.973-1.257c.596 1.89 1.175 3.661 1.733 5.29.659 1.928 1.458 3.92 2.103 5.45.811.1 1.69.191 2.488.237 9.177.529 23.594-.221 33.929-2.004 1.957-.338 4.145-.919 5.788-1.396.048-.251.097-.511.147-.78l-.037-.058c-2.415-3.833-4.526-7.864-6.345-12.01-.004-.01-.009-.02-.013-.031-.032-.075-.092-.135-.168-.166-.075-.031-.16-.031-.235.001-6.871 2.96-12.733 2.471-18.157 1.268-3.329-.738-6.477-1.759-9.6-2.287-4.865-.824-8.259 2.51-11.557 6.134-.086.095-.115.23-.076.352z"/><path d="m103.4 196.142c-1.511-.169-2.572-.728-3.317-1.482-1.482-1.499-1.762-4.165-.928-7.363.796-3.056 2.475-6.723 3.699-9.873.684-1.759 1.252-3.312 1.252-4.411 0-.889.564-1.68 1.405-1.97.84-.289 1.772-.014 2.32.687 0 0 4.795 6.153 6.862 11.993 1.228 3.472 1.399 6.852-.122 9.183-1.493 2.287-4.776 3.953-11.171 3.236zm.463-4.141c2.268.255 4.005.192 5.306-.17.906-.253 1.544-.638 1.913-1.203.383-.586.473-1.314.44-2.104-.046-1.068-.339-2.23-.757-3.411-.899-2.539-2.374-5.141-3.661-7.153-.115.319-.238.643-.366.973-1.168 3.007-2.791 6.499-3.551 9.414-.214.821-.358 1.585-.371 2.263-.008.43-.007.812.198 1.083.162.215.462.265.849.308z"/><path d="m117.767 101.304s4.702 2.323 7.885 5.715c2.25 2.398 3.675 5.32 3.047 8.315-.411 1.959-1.703 4.05-4.523 6.04-2.199 1.551-3.93 2.331-5.241 2.593-1.305.261-2.341.078-3.165-.341-1.297-.659-2.197-2.012-2.534-3.966-.412-2.393.015-5.925.566-9.269.478-2.903 1.061-5.642.966-7.081-.048-.743.303-1.455.921-1.868.619-.414 1.411-.466 2.078-.138zm.845 5.304c-.467 3.063-1.282 7.066-1.376 10.24-.028.937.007 1.785.184 2.47.064.25.075.493.247.599.178.11.413-.012.735-.106.891-.261 1.99-.867 3.372-1.842 1.683-1.188 2.602-2.321 2.847-3.491.357-1.7-.73-3.247-2.008-4.608-1.231-1.312-2.733-2.432-4.001-3.262z"/><path d="m112.284 89.12c.201.19.524.486.775.673.338.252.695.505 1.043.768 1.51 1.136 2.751 2.515 2.975 4.191.16 1.191-.113 2.624-1.412 4.306-2.249 2.912-4.078 3.821-5.581 4.005-1.146.14-2.203-.125-3.271-.588-1.384-.601-2.812-1.847-5.31-.852-5.837 2.328-11.962 1.437-17.747-.973-8.082-3.367-15.48-9.72-20.212-13.261-3.375-2.524-10.739-8.228-18.708-14.413-.48-.372-.774-.937-.803-1.544-.03-.607.207-1.197.649-1.615 3.313-3.133 7.308-8.178 11.041-14.287 2.488-4.071 4.269-7.978 5.469-11.293.218-.601.698-1.068 1.304-1.269.606-.2 1.271-.112 1.804.24 3.834 2.534 8.082 5.235 12.791 8.031 14.544 8.637 26.54 16.578 32.443 23.433 4.617 5.362 5.671 10.266 2.75 14.448zm-48.12-41.019c-1.215 2.952-2.821 6.224-4.885 9.602-3.338 5.462-6.887 10.111-10.025 13.428 7.212 5.595 13.686 10.603 16.786 12.922 4.531 3.39 11.579 9.526 19.318 12.751 4.763 1.984 9.796 2.865 14.602.949 3.328-1.327 5.545-.502 7.478.414.749.355 1.374.853 2.141.76.807-.099 1.581-.852 2.789-2.416.393-.509.642-.868.577-1.222-.065-.355-.378-.594-.675-.857-.526-.467-1.145-.883-1.702-1.299-1.529-1.141-2.542-2.455-2.59-3.828-.026-.75.173-1.581.823-2.477 2.007-2.768.644-5.873-2.425-9.437-5.705-6.626-17.355-14.222-31.413-22.569-3.903-2.318-7.494-4.572-10.799-6.721zm-30.371 16.304c-7.083-5.492-13.376-10.355-16.333-12.556-3.871-2.882-3.517-8.137-.486-13.403 2.711-4.711 7.401-9.416 11.38-11.784 2.007-1.194 3.891-1.796 5.346-1.759 1.746.044 3.873.754 6.427 2.126 3.337 1.793 7.556 4.75 12.912 8.487.827.577 1.122 1.663.701 2.579-1.9 4.128-4.023 8.683-6.435 12.462-3.14 4.919-7.322 9.931-10.701 13.611-.733.798-1.955.901-2.811.237zm1.026-4.476c2.969-3.337 6.353-7.508 8.974-11.614 2.009-3.148 3.801-6.864 5.432-10.38-4.516-3.151-8.141-5.661-11.071-7.235-1.826-.982-3.31-1.601-4.559-1.632-1.222-.031-2.833.882-4.581 2.149-3.094 2.242-6.396 5.775-8.429 9.308-1.027 1.784-1.74 3.552-1.827 5.134-.062 1.136.248 2.146 1.19 2.847 2.755 2.051 8.392 6.401 14.871 11.423z"/><path d="m104.715 81.573c1.584 3.647.461 6.695-1.345 8.923-1.66 2.048-3.925 3.33-4.831 3.692-5.013 1.998-10.267.048-15.057-2.539-6.072-3.279-11.456-7.911-15.143-10.67-.786-.588-1.194-1.43-1.097-2.547.084-.962.832-2.476 2.188-4.094 2.835-3.382 8.264-7.766 11.013-8.98 1.506-.665 2.69-.47 3.29-.114 8.098 4.809 14.602 9.85 17.995 12.941 1.766 1.608 2.756 2.855 2.987 3.388zm-33.003-3.264c3.514 2.706 8.343 6.754 13.749 9.674 3.692 1.994 7.671 3.875 11.534 2.334.593-.236 2.052-1.105 3.138-2.445.926-1.143 1.566-2.691.797-4.553-.126-.143-1.021-1.155-2.008-2.054-3.182-2.898-9.215-7.571-16.735-12.091-.394.188-1.113.547-1.686.922-2.53 1.656-5.908 4.569-7.878 6.919-.334.398-.672.911-.911 1.294z"/><path d="m43.793 48.315c3.564-5.584 6.455-12.929 8.956-17.869.385-.762 1.042-1.329 1.979-1.626 1.098-.347 2.85-.236 4.72.349 2.389.748 5.007 2.195 6.41 3.596.962.961 1.428 1.991 1.479 2.858.16 2.749-1.883 11.975-8.058 22.08-4.675 7.649-9.772 13.704-13.581 16.76-2.007 1.611-3.787 2.425-5.062 2.533-1.088.092-2.569-.245-4.097-.991-1.964-.96-4.05-2.574-5.381-4.327-1.974-2.598-2.328-5.46-.17-7.647 3.409-3.455 8.937-9.656 12.805-15.716zm19.39-12.272c-.109-.127-.425-.489-.687-.7-1.101-.888-2.767-1.72-4.293-2.198-.656-.205-1.555-.299-1.979-.334-2.498 5.028-5.396 12.225-8.919 17.746-4.035 6.322-9.795 12.796-13.351 16.4-.37.375-.251.844-.037 1.301.305.652.828 1.29 1.439 1.881 1.021.989 2.299 1.837 3.465 2.328.555.234 1.06.411 1.463.377.418-.035.907-.308 1.496-.681.851-.54 1.805-1.314 2.836-2.283 3.325-3.127 7.349-8.2 11.107-14.35 5.399-8.834 7.502-16.832 7.46-19.487z"/></svg>