<svg width="31" height="24" viewBox="0 0 31 24" fill="none" xmlns="http://www.w3.org/2000/svg">
<path d="M30.5227 18.4704L28.7886 6.13558C28.5718 4.60225 27.8159 3.19952 26.6596 2.18491C25.5033 1.17031 24.0242 0.611938 22.4939 0.612308H8.06966C6.53844 0.610646 5.05807 1.16844 3.90065 2.18315C2.74324 3.19787 1.98654 4.60134 1.76966 6.13558L0.0408725 18.4704C-0.0795991 19.3221 0.0678241 20.1907 0.462251 20.9529C0.856677 21.7151 1.4781 22.3324 2.23845 22.7172C2.99881 23.102 3.85953 23.2348 4.69863 23.0969C5.53773 22.9589 6.31266 22.5572 6.9136 21.9486L10.5091 18.3254H20.0545L23.6341 21.9486C24.2349 22.5619 25.0115 22.9678 25.8534 23.1084C26.6953 23.2491 27.5596 23.1174 28.3233 22.7321C29.087 22.3468 29.7112 21.7275 30.107 20.9624C30.5029 20.1972 30.6502 19.3252 30.528 18.4704H30.5227ZM27.1818 19.6298C27.0996 19.7275 26.9971 19.8056 26.8816 19.8585C26.766 19.9114 26.6404 19.9378 26.5136 19.9357C26.2812 19.9363 26.0581 19.8436 25.8931 19.6781L21.375 15.1049H9.1886L4.67042 19.6781C4.50542 19.8436 4.28231 19.9363 4.04996 19.9357C3.92318 19.9378 3.79752 19.9114 3.682 19.8585C3.56647 19.8056 3.46395 19.7275 3.38178 19.6298C3.29513 19.536 3.23094 19.4234 3.19416 19.3005C3.15738 19.1777 3.14899 19.0479 3.16966 18.9212L4.90905 6.58646C5.02896 5.82324 5.41231 5.12776 5.99098 4.62361C6.56966 4.11946 7.30617 3.83929 8.06966 3.83288H22.4939C23.2595 3.83656 23.9985 4.11808 24.5765 4.6263C25.1545 5.13453 25.5332 5.83574 25.6439 6.60256L27.3727 18.9373C27.3912 19.0599 27.3838 19.185 27.3508 19.3043C27.3179 19.4237 27.2603 19.5347 27.1818 19.6298Z" fill="black"/>
<path d="M10.5091 5.44316H8.91815V8.66373H5.73633V10.274H8.91815V13.4946H10.5091V10.274H13.6909V8.66373H10.5091V5.44316Z" fill="black"/>
<path d="M24.8272 11.8843C24.8272 12.2028 24.7339 12.5141 24.5591 12.7789C24.3843 13.0437 24.1358 13.2501 23.8451 13.372C23.5544 13.4939 23.2346 13.5258 22.926 13.4636C22.6173 13.4015 22.3339 13.2481 22.1114 13.0229C21.8889 12.7977 21.7374 12.5108 21.676 12.1985C21.6146 11.8861 21.6461 11.5623 21.7665 11.2681C21.8869 10.9738 22.0908 10.7223 22.3525 10.5454C22.6141 10.3685 22.9217 10.274 23.2363 10.274C23.6583 10.274 24.0629 10.4437 24.3613 10.7457C24.6596 11.0476 24.8272 11.4572 24.8272 11.8843Z" fill="black"/>
<path d="M21.6454 7.05344C21.6454 7.37193 21.5521 7.68326 21.3773 7.94807C21.2025 8.21288 20.954 8.41927 20.6633 8.54115C20.3726 8.66303 20.0527 8.69492 19.7441 8.63279C19.4355 8.57065 19.1521 8.41729 18.9296 8.19209C18.7071 7.96689 18.5555 7.67996 18.4942 7.3676C18.4328 7.05523 18.4643 6.73146 18.5847 6.43722C18.7051 6.14298 18.909 5.89148 19.1706 5.71454C19.4323 5.5376 19.7399 5.44316 20.0545 5.44316C20.4764 5.44316 20.8811 5.61282 21.1794 5.9148C21.4778 6.21679 21.6454 6.62637 21.6454 7.05344Z" fill="black"/>
</svg>
