<svg id="Capa_1" enable-background="new 0 0 512 512" height="512" viewBox="0 0 512 512" width="512" xmlns="http://www.w3.org/2000/svg"><g><path d="m484.366 391.934c-2.072-21.583-16.999-39.959-37.674-46.539v-3.814c36.105-17.399 55.157-38.976 55.157-62.588 0-8.619-2.618-17.053-7.73-25.133l-.081-53.124c-.038-27.205-19.098-44.784-48.557-44.784h-1.455c-6.988-12.413-18.795-21.773-32.872-25.543 5.214-8.221 8.355-17.191 8.355-25.543v-9.514c8.789-5.287 15.746-15.794 18.36-28.295 3.536-16.911-1.578-33.65-13.678-44.776-2.658-2.444-6.679-2.647-9.57-.484-12.22 9.144-24.716 7.016-37.946 4.762-12.85-2.188-27.292-4.648-37.663 7.227-28.463 2.916-28.462 30.16-28.462 39.355v31.726c0 7.875 2.797 16.299 7.485 24.127-26.188 3.175-46.604 25.247-47.079 52.097-5.405-.136-10.827-.218-16.267-.218-5.455 0-10.88.074-16.275.208-.666-25.957-19.957-47.368-45.012-51.387 6.493-9.035 10.331-20.089 10.331-32.028v-26.129c0-19.082-14.297-36.29-36.423-43.839-19.602-6.688-38.43-3.765-49.057 7.351-9.616 1.923-25.555 10.078-25.036 43.016.004.276.008 19.602.008 19.602 0 11.939 3.836 22.994 10.327 32.028-16.411 2.634-30.343 12.734-38.198 26.68h-1.457c-29.459 0-48.52 17.579-48.557 44.787l-.054 52.684c-5.114 8.059-7.757 16.489-7.757 25.148 0 22.364 17.764 43.357 50.508 60.238-18.078 9.053-30.685 27.662-30.685 48.467v3.873c-15.685 3.867-27.352 18.024-27.352 34.856v57.32c0 4.143 3.358 7.5 7.5 7.5s7.5-3.357 7.5-7.5v-57.32c0-11.528 9.412-20.907 20.98-20.907h66.887c4.142 0 7.5-3.357 7.5-7.5s-3.358-7.5-7.5-7.5h-60.514v-2.822c0-19.111 14.789-35.673 33.753-38.76 1.92 2.776 4.101 5.359 6.561 7.712 9.56 9.143 22.382 14.178 36.105 14.178 16.258 0 32.639-7.465 42.672-21.977 18.969 2.785 33.746 19.354 33.746 38.847v2.822h-57.864c-4.142 0-7.5 3.357-7.5 7.5s3.358 7.5 7.5 7.5h64.236c11.584 0 21.009 9.379 21.009 20.907v57.32c0 4.143 3.358 7.5 7.5 7.5s7.5-3.357 7.5-7.5v-36.308l36.857-.08v36.838c0 4.143 3.358 7.5 7.5 7.5s7.5-3.357 7.5-7.5v-57.32c0-11.544 9.412-20.936 20.98-20.936h165.582c11.584 0 21.009 9.392 21.009 20.936v57.32c0 4.143 3.358 7.5 7.5 7.5s7.5-3.357 7.5-7.5v-57.32c.001-16.937-11.805-31.166-27.633-34.944zm-5.328-191.175.055 36.136c-4.869-4.201-10.493-8.252-16.858-12.121-3.566-2.168-7.377-4.266-11.369-6.305v-36.425c0-3.743-.391-7.396-1.128-10.924 18.411 1.427 29.276 12.275 29.3 29.639zm-153.487-95.893v-7.328c6.504-1.236 13.069-4.688 19.287-13.539 18.65 10.348 43.681 12.623 59.671 13.692v7.175c0 12.671-12.964 31.623-30.322 38.023-3.498 1.294-6.407 1.896-9.157 1.896-2.772 0-5.677-.601-9.164-1.899-17.351-6.397-30.315-25.349-30.315-38.02zm17.522-56.32c2.402-.066 4.627-1.279 5.983-3.263 4.598-6.723 10.535-6.42 25.1-3.938 12.722 2.167 28.21 4.807 43.715-3.812 7.584 10.052 6.341 21.546 5.315 26.454-1.843 8.815-6.838 16.408-12.402 19.078-.537-.035-1.088-.07-1.658-.106-15.917-1.016-45.544-2.904-62.207-15.422-1.758-1.321-4.006-1.803-6.152-1.32-2.145.482-3.97 1.883-4.993 3.829-3.753 7.146-7.096 10.395-10.224 11.875v-8.781c.001-20.165 6.426-24.287 17.523-24.594zm-220.318.987c2.085-.184 4-1.23 5.28-2.888 5.937-7.688 20.095-9.642 34.431-4.751 12.117 4.134 26.267 14.378 26.267 29.643v15.142h-4.372c-11.133 0-20.02-4.31-28.614-8.477-7.331-3.555-14.82-7.188-22.735-7.188-4.415 0-8.964 1.131-13.689 4.037-6.761 4.163-8.088 5.08-11.098 7.44 0 0-.004-4.291-.01-4.664-.282-17.902 4.61-27.423 14.54-28.294zm65.776 52.146c-2.027 20.244-19.221 36.104-40.066 36.104-20.96 0-38.219-16.061-40.068-36.485 4.208-3.161 6.59-5.039 8.272-6.364 3.179-2.506 3.667-2.892 10.515-7.108 5.924-3.644 11.326-1.313 22.019 3.872 9.169 4.446 20.581 9.98 35.159 9.98h4.169zm-115.019 80.786c0-21.205 17.305-38.457 38.576-38.457h6.529c8.615 5.543 18.857 8.775 29.848 8.775 10.996 0 21.244-3.232 29.863-8.775h6.541c20.99 0 38.106 16.801 38.555 37.62-53.091 2.571-102.25 11.67-140.855 26.266-3.111 1.176-6.128 2.382-9.058 3.614v-29.043zm-43.172 18.715c.024-17.366 10.893-28.216 29.311-29.64-.738 3.529-1.139 7.18-1.139 10.925v36.001c-11.171 5.715-20.604 11.9-28.209 18.453zm88.432 154.648c-11.598 0-23.756-5.294-30.972-16.524 9.858 1.928 20.158 2.913 30.524 2.913 10.59 0 21.228-1.031 31.505-3.043-7.206 11.32-19.414 16.654-31.057 16.654zm37.477-40.89c0 2.634-.171 5.134-.495 7.501-23.582 6.242-51.108 6.276-73.949.088-.333-2.394-.51-4.922-.51-7.59v-15.301c0-.23-.004-.535-.009-.908-.181-12.612 1.993-27.872 13.376-28.947 2.167-.205 4.138-1.341 5.402-3.113 4.47-6.27 12.355-7.368 17.325-7.368.396 0 .775.007 1.131.02.166.007.333.007.498 0 12.722-.414 22.799 2.623 29.177 8.794 5.344 5.171 8.053 12.493 8.053 21.764v25.06zm145.802 76.994c-15.821 3.775-27.622 18.006-27.622 34.946v5.482l-36.857.08v-6.012c0-16.834-11.68-30.993-27.381-34.858v-3.871c0-4.171-.488-8.275-1.414-12.255 14.965 1.085 30.354 1.642 45.913 1.642 17.597 0 35.016-.713 51.982-2.114-2.445 5.299-4.03 11.016-4.621 16.96zm15.246-.99c2.106-12.68 10.602-23.652 22.428-29.238.297 10.863 2.604 20.737 6.783 29.238zm114.405-92.228c-.005.379-.01.689-.01.923v63.199c0 11.084-2.777 20.719-8.05 28.106h-59.621c-6.115-8.13-9.341-18.988-9.341-31.65v-66.968c0-16.322 14.338-26.798 26.616-30.809 11.023-3.601 24.962-3.381 31.257 5.227 1.27 1.735 3.223 2.843 5.364 3.04 11.735 1.085 13.973 16.332 13.785 28.932zm-9.138-43.385c-9.959-10.875-27.559-14.073-45.926-8.072-22.451 7.334-36.958 25.024-36.958 45.067v53.276c-8.292 2.739-15.656 7.338-21.64 13.234-20.476 2.15-41.768 3.251-63.351 3.251-17.778 0-35.319-.742-52.223-2.187-2.149-3.566-4.717-6.915-7.695-9.972-7.343-7.538-16.511-12.694-26.509-15.045 1.909-5.939 2.987-12.583 2.987-19.945v-25.061c0-13.3-4.365-24.553-12.623-32.543-9.323-9.021-23.108-13.515-39.857-13.015-11.89-.32-22.179 3.644-28.826 11.032-10.28 2.186-24.121 11.141-23.656 43.592l.008 15.994c0 4.231.351 8.3 1.039 12.184-28.682-14.247-44.805-31.365-44.805-48.128 0-20.567 23.818-41.368 65.346-57.069 44.434-16.8 103.677-26.052 166.814-26.052 24.887 0 49.458 1.458 73.028 4.333 4.119.494 7.852-2.426 8.353-6.537.501-4.112-2.425-7.852-6.537-8.354-14.226-1.735-28.808-2.952-43.591-3.672.217-21.021 17.442-38.057 38.594-38.057h5.222c6.131 5.833 13.307 10.568 20.895 13.366 5.191 1.934 9.76 2.834 14.376 2.834 4.582 0 9.146-.898 14.354-2.825 7.546-2.783 14.684-7.474 20.792-13.256 19.927 1.478 35.691 18.102 35.691 38.338v29.474c-19.879-8.36-43.55-15.313-69.964-20.465-4.06-.79-8.004 1.859-8.797 5.926-.793 4.065 1.86 8.004 5.926 8.797 75.217 14.67 123.818 43.409 123.818 73.219 0 15.929-14.162 31.96-40.157 45.779v-25.136c0-.177.004-.411.008-.698.487-32.558-13.674-41.462-24.136-43.607zm18.336 135.613c3.808-8.238 5.792-17.737 5.792-28.106v-1.386c11.853 5.467 20.357 16.54 22.43 29.492z"/></g></svg>