<svg id="Layer_1" viewBox="0 0 64 64" xmlns="http://www.w3.org/2000/svg"><g fill="rgb(0,0,0)"><path d="m57.035 1.745c-.034-.273-.281-.475-.557-.435l-52.479 6.461c-.132.016-.252.084-.333.188-.082.105-.118.238-.102.37l.061.488h-2.625c-.276 0-.5.224-.5.5v52.876c0 .02.008.038.011.057.003.025.007.047.013.071.013.049.034.094.061.136.008.012.009.028.018.039.003.004.009.006.012.01.043.053.095.097.156.128.016.008.033.01.049.016.037.015.073.032.114.037.014.002.027-.002.041-.001.009 0 .017.006.026.006h52.874c.037 0 .074-.004.112-.013.037-.009.07-.027.103-.043.012-.006.024-.008.035-.015.065-.038.118-.09.159-.151.004-.005.01-.008.014-.013.005-.009.004-.019.009-.028.031-.056.051-.117.058-.183.001-.013.006-.024.006-.037 0-.006.003-.011.003-.017v-6.341l8.686-1.071c.274-.033.469-.283.435-.558zm-52.854 8.073s.007.002.011.002h49.183v50.191l-4.039-8.352c-1.667-3.429-5.196-5.644-8.99-5.644-.447 0-.88.034-1.308.09-.052.007-.106.011-.159.019-.036.005-.073.007-.11.013.005-.01.009-.021.014-.031.022-.041.036-.085.057-.126.154-.306.285-.621.398-.943.04-.113.073-.228.107-.343.081-.27.147-.543.2-.821.022-.115.046-.228.063-.344.056-.386.092-.776.092-1.173 0-4.521-3.678-8.198-8.199-8.198-.27 0-.537.014-.801.039-.09.008-.176.025-.265.036-.172.022-.344.043-.513.076-.103.02-.203.047-.305.07-.15.035-.301.069-.448.111-.106.031-.209.068-.313.102-.138.046-.275.092-.409.145-.105.042-.207.088-.31.133-.128.057-.255.115-.379.178-.101.051-.2.106-.299.161-.12.067-.239.137-.355.21-.096.06-.19.123-.283.187-.113.078-.223.158-.332.241-.09.069-.178.138-.265.211-.105.088-.206.179-.307.271-.082.076-.164.152-.243.231-.098.098-.191.2-.283.303-.074.082-.148.163-.218.248-.09.109-.175.223-.26.337-.064.086-.13.17-.19.258-.085.124-.162.254-.241.383-.051.085-.106.167-.154.253-.084.152-.16.31-.234.467-.033.07-.071.137-.102.208-.102.231-.193.467-.274.709-.015.045-.025.093-.039.138-.062.199-.12.399-.168.605-.02.089-.033.18-.051.27-.028.143-.06.284-.081.429l-6.393-5.104c-1.704-1.364-3.96-1.777-6.042-1.103-2.084.678-3.673 2.344-4.25 4.457l-5.194 19.044v-48.644zm32.537 36.887c-.018.006-.035.014-.052.021-2.649.997-5.77.442-8.145-1.453l-4.199-3.353c.005-.086.011-.171.019-.255.01-.114.021-.228.036-.34.017-.123.04-.244.064-.364.021-.109.041-.219.067-.327.029-.119.063-.235.097-.351.031-.105.061-.211.097-.314.039-.114.085-.225.13-.336.04-.1.08-.202.124-.3.049-.108.105-.213.16-.318.05-.096.098-.192.151-.285.059-.102.124-.2.188-.299.058-.09.114-.181.176-.268.068-.095.142-.186.214-.278.066-.084.131-.17.201-.25.076-.088.159-.171.239-.256.074-.077.145-.156.222-.23.085-.081.175-.156.264-.233.08-.07.159-.142.242-.208.093-.074.192-.141.289-.21.085-.061.169-.125.257-.182.102-.066.209-.125.314-.185.09-.052.177-.107.27-.155.109-.057.224-.106.336-.157.094-.043.185-.09.281-.128.119-.048.242-.087.364-.129.095-.033.188-.07.284-.099.133-.04.27-.069.405-.101.09-.021.178-.048.27-.066.154-.03.312-.049.469-.069.078-.01.153-.026.231-.033.237-.023.478-.035.721-.035 3.969 0 7.199 3.229 7.199 7.198 0 .379-.031.752-.088 1.119-.02.125-.06.244-.086.368-.051.239-.098.478-.172.71-.045.14-.112.273-.166.41-.081.206-.157.413-.258.611-.071.14-.163.271-.244.407-.098.164-.193.329-.305.486-.221.072-.443.15-.665.236zm-35.063 14.988 6.008-22.009c.488-1.787 1.832-3.196 3.595-3.77 1.758-.569 3.667-.222 5.109.933l7.126 5.689 4.405 3.517c.295.235.603.445.917.643.079.05.158.098.238.146.312.185.629.357.955.505.006.003.011.006.017.009.333.15.673.274 1.017.386.084.027.169.053.254.078.336.099.674.185 1.015.246.011.002.021.005.031.007.351.062.705.096 1.058.118.086.005.171.009.258.011.096.003.193.013.289.013.246 0 .492-.012.737-.032.011 0 .022 0 .034-.001.349-.03.694-.088 1.037-.159.085-.018.168-.037.252-.057.342-.082.681-.178 1.012-.303.013-.005.026-.011.039-.017l.026-.009c.256-.102.513-.189.769-.268.811-.236 1.627-.352 2.494-.352 3.414 0 6.59 1.994 8.09 5.08l4.641 9.598h-51.423zm52.724-6.849v-45.524c0-.207-.126-.385-.305-.461-.061-.026-.127-.041-.198-.041h-49.243l-.014-.116 51.485-6.338 6.339 51.486z"/><path d="m32.542 32.07c.276 0 .5-.224.5-.5v-2.962c0-.276-.224-.5-.5-.5s-.5.224-.5.5v2.962c0 .276.224.5.5.5z"/><path d="m38.407 34.832c.108 0 .218-.035.31-.108l2.391-1.895c.216-.171.253-.485.082-.702-.172-.218-.486-.255-.703-.081l-2.391 1.895c-.216.171-.253.485-.082.702.099.125.245.189.393.189z"/><path d="m41.236 39.913c.059.226.262.374.483.374.042 0 .084-.005.127-.017l2.952-.771c.267-.069.427-.343.357-.609-.07-.269-.342-.432-.61-.357l-2.952.771c-.267.069-.427.343-.357.609z"/><path d="m25.099 33.549c.092.073.202.108.31.108.147 0 .294-.065.393-.189.171-.217.135-.531-.082-.702l-2.392-1.895c-.216-.172-.531-.134-.703.081-.171.217-.135.531.082.702z"/></g></svg>