<svg xmlns="http://www.w3.org/2000/svg" width="593.393" height="397.12" viewBox="0 0 593.393 397.12">
  <g id="Group_2657" data-name="Group 2657" transform="translate(-19562.619 9734)">
    <g id="_0" data-name="0" transform="translate(19745.211 -9792.42)">
      <path id="Path_2233" data-name="Path 2233" d="M267.84,455.54c-50.97,0-87.29-15.31-110.99-46.8-37.72-27.95-56.06-80.64-56.06-161.04,0-156.44,77.19-189.28,141.95-189.28,47.11,0,83.6,16.32,108.46,48.5,39.55,30.33,59.6,85.62,59.6,164.37,0,60.44-12.19,106.74-36.24,137.63-24.08,30.93-59.98,46.62-106.72,46.62ZM242.74,68.42c-41.6,0-73.87,14.04-95.91,41.73-23.92,30.06-36.04,76.33-36.04,137.55,0,77.41,17.2,127.59,52.57,153.41l.61.45.45.61c21.67,29.18,55.5,43.37,103.42,43.37,88.23,0,132.96-58.63,132.96-174.25,0-75.81-18.9-128.57-56.17-156.81l-.54-.41-.41-.54c-22.9-29.93-56.85-45.11-100.94-45.11Z"/>
      <path id="Path_2234" data-name="Path 2234" d="M245.76,433.45c-49.49,0-85.09-14.36-108.81-43.91-24.33-30.3-36.16-76.7-36.16-141.84,0-156.44,77.19-189.28,141.95-189.28,44.98,0,80.33,14.89,105.09,44.26,27.13,32.19,40.89,81.49,40.89,146.53,0,60.44-12.19,106.75-36.24,137.63-24.08,30.93-59.99,46.61-106.72,46.61ZM242.74,68.42c-41.6,0-73.87,14.04-95.91,41.73-23.92,30.06-36.04,76.33-36.04,137.55,0,62.78,11.11,107.13,33.95,135.58,21.71,27.03,54.75,40.17,101.02,40.17,88.22,0,132.96-58.63,132.96-174.25,0-62.62-12.96-109.75-38.54-140.08-22.77-27.01-55.55-40.7-97.44-40.7Z"/>
    </g>
    <g id="_3" data-name="3" transform="translate(19448.35 -9792.67)">
      <path id="Path_2235" data-name="Path 2235" d="M263.75,455.28c-75.76,0-115.49-35.77-125.94-46.83l-18.38-18.38c-1.36-1.3-2.63-2.56-3.75-3.76l-.96-1.02-.29-1.37c-.49-2.27-.16-5.84,5.5-16.46a262.578,262.578,0,0,1,13.94-22.77c8.03-11.83,23.04-32.3,33.44-36.45l3.06-1.22,2.33,2.33c4.85,4.85,23.15,20.69,54.87,20.69,22.91,0,27.92-11.96,28.97-18.16a81.1,81.1,0,0,0-13.93-1.11c-3.17,0-10.8.12-18.18.24-7.84.13-15.95.26-19.58.26h-2.07L178.8,287.23c-4.15-5.43-5.62-23.23-6.11-37.21-.51-14.19-.19-33.28,2.2-44.3,1.22-5.61,2.87-8.61,5.53-10.02l1.1-.59h1.25c2.9,0,7.17.09,11.94.22a228.4,228.4,0,0,1-16.34-17.59c-7.03-4.07-22-20.97-51.84-58.43-1.93-2.42-3.48-4.37-4.54-5.68l-2.7-3.33,2.89-3.17c18.91-20.8,52.04-48.46,121.01-48.46,46.42,0,84.99,16.86,105.99,46.28,25.42,18.43,39.41,46.26,39.41,78.47,0,42.76-23.09,67.25-35.34,77.23a81.923,81.923,0,0,1,7.73,9.75c11.7,7.89,36.67,29.62,36.67,71.12,0,35.7-14.15,65.35-40.93,85.73-23.74,18.08-56.76,28.03-92.97,28.03ZM124.59,381.14c.57.57,1.16,1.15,1.78,1.74l.09.09,18.57,18.58c9.68,10.26,46.83,43.74,118.71,43.74,57.15,0,123.9-27.17,123.9-103.75,0-37.67-23.08-56.83-33-63.33l-.86-.57-.57-.86a72.931,72.931,0,0,0-10.97-13.02l-4.51-4.24,5.09-3.52c8.39-5.79,35.76-28.15,35.76-72.57,0-29.61-12.42-54.1-35.91-70.83l-.7-.5-.49-.71c-18.99-27.15-54.81-42.72-98.29-42.72-61.59,0-92.62,23.14-110.71,42.07.58.72,1.2,1.51,1.87,2.35,28.04,35.19,44.54,54.04,49.03,56.01l1.15.46.79.93c10.68,12.46,15.9,17.44,18.32,19.42,10.39-8.61,29.36-17.02,45.51-17.02a61.676,61.676,0,0,1,10.48.86l4.1.71.04,4.04c.01.16.02.31.02.47,0,17.26-13.75,27.15-37.73,27.15-4.54,0-12.67-.24-21.26-.5-7.13-.21-14.47-.43-19.46-.49-1.48,4.29-3.11,17.19-2.84,37.4.29,22.02,2.6,35.74,4.14,38.47l20.26,20.26c4.1-.03,10.82-.14,17.36-.25,7.76-.13,15.09-.25,18.34-.25a84.89,84.89,0,0,1,20.35,2.25l3.63.91.17,3.93c.03.33.05.66.05,1,0,11.58-8.26,31.18-39.24,31.18-31.09,0-50.92-13.82-59.12-20.99-4.92,3.57-13.59,12.76-25.25,29.72-10.48,15.27-17.09,27.77-18.6,32.38Zm87.71-185.3c5.58.16,10.66.28,13.75.28,11.33,0,24.61-2.39,27.26-13.08-1.35-.1-2.75-.15-4.17-.15C235.8,182.89,220.95,189.58,212.3,195.84Z"/>
      <path id="Path_2236" data-name="Path 2236" d="M241.67,433.2c-75.88,0-115.62-35.88-125.99-46.88l-.96-1.02-.29-1.37c-.49-2.27-.16-5.84,5.5-16.46a262.578,262.578,0,0,1,13.94-22.77c8.03-11.83,23.04-32.3,33.44-36.45l3.06-1.22,2.33,2.33c4.85,4.85,23.15,20.69,54.87,20.69,27.83,0,29.24-17.64,29.24-21.18,0-18.21-25.38-20.17-36.29-20.17-3.17,0-10.8.12-18.18.24-7.84.13-15.95.26-19.58.26h-2.47l-1.5-1.96c-4.15-5.43-5.62-23.23-6.11-37.21-.51-14.19-.19-33.28,2.2-44.3,1.22-5.61,2.87-8.61,5.53-10.02l1.1-.59h1.25c4.92,0,13.77.26,22.33.52,8.15.24,16.57.49,20.97.49,12.65,0,27.73-2.98,27.73-17.15,0-16.39-18.69-18.16-26.72-18.16-16.06,0-34.29,9.67-41.28,16.66l-1.61,1.61-2.28-.16c-5.54-.39-15.63-9.72-55.38-59.61-1.92-2.42-3.48-4.37-4.54-5.67l-2.7-3.33,2.89-3.17c18.91-20.8,52.04-48.46,121.01-48.46,73.76,0,123.32,41.26,123.32,102.67,0,39.44-20.1,66.96-39.57,80.51,8.17,3.33,18.14,9.8,26.82,19.35,9.95,10.96,21.82,29.96,21.82,58.24,0,35.7-14.15,65.35-40.93,85.73-23.75,18.06-56.76,28.01-92.97,28.01ZM124.59,381.14c11.8,11.8,48.75,42.06,117.08,42.06,57.15,0,123.9-27.17,123.9-103.75,0-46.78-35.84-68.03-48.19-70.09l-4.18-.7V238.44l2.6-1.42c4.17-2.29,40.71-23.82,40.71-75.67,0-55.43-45.54-92.67-113.32-92.67-61.59,0-92.62,23.14-110.71,42.07.58.72,1.2,1.5,1.87,2.34,25.02,31.4,40.85,49.79,47.17,54.79,10.38-8.63,29.38-17.06,45.57-17.06,22.65,0,36.72,10.79,36.72,28.16,0,17.26-13.75,27.15-37.73,27.15-4.54,0-12.67-.24-21.26-.5-7.13-.21-14.47-.43-19.46-.49-1.48,4.29-3.11,17.19-2.84,37.4.25,18.88,1.98,31.66,3.45,36.64,4.14-.04,10.27-.14,16.24-.24,7.76-.13,15.09-.25,18.34-.25,28.98,0,46.29,11.28,46.29,30.17,0,11.58-8.26,31.18-39.24,31.18-31.09,0-50.92-13.81-59.12-20.99-4.92,3.57-13.59,12.76-25.25,29.72-10.52,15.27-17.13,27.77-18.64,32.37Z"/>
    </g>
  </g>
</svg>
