<svg width="36" height="40" viewBox="0 0 36 40" fill="none" xmlns="http://www.w3.org/2000/svg">
<path d="M18.8149 40C14.5852 40 10.4788 38.5573 7.15859 35.905C3.83837 33.2526 1.49795 29.5452 0.515063 25.3812C-0.467828 21.2171 -0.0358559 16.8393 1.74126 12.9543C3.51839 9.06926 6.53698 5.90364 10.3099 3.96832C10.6289 3.8042 10.9887 3.73882 11.3442 3.78034C11.6998 3.82186 12.0354 3.96845 12.3091 4.2018C12.5829 4.43515 12.7827 4.74493 12.8836 5.09249C12.9845 5.44006 12.9821 5.81 12.8766 6.15616C11.9917 9.04883 11.9046 12.1313 12.6249 15.0704C13.3451 18.0095 14.8452 20.6935 16.9631 22.8323C18.4829 24.382 20.2914 25.6112 22.2838 26.4487C24.2762 27.2862 26.413 27.7154 28.5703 27.7114C30.2207 27.7128 31.8619 27.4624 33.4385 26.9685C33.7808 26.8618 34.1465 26.8595 34.4901 26.962C34.8336 27.0644 35.1397 27.2671 35.3701 27.5446C35.6005 27.8221 35.7449 28.1622 35.7855 28.5224C35.826 28.8826 35.7608 29.2468 35.5979 29.5697C34.0258 32.7081 31.6252 35.3442 28.6626 37.1854C25.7 39.0266 22.2913 40.0009 18.8149 40ZM10.242 6.77129C8.1239 8.08456 6.32757 9.86686 4.98812 11.9842C3.64868 14.1014 2.80099 16.4986 2.50882 18.9953C2.21665 21.492 2.48761 24.0233 3.30131 26.3987C4.11501 28.7741 5.45027 30.9319 7.20666 32.7096C8.96304 34.4874 11.0948 35.8389 13.4417 36.6625C15.7885 37.4862 18.2893 37.7604 20.756 37.4647C23.2227 37.169 25.591 36.3109 27.6828 34.9552C29.7746 33.5994 31.5354 31.7812 32.8329 29.6373C31.4358 29.9646 30.0065 30.1296 28.5725 30.129C26.102 30.1343 23.6551 29.6436 21.3733 28.6854C19.0914 27.7272 17.02 26.3205 15.2788 24.5467C13.0159 22.2616 11.3658 19.4303 10.4845 16.3203C9.60321 13.2102 9.51974 9.92413 10.242 6.77236V6.77129Z" fill="black"/>
<path d="M17.2176 6.11908C17.9883 6.09161 18.746 5.91016 19.4471 5.58516C20.1483 5.26017 20.779 4.79804 21.303 4.22538C21.8459 3.669 22.2739 3.0089 22.5624 2.2835C22.8508 1.55809 22.9938 0.781869 22.983 0C22.9723 0.781869 23.1153 1.55809 23.4037 2.2835C23.6921 3.0089 24.1202 3.669 24.663 4.22538C25.7283 5.37984 27.2016 6.06065 28.7612 6.11908C27.7273 6.15995 26.7221 6.47539 25.8467 7.03372C24.9745 7.58506 24.2537 8.35008 23.7509 9.25806C23.2428 10.1759 22.9796 11.2118 22.9873 12.2639C22.9981 11.4801 22.8551 10.7019 22.5668 9.97444C22.2784 9.24693 21.8503 8.58456 21.3073 8.02565C20.7852 7.44846 20.1545 6.98253 19.4523 6.65514C18.75 6.32776 17.9903 6.14551 17.2176 6.11908ZM24.6249 18.9198C25.7941 18.8661 26.8978 18.3581 27.7063 17.5014C28.5147 16.6448 28.9655 15.5055 28.9649 14.3208C28.9644 15.504 29.4141 16.6419 30.2207 17.4983C31.0273 18.3547 32.1287 18.8637 33.2964 18.9198C32.1295 18.9769 31.0291 19.4864 30.2234 20.3427C29.4177 21.1989 28.9686 22.3363 28.9691 23.5187C28.9781 22.9303 28.8713 22.3459 28.655 21.7996C28.4386 21.2534 28.1171 20.7561 27.7091 20.3368C26.9075 19.4739 25.8027 18.9649 24.6333 18.9198H24.6249Z" fill="black"/>
</svg>
