<svg enable-background="new 0 0 32 32" height="512" viewBox="0 0 32 32" width="512" xmlns="http://www.w3.org/2000/svg"><g id="Layer_4" fill="rgb(0,0,0)"><path d="m30.02 15.721c-.355-.343-.881-.444-1.341-.258-2.358.961-5.817.186-8.603-1.932-2.821-2.142-4.495-5.286-4.164-7.825.062-.497-.172-.983-.596-1.238-.401-.242-.888-.224-1.273.046-1.356.965-2.45 2.203-3.252 3.677-1.661 3.064-1.673 6.858-.068 9.975-.405.496-.702 1.055-.867 1.666-2.402.219-4.283 1.878-4.283 3.91 0 2.18 2.157 3.954 4.809 3.954h10.652c2.651 0 4.809-1.774 4.809-3.954 0-.423-.1-.824-.249-1.206 1.239-.713 2.311-1.644 3.174-2.789.643-.842 1.158-1.779 1.534-2.788.162-.438.053-.913-.282-1.238zm-8.986 11.226h-10.652c-2.238 0-4.059-1.438-4.059-3.204s1.821-3.204 4.059-3.204c1.529 0 2.915.67 3.615 1.749.112.174.345.224.519.11.174-.113.223-.345.11-.519-.795-1.225-2.304-2-3.978-2.076.616-1.802 2.647-3.075 5.054-3.075 2.562 0 4.797 1.51 5.208 3.55.088.284.095.711.02 1.174-.033.205.105.397.311.43.02.003.04.005.06.005.181 0 .34-.131.37-.315.037-.229.075-.603.049-.974 1.922.259 3.373 1.567 3.373 3.145 0 1.766-1.821 3.204-4.059 3.204zm8.565-10.248c-.35.938-.83 1.811-1.429 2.595-.796 1.057-1.783 1.915-2.921 2.576-.732-1.114-2.084-1.902-3.697-2.044-.608-2.241-3.004-3.848-5.85-3.848-1.748 0-3.322.616-4.426 1.604-1.371-2.852-1.327-6.264.174-9.033.747-1.374 1.766-2.525 3.025-3.422.194-.136.368-.069.454-.017.129.078.27.257.239.501-.37 2.838 1.379 6.182 4.455 8.517 3.034 2.308 6.7 3.103 9.338 2.029.225-.09.425-.007.536.102.059.056.186.213.102.44z"/><path d="m21.811 8.897 1.438.629.63 1.439c.085.193.276.318.487.318s.402-.125.488-.319l.629-1.438 1.438-.629c.194-.084.319-.276.319-.488 0-.211-.125-.403-.319-.488l-1.438-.629-.63-1.439c-.17-.387-.804-.388-.976.001l-.629 1.438-1.438.629c-.194.084-.319.276-.319.487 0 .213.125.405.32.489zm1.814-.951c.125-.054.223-.152.276-.275l.464-1.061.464 1.06c.054.125.151.223.274.276l1.061.463-1.06.464c-.124.054-.222.152-.275.274l-.464 1.061-.464-1.06c-.054-.125-.151-.223-.274-.276l-1.061-.464z"/><path d="m7.184 14.748c0-.209-.123-.399-.315-.484l-1.379-.602-.603-1.378c-.083-.191-.272-.315-.481-.316h-.001c-.209 0-.398.124-.483.315l-.603 1.379-1.379.603c-.192.084-.315.274-.315.483s.125.398.315.481l1.379.603.603 1.379c.084.191.273.315.482.315h.001c.209 0 .398-.125.481-.315l.603-1.379 1.378-.603c.193-.083.317-.272.317-.481zm-2.075.432c-.001 0-.002.001-.004.002-.119.054-.213.149-.268.27l-.433.991-.432-.989c-.052-.121-.147-.218-.272-.274l-.991-.433.99-.433c.123-.054.22-.151.272-.271l.433-.991.434.993c.054.121.15.217.271.27l.991.432z"/></g></svg>