<svg id="Food_Menu" viewBox="0 0 64 64" xmlns="http://www.w3.org/2000/svg" data-name="Food Menu"><path d="m53 4h-31.97s0 0 0 0h-.02s-.08.02-.12.02c-.09.01-.17.02-.25.05-.06.02-.1.06-.16.1s-.12.06-.16.11c-.06.06-.1.13-.14.19-.03.04-.06.07-.08.11v.01c-.03.06-.03.13-.05.2-.01.06-.04.13-.04.19v.01 9h-9c-2.76 0-5 2.24-5 5v36c0 2.76 2.24 5 5 5h28c2.76 0 5-2.24 5-5v-5h9c2.76 0 5-2.24 5-5v-35.99c0-2.76-2.24-5-5-5zm-31 2.55 16.38 7.45h-16.38zm20 48.45c0 1.65-1.35 3-3 3h-28c-1.65 0-3-1.35-3-3v-36c0-1.65 1.35-3 3-3h31zm14-10c0 1.65-1.35 3-3 3h-9v-33s-.02-.09-.03-.14c-.01-.08-.02-.15-.05-.23-.02-.06-.07-.11-.1-.17-.03-.05-.06-.11-.1-.15-.06-.06-.13-.1-.2-.14-.04-.02-.07-.06-.11-.08h-.02s0-.01 0-.01l-17.77-8.08h27.38c1.65 0 3 1.35 3 3z"/><path d="m31 30c0-3.31-2.69-6-6-6s-6 2.69-6 6c-3.31 0-6 2.69-6 6 0 2.97 2.17 5.44 5 5.92v3.08c0 .55.45 1 1 1h12c.55 0 1-.45 1-1v-3.08c2.83-.48 5-2.95 5-5.92 0-3.31-2.69-6-6-6zm0 10c-.55 0-1 .45-1 1v3h-10v-3c0-.55-.45-1-1-1-2.21 0-4-1.79-4-4s1.79-4 4-4c.11 0 .23.01.35.02.39 1.09 1.09 2.05 2.05 2.78.44.33 1.07.24 1.4-.2s.24-1.07-.2-1.4c-.74-.56-1.25-1.34-1.47-2.21 0-.03-.02-.05-.02-.08-.07-.29-.11-.6-.11-.91 0-2.21 1.79-4 4-4s4 1.79 4 4c0 .31-.04.62-.1.91 0 .03-.02.05-.02.08-.22.87-.73 1.65-1.47 2.21-.44.33-.53.96-.2 1.4.2.26.5.4.8.4.21 0 .42-.07.6-.2.96-.72 1.66-1.69 2.05-2.78.12-.01.24-.02.35-.02 2.21 0 4 1.79 4 4s-1.79 4-4 4z"/><path d="m31 48h-12c-.55 0-1 .45-1 1s.45 1 1 1h12c.55 0 1-.45 1-1s-.45-1-1-1z"/></svg>