<svg id="Capa_1" enable-background="new 0 0 512.062 512.062" viewBox="0 0 512.062 512.062" xmlns="http://www.w3.org/2000/svg"><g><path d="m95.859 127.142c-20.234 7.849-35.604 24.099-42.167 44.584-4.558 14.225-4.913 30.087-1.058 47.147 1.05 4.645 5.175 7.797 9.745 7.797.729 0 1.472-.08 2.213-.248 5.388-1.217 8.768-6.572 7.55-11.958-3.058-13.53-2.857-25.856.597-36.636 4.712-14.708 15.774-26.386 30.353-32.04 5.149-1.997 7.704-7.791 5.707-12.939-1.997-5.15-7.794-7.703-12.94-5.707z"/><path d="m461.91 30.026c5.522 0 10-4.477 10-10v-9.996c0-5.523-4.478-10-10-10s-10 4.477-10 10v9.996c0 5.523 4.478 10 10 10z"/><path d="m492.006 60.122h9.996c5.522 0 10-4.477 10-10s-4.478-10-10-10h-9.996c-5.522 0-10 4.477-10 10s4.477 10 10 10z"/><path d="m461.91 100.214c5.522 0 10-4.477 10-10v-9.996c0-5.523-4.478-10-10-10s-10 4.477-10 10v9.996c0 5.523 4.478 10 10 10z"/><path d="m421.818 60.122h9.995c5.522 0 10-4.477 10-10s-4.478-10-10-10h-9.995c-5.522 0-10 4.477-10 10s4.478 10 10 10z"/><path d="m50.093 411.848c-5.522 0-10 4.477-10 10v9.996c0 5.523 4.478 10 10 10s10-4.477 10-10v-9.996c0-5.523-4.478-10-10-10z"/><path d="m90.185 451.94h-9.996c-5.522 0-10 4.477-10 10s4.478 10 10 10h9.996c5.522 0 10-4.477 10-10s-4.478-10-10-10z"/><path d="m19.996 451.94h-9.996c-5.522 0-10 4.477-10 10s4.478 10 10 10h9.996c5.522 0 10-4.477 10-10s-4.477-10-10-10z"/><path d="m50.093 482.036c-5.522 0-10 4.477-10 10v9.996c0 5.523 4.478 10 10 10s10-4.477 10-10v-9.996c0-5.523-4.478-10-10-10z"/><path d="m477.021 190.861c-16.698-12.813-37.352-19.376-58.205-18.48-6.192.266-12.251 1.169-18.131 2.685-6.999-43.541-35.687-79.267-77.109-94.921-21.251-8.031-44.099-9.941-66.071-5.523-20.505 4.124-39.798 13.771-56.309 28.083-21.471-18.68-47.066-29.114-74.568-30.297-28.31-1.216-56.396 7.703-79.092 25.117-24.671 18.932-40.974 46.525-45.906 77.696-5.54 35.018 3.251 73.827 25.423 112.23 19.337 33.492 49.381 68.538 84.598 98.682 31.937 27.336 64.441 47.257 86.95 53.289.848.227 1.718.341 2.588.341s1.74-.114 2.588-.341c21.816-5.846 52.548-24.43 83.373-50.261 26.752 25.586 56.041 44.886 76.101 50.261.848.227 1.718.341 2.588.341s1.74-.114 2.588-.341c33.876-9.076 94.07-57.865 123.924-109.574 37.56-65.07 15.221-115.544-15.33-138.987zm-275.831 228.489c-19.504-6.106-48.47-24.389-76.535-48.411-33.538-28.708-62.05-61.909-80.282-93.488-44.973-77.895-19.845-137.06 15.339-164.057 33.89-26.005 90.405-33.952 134.405 10.048 1.876 1.875 4.419 2.929 7.071 2.929s5.195-1.054 7.071-2.929c29.764-29.762 70.227-38.955 108.247-24.587 35.922 13.576 60.386 45.288 65.03 83.661-5.487 2.914-10.736 6.434-15.699 10.539-15.389-12.729-33.53-19.837-52.979-20.673-20.837-.892-41.506 5.667-58.204 18.48-30.553 23.444-52.899 73.911-15.328 138.986 9.008 15.603 20.779 30.94 33.756 45-26.659 22.156-53.35 38.711-71.892 44.502zm273.839-99.503c-27.925 48.367-82.669 90.609-109.191 99.473-26.522-8.864-81.266-51.106-109.19-99.473-31.064-53.805-15.108-93.712 10.183-113.119 11.406-8.752 26.562-14.51 42.604-14.51 16.549 0 34.044 6.129 49.332 21.417 1.876 1.875 4.419 2.929 7.071 2.929s5.195-1.054 7.071-2.929c30.11-30.111 68.768-24.688 91.937-6.908 25.291 19.408 41.248 59.316 10.183 113.12z"/><path d="m294.987 224.969c-11.155 4.327-19.623 13.269-23.232 24.533-3.687 11.506-2.524 25.001 3.452 40.112 1.554 3.929 5.318 6.324 9.302 6.324 1.224 0 2.468-.226 3.675-.704 5.136-2.031 7.652-7.841 5.621-12.977-2.909-7.355-5.792-17.95-3.003-26.653 1.783-5.567 5.838-9.825 11.418-11.989 5.149-1.997 7.704-7.79 5.707-12.939-1.998-5.15-7.793-7.704-12.94-5.707z"/></g><g/><g/><g/><g/><g/><g/><g/><g/><g/><g/><g/><g/><g/><g/><g/></svg>