<svg width="36" height="34" viewBox="0 0 36 34" fill="none" xmlns="http://www.w3.org/2000/svg">
<path d="M32.6275 3.50818C31.741 2.61019 30.6884 1.89783 29.5298 1.4118C28.3712 0.925769 27.1293 0.675606 25.8752 0.675606C24.621 0.675606 23.3791 0.925769 22.2205 1.4118C21.0619 1.89783 20.0093 2.61019 19.1228 3.50818L17.9657 4.68905L16.8181 3.50818L16.8107 3.50067C15.9243 2.60348 14.872 1.89179 13.7139 1.40624C12.5558 0.920687 11.3145 0.670776 10.061 0.670776C8.80746 0.670776 7.56619 0.920687 6.40808 1.40624C5.24996 1.89179 4.19767 2.60348 3.31129 3.50067L2.79584 4.0224C1.90945 4.91957 1.20633 5.98467 0.726616 7.15689C0.246904 8.32911 0 9.58549 0 10.8543C0 12.1231 0.246904 13.3795 0.726616 14.5517C1.20633 15.7239 1.90945 16.789 2.79584 17.6862L16.3981 31.4584L17.9339 33.0869L17.971 33.0494L18.0102 33.0891L19.4495 31.5529L33.143 17.6926C34.9305 15.8793 35.9344 13.4223 35.9344 10.8607C35.9344 8.29914 34.9305 5.84216 33.143 4.02884L32.6275 3.50818ZM31.4555 15.9847L17.9699 29.6345L4.48432 15.9847C3.81953 15.3118 3.29219 14.513 2.93241 13.6338C2.57262 12.7546 2.38744 11.8123 2.38744 10.8607C2.38744 9.90913 2.57262 8.96685 2.93241 8.08769C3.29219 7.20852 3.81953 6.40969 4.48432 5.73681L4.99978 5.21508C6.3422 3.85743 8.16225 3.09481 10.0599 3.09481C11.9576 3.09481 13.7777 3.85743 15.1201 5.21508L17.9614 8.13936L20.8155 5.21508C21.4803 4.54219 22.2695 4.00843 23.1381 3.64426C24.0067 3.2801 24.9377 3.09266 25.8778 3.09266C26.818 3.09266 27.7489 3.2801 28.6175 3.64426C29.4861 4.00843 30.2753 4.54219 30.9401 5.21508L31.4555 5.73681C32.7961 7.09687 33.5489 8.93958 33.5489 10.8607C33.5489 12.7819 32.7961 14.6246 31.4555 15.9847Z" fill="black"/>
</svg>
