<svg width="32" height="33" viewBox="0 0 32 33" fill="none" xmlns="http://www.w3.org/2000/svg">
<path d="M15.9091 0.781494C12.7626 0.781494 9.68672 1.72591 7.07048 3.49531C4.45424 5.26471 2.41514 7.77963 1.21101 10.722C0.00689316 13.6645 -0.30816 16.9022 0.305696 20.0258C0.919552 23.1495 2.43475 26.0187 4.65967 28.2708C6.8846 30.5228 9.71933 32.0564 12.8054 32.6778C15.8914 33.2991 19.0902 32.9802 21.9972 31.7614C24.9042 30.5426 27.3889 28.4787 29.137 25.8306C30.8851 23.1825 31.8182 20.0692 31.8182 16.8843C31.8168 12.614 30.1402 8.51904 27.157 5.49948C24.1737 2.47992 20.128 0.782917 15.9091 0.781494ZM17.5 4.11478C19.8591 4.42191 22.0855 5.39396 23.9252 6.92006C25.7648 8.44615 27.1437 10.4649 27.9045 12.7459L17.5 6.65903V4.11478ZM9.54546 5.74117C11.069 5.01052 12.6704 4.45942 14.3182 4.09868V15.9343L9.54546 18.7201V5.74117ZM4.1841 21.8762C3.25197 19.6508 2.96198 17.2035 3.34773 14.8181C3.73348 12.4326 4.77918 10.2067 6.36364 8.39814V20.6041L4.1841 21.8762ZM5.79092 24.662L15.9091 18.7362L20.6818 21.5219L9.57728 28.0114C8.10239 27.1684 6.81378 26.0285 5.79092 24.662ZM15.9091 29.7666C15.065 29.763 14.2232 29.6768 13.3955 29.509L23.8636 23.3899L26.0273 24.6459C24.8488 26.2354 23.3211 27.5255 21.5649 28.4143C19.8088 29.303 17.8725 29.766 15.9091 29.7666ZM17.5 15.9504V10.3788L28.6364 16.9004C28.6346 18.6102 28.2938 20.3022 27.6341 21.8762L17.5 15.9504Z" fill="black"/>
<path d="M15.9091 0.781494C12.7626 0.781494 9.68672 1.72591 7.07048 3.49531C4.45424 5.26471 2.41514 7.77963 1.21101 10.722C0.00689316 13.6645 -0.30816 16.9022 0.305696 20.0258C0.919552 23.1495 2.43475 26.0187 4.65967 28.2708C6.8846 30.5228 9.71933 32.0564 12.8054 32.6778C15.8914 33.2991 19.0902 32.9802 21.9972 31.7614C24.9042 30.5426 27.3889 28.4787 29.137 25.8306C30.8851 23.1825 31.8182 20.0692 31.8182 16.8843C31.8168 12.614 30.1402 8.51904 27.157 5.49948C24.1737 2.47992 20.128 0.782917 15.9091 0.781494ZM17.5 4.11478C19.8591 4.42191 22.0855 5.39396 23.9252 6.92006C25.7648 8.44615 27.1437 10.4649 27.9045 12.7459L17.5 6.65903V4.11478ZM9.54546 5.74117C11.069 5.01052 12.6704 4.45942 14.3182 4.09868V15.9343L9.54546 18.7201V5.74117ZM4.1841 21.8762C3.25197 19.6508 2.96198 17.2035 3.34773 14.8181C3.73348 12.4326 4.77918 10.2067 6.36364 8.39814V20.6041L4.1841 21.8762ZM5.79092 24.662L15.9091 18.7362L20.6818 21.5219L9.57728 28.0114C8.10239 27.1684 6.81378 26.0285 5.79092 24.662ZM15.9091 29.7666C15.065 29.763 14.2232 29.6768 13.3955 29.509L23.8636 23.3899L26.0273 24.6459C24.8488 26.2354 23.3211 27.5255 21.5649 28.4143C19.8088 29.303 17.8725 29.766 15.9091 29.7666ZM17.5 15.9504V10.3788L28.6364 16.9004C28.6346 18.6102 28.2938 20.3022 27.6341 21.8762L17.5 15.9504Z" stroke="black"/>
</svg>
