<svg id="Capa_1" enable-background="new 0 0 512 512" height="512" viewBox="0 0 512 512" width="512" xmlns="http://www.w3.org/2000/svg"><path d="m276.03 453.3c-.85 0-93.65-7.32-114.95-24.8l-.36-.33-24.55-24.55 98.43-212.98-81.95 1.37-24.42-24.42-.37-1.12c-2.61-7.83-4.6-31.73-5.6-51.49-.95-18.78-1.57-42.17.84-46.98l1.16-2.31 2.55-.39c30.22-4.65 193.72-3.81 226.2-3.59l3.21.01 1.47 1.46 21.47 21.47c1.97 1.42 2.45 4.37 2.86 6.87.36 2.19.8 5.37 1.31 9.47.86 6.84 1.95 16.36 3.23 28.3 2.18 20.3 4.2 40.88 4.22 41.08l.12 1.2-.44 1.12c-.27.69-27.5 70.15-54.51 138.72-15.86 40.27-28.54 72.36-37.69 95.38-5.43 13.67-9.67 24.26-12.58 31.46-1.55 3.82-2.77 6.82-3.63 8.86-1.62 3.86-2.6 6.19-6.02 6.19zm-108.42-32.38c16.1 12.83 86.83 20.62 105.3 22.14 10.46-25 79.83-201.57 107.79-272.89-2.72-27.64-7.29-71.04-8.83-78.66l-19.8-19.8c-33.13-.21-183.77-.96-220.31 3.04-1.36 14.42 1.58 73.65 5.28 87.51l19.69 19.69 93.64-1.57-102.19 221.1z"/><path d="m253.95 431.22c-.85 0-93.65-7.32-114.95-24.8l-2.99-2.45 109.05-235.95-116.04 1.94-1.16-3.48c-2.61-7.83-4.6-31.73-5.6-51.49-.95-18.78-1.57-42.17.84-46.98l1.16-2.31 2.55-.39c30.22-4.65 193.72-3.81 226.2-3.59l1.14.01c4.52 0 5.22 4.28 5.78 7.72.36 2.19.8 5.37 1.31 9.47.86 6.84 1.95 16.36 3.23 28.3 2.18 20.31 4.2 40.87 4.22 41.08l.12 1.2-.44 1.12c-.27.69-27.5 70.15-54.51 138.72-15.86 40.27-28.54 72.36-37.69 95.38-5.43 13.67-9.67 24.26-12.58 31.46-1.55 3.82-2.77 6.82-3.63 8.86-1.61 3.85-2.59 6.18-6.01 6.18zm-105.46-30.41c20.4 11.66 84.83 18.72 102.34 20.17 10.46-25 79.83-201.57 107.79-272.89-2.52-25.58-6.62-64.68-8.44-76.39-36.58-.23-182.54-.88-218.42 3.05-1.29 13.69 1.29 67.81 4.73 85.09l124.34-2.08zm205.59-329.09h.06z"/></svg>