<svg width="40" height="71" viewBox="0 0 40 71" fill="none" xmlns="http://www.w3.org/2000/svg">
<g clip-path="url(#clip0_5_800)">
<path d="M38.2716 3.78854C38.2716 3.78854 38.7667 2.8058 38.3666 2.04318C37.9665 1.28055 36.9939 1.38634 36.9939 1.38634H13.1158C13.1158 1.38634 12.4831 1.35329 12.0879 1.72511C11.6928 2.09694 11.5333 2.87255 11.5333 2.87255L2.17826 33.9717C2.17826 33.9717 1.69159 35.1465 2.10971 36.0513C2.52784 36.9562 3.51555 36.8775 3.51555 36.8775H12.0048L2.50338 68.2648C2.50338 68.2648 1.778 69.9001 2.94329 70.7193C4.10858 71.5384 5.31358 70.3035 5.31358 70.3035L39.6806 25.9846C39.6806 25.9846 40.2489 25.3305 39.869 24.3183C39.489 23.3061 38.6423 23.4047 38.6423 23.4047H28.8156L38.2716 3.78884V3.78854Z" fill="black"/>
<path d="M38.2717 3.78859C38.2717 3.78859 38.7667 2.80584 38.3666 2.04322C37.9666 1.2806 35.8421 0.132507 35.8421 0.132507L35.2449 0.599455L13.1159 1.38722C13.1159 1.38722 12.4831 1.35417 12.088 1.726C11.6928 2.09782 11.5333 2.87343 11.5333 2.87343L2.17837 33.9718C2.17837 33.9718 1.6917 35.1466 2.10982 36.0514C2.52795 36.9563 3.51566 36.8776 3.51566 36.8776H12.0048L2.79675 65.1328L1.43411 67.4081C1.43411 67.4081 0.508245 68.9521 0.915212 69.252C1.43797 69.6377 2.25309 70.2344 2.94304 70.7193C4.10863 71.5378 5.31333 70.3035 5.31333 70.3035L39.6805 25.9846C39.6805 25.9846 40.2488 25.3305 39.8689 24.3183C39.4889 23.3061 38.6421 23.4047 38.6421 23.4047H28.8154L38.2714 3.78889L38.2717 3.78859Z" fill="black"/>
<path d="M36.3314 2.40738C36.3314 2.40738 36.8264 1.42463 36.4263 0.662012C36.0263 -0.10061 35.0534 0.00517205 35.0534 0.00517205H11.1756C11.1756 0.00517205 10.5428 -0.0279334 10.1477 0.343949C9.75251 0.715831 9.59304 1.49138 9.59304 1.49138L0.238015 32.5907C0.238015 32.5907 -0.24866 33.7655 0.169465 34.6704C0.58759 35.5752 1.5753 35.4965 1.5753 35.4965H10.0645L0.5629 66.8837C0.5629 66.8837 -0.162543 68.519 1.00281 69.3381C2.16816 70.1572 3.37309 68.9223 3.37309 68.9223L37.7402 24.6034C37.7402 24.6034 38.3085 23.9493 37.9286 22.9371C37.5486 21.9249 36.7018 22.0235 36.7018 22.0235H26.875L36.3314 2.40738Z" fill="#EA526F"/>
</g>
<defs>
<clipPath id="clip0_5_800">
<rect width="40" height="71" fill="white"/>
</clipPath>
</defs>
</svg>
